SplineFontDB: 3.0
FontName: Chivo-Regular
FullName: Chivo Regular
FamilyName: Chivo
Weight: Normal
Copyright: Copyright (c) 2011-2014 by Omnibus-Type (www.omnibus-type.com omnibus.type@gmail.com), with Reserved Font Name 'Chivo'
UComments: "Disclaimer+AAoA +AAoA-Omnibus-Type give no warranty in relation to this font, and you use this+AAoA-at your own risk.+AAoA +AAoA-Omnibus-Type shall not be liable for any direct, indirect, consequential, or incidental damages (including damages from loss of business profits, business interruption, loss of business information, and the like) arising out of the use of or inability to use the fonts.+AAoA +AAoA +AAoA-If you have further questions, please contact us:+AAoA-omnibus.type@gmail.com" 

StartChar: .notdef
Encoding: 65536 -1 0
Width: 500
Flags: MW
HStem: 0 50<80 420 80 500> 650 50<80 80 80 420>
VStem: 0 50<95 95 95 605> 450 50<95 605 605 605>
LayerCount: 2
Fore
SplineSet
500 0 m 1
 0 0 l 1
 0 700 l 1
 500 700 l 1
 500 0 l 1
80 650 m 1
 250 395 l 1
 420 650 l 1
 80 650 l 1
50 95 m 1
 220 350 l 1
 50 605 l 1
 50 95 l 1
280 350 m 1
 450 95 l 1
 450 605 l 1
 280 350 l 1
80 50 m 1
 420 50 l 1
 250 305 l 1
 80 50 l 1
EndSplineSet
EndChar

StartChar: A
Encoding: 65 65 1
Width: 652
GlyphClass: 2
Flags: MW
HStem: 149 89<191 450 191 484 156 450> 568 118<318 318 318 324>
VStem: 4 644<0 0>
LayerCount: 2
Fore
SplineSet
648 0 m 1
 542 0 l 1
 484 149 l 1
 156 149 l 1
 99 0 l 1
 4 0 l 1
 272 686 l 1
 380 686 l 1
 648 0 l 1
318 568 m 1
 191 238 l 1
 450 238 l 1
 324 568 l 1
 318 568 l 1
EndSplineSet
Substitution2: "Single Substitution lookup 5 subtable" ordfeminine
Substitution2: "'aalt' Access All Alternates lookup 0 subtable" ordfeminine
Position2: "'cpsp' Capital Spacing lookup 0 subtable" dx=5 dy=0 dh=10 dv=0
EndChar

StartChar: Aacute
Encoding: 193 193 2
Width: 652
GlyphClass: 2
Flags: MW
HStem: 149 89<191 450 191 484 156 450> 568 118<318 318 318 324> 750 145<292 476 292 476>
VStem: 4 644<0 0>
LayerCount: 2
Fore
SplineSet
477 892 m 1
 361 750 l 1
 292 750 l 1
 386 895 l 1
 476 895 l 1
 477 892 l 1
648 0 m 1
 542 0 l 1
 484 149 l 1
 156 149 l 1
 99 0 l 1
 4 0 l 1
 272 686 l 1
 380 686 l 1
 648 0 l 1
318 568 m 1
 191 238 l 1
 450 238 l 1
 324 568 l 1
 318 568 l 1
EndSplineSet
Position2: "'cpsp' Capital Spacing lookup 0 subtable" dx=5 dy=0 dh=10 dv=0
EndChar

StartChar: Abreve
Encoding: 258 258 3
Width: 652
GlyphClass: 2
Flags: MW
HStem: 149 89<191 450 191 484 156 450> 568 118<318 318 318 324> 788 62<294.5 356.5 294.5 373.5>
VStem: 4 644<0 0>
LayerCount: 2
Fore
SplineSet
451 912 m 1
 519 912 l 1
 519 850 421 788 326 788 c 0
 229 788 134 851 134 912 c 1
 201 912 l 1
 212 876 263 850 326 850 c 0
 387 850 440 876 451 912 c 1
648 0 m 1
 542 0 l 1
 484 149 l 1
 156 149 l 1
 99 0 l 1
 4 0 l 1
 272 686 l 1
 380 686 l 1
 648 0 l 1
318 568 m 1
 191 238 l 1
 450 238 l 1
 324 568 l 1
 318 568 l 1
EndSplineSet
EndChar

StartChar: Acircumflex
Encoding: 194 194 4
Width: 652
GlyphClass: 2
Flags: MW
HStem: 149 89<191 450 191 484 156 450> 568 118<318 318 318 324> 750 145<149 363 149 363 285 498 285 418>
VStem: 4 644<0 0>
LayerCount: 2
Fore
SplineSet
498 750 m 1
 418 750 l 1
 324 839 l 1
 229 750 l 1
 149 750 l 1
 285 895 l 1
 363 895 l 1
 498 750 l 1
648 0 m 1
 542 0 l 1
 484 149 l 1
 156 149 l 1
 99 0 l 1
 4 0 l 1
 272 686 l 1
 380 686 l 1
 648 0 l 1
318 568 m 1
 191 238 l 1
 450 238 l 1
 324 568 l 1
 318 568 l 1
EndSplineSet
Position2: "'cpsp' Capital Spacing lookup 0 subtable" dx=5 dy=0 dh=10 dv=0
EndChar

StartChar: Adieresis
Encoding: 196 196 5
Width: 652
GlyphClass: 2
Flags: MW
HStem: 149 89<191 450 191 484 156 450> 568 118<318 318 318 324> 749 98<184 274 184 274 372 463>
VStem: 184 90<749 847> 372 91<749 847>
LayerCount: 2
Fore
SplineSet
274 749 m 1
 184 749 l 1
 184 847 l 1
 274 847 l 1
 274 749 l 1
463 749 m 1
 372 749 l 1
 372 847 l 1
 463 847 l 1
 463 749 l 1
648 0 m 1
 542 0 l 1
 484 149 l 1
 156 149 l 1
 99 0 l 1
 4 0 l 1
 272 686 l 1
 380 686 l 1
 648 0 l 1
318 568 m 1
 191 238 l 1
 450 238 l 1
 324 568 l 1
 318 568 l 1
EndSplineSet
Position2: "'cpsp' Capital Spacing lookup 0 subtable" dx=5 dy=0 dh=10 dv=0
EndChar

StartChar: Agrave
Encoding: 192 192 6
Width: 652
GlyphClass: 2
Flags: MW
HStem: 149 89<191 450 191 484 156 450> 568 118<318 318 318 324> 750 145<176 360 176 290>
VStem: 4 644<0 0>
LayerCount: 2
Fore
SplineSet
360 750 m 1
 290 750 l 1
 175 892 l 1
 176 895 l 1
 265 895 l 1
 360 750 l 1
648 0 m 1
 542 0 l 1
 484 149 l 1
 156 149 l 1
 99 0 l 1
 4 0 l 1
 272 686 l 1
 380 686 l 1
 648 0 l 1
318 568 m 1
 191 238 l 1
 450 238 l 1
 324 568 l 1
 318 568 l 1
EndSplineSet
Position2: "'cpsp' Capital Spacing lookup 0 subtable" dx=5 dy=0 dh=10 dv=0
EndChar

StartChar: Amacron
Encoding: 256 256 7
Width: 652
GlyphClass: 2
Flags: MW
HStem: 149 89<191 450 191 484 156 450> 568 118<318 318 318 324> 837 74<167 485 167 485>
VStem: 4 644<0 0>
LayerCount: 2
Fore
SplineSet
485 837 m 1
 167 837 l 1
 167 911 l 1
 485 911 l 1
 485 837 l 1
648 0 m 1
 542 0 l 1
 484 149 l 1
 156 149 l 1
 99 0 l 1
 4 0 l 1
 272 686 l 1
 380 686 l 1
 648 0 l 1
318 568 m 1
 191 238 l 1
 450 238 l 1
 324 568 l 1
 318 568 l 1
EndSplineSet
EndChar

StartChar: Aogonek
Encoding: 260 260 8
Width: 652
GlyphClass: 2
Flags: MW
HStem: -143 47<610.5 632> 149 89<191 450 191 484 156 450> 568 118<318 324 318 318>
VStem: 519 62<-70.5 -54.5>
LayerCount: 2
Fore
SplineSet
692 -82 m 1
 705 -119 l 1
 678 -135 648 -143 616 -143 c 0
 557 -143 519 -120 519 -69 c 0
 519 -40 549 -16 573 0 c 1
 542 0 l 1
 484 149 l 1
 156 149 l 1
 99 0 l 1
 4 0 l 1
 272 686 l 1
 380 686 l 1
 648 0 l 1
 627 0 l 1
 607 -11 581 -35 581 -58 c 0
 581 -83 596 -96 625 -96 c 0
 640 -96 662 -91 692 -82 c 1
450 238 m 1
 324 568 l 1
 318 568 l 1
 191 238 l 1
 450 238 l 1
EndSplineSet
EndChar

StartChar: Aring
Encoding: 197 197 9
Width: 652
GlyphClass: 2
Flags: MW
HStem: 149 89<191 450 191 484 156 450> 568 118<318 318 318 324> 725 47<310.5 341.5 310.5 354> 879 47<310.5 341.5>
VStem: 225 45<809.5 840.5 809.5 853> 382 45<810.5 840.5>
LayerCount: 2
Fore
SplineSet
326 926 m 0
 376 926 427 883 427 825 c 0
 427 770 382 725 326 725 c 0
 273 725 225 768 225 825 c 0
 225 881 270 926 326 926 c 0
326 879 m 0
 295 879 270 856 270 825 c 0
 270 794 295 772 326 772 c 0
 357 772 382 795 382 826 c 0
 382 855 357 879 326 879 c 0
648 0 m 1
 542 0 l 1
 484 149 l 1
 156 149 l 1
 99 0 l 1
 4 0 l 1
 272 686 l 1
 380 686 l 1
 648 0 l 1
318 568 m 1
 191 238 l 1
 450 238 l 1
 324 568 l 1
 318 568 l 1
EndSplineSet
Position2: "'cpsp' Capital Spacing lookup 0 subtable" dx=5 dy=0 dh=10 dv=0
EndChar

StartChar: Atilde
Encoding: 195 195 10
Width: 652
GlyphClass: 2
Flags: MW
HStem: 149 89<191 450 191 484 156 450> 568 118<318 318 318 324> 750 69<403.5 426.5 403.5 438.5> 784 70<221 250.5>
VStem: 4 644<0 0>
LayerCount: 2
Fore
SplineSet
467 854 m 1xd8
 517 854 l 1xd8
 517 795 472 750 405 750 c 0xe8
 385 750 361 753 335 761 c 0
 280 777 265 784 236 784 c 0
 206 784 188 773 181 750 c 1
 131 750 l 1
 131 802 170 854 242 854 c 0xd8
 277 854 304 845 332 836 c 0
 369 825 395 819 412 819 c 0xe8
 441 819 460 831 467 854 c 1xd8
648 0 m 1
 542 0 l 1
 484 149 l 1
 156 149 l 1
 99 0 l 1
 4 0 l 1
 272 686 l 1
 380 686 l 1
 648 0 l 1
318 568 m 1
 191 238 l 1
 450 238 l 1
 324 568 l 1
 318 568 l 1
EndSplineSet
Position2: "'cpsp' Capital Spacing lookup 0 subtable" dx=5 dy=0 dh=10 dv=0
EndChar

StartChar: AE
Encoding: 198 198 11
Width: 983
GlyphClass: 2
Flags: MW
HStem: 0 89<627 925 627 939 544 925> 149 89<227 486 227 507 179 486> 306 89<573 887 573 573> 597 89<501 919 501 501>
VStem: 7 932<0 0>
LayerCount: 2
Fore
SplineSet
919 597 m 1
 501 597 l 1
 551 395 l 1
 887 395 l 1
 887 306 l 1
 573 306 l 1
 627 89 l 1
 925 89 l 1
 939 0 l 1
 544 0 l 1
 507 149 l 1
 179 149 l 1
 101 0 l 1
 7 0 l 1
 371 686 l 1
 932 686 l 1
 919 597 l 1
400 568 m 1
 227 238 l 1
 486 238 l 1
 406 568 l 1
 400 568 l 1
EndSplineSet
Position2: "'cpsp' Capital Spacing lookup 0 subtable" dx=5 dy=0 dh=10 dv=0
EndChar

StartChar: B
Encoding: 66 66 12
Width: 651
GlyphClass: 2
Flags: MW
HStem: 0 89<190 386 386 402> 305 89<190 376 190 376 376 386> 597 89<190 190 190 376>
VStem: 92 98<89 305 394 597> 478 98<478.5 523> 494 98<167 227>
LayerCount: 2
Fore
SplineSet
92 686 m 1xf4
 396 686 l 2
 495 686 576 612 576 518 c 0xf8
 576 439 538 381 456 358 c 1
 456 353 l 1
 531 341 592 283 592 187 c 0
 592 73 499 0 402 0 c 2
 92 0 l 1
 92 686 l 1xf4
190 597 m 1
 190 394 l 1
 376 394 l 2
 427 394 478 436 478 495 c 0
 478 551 432 597 376 597 c 2
 190 597 l 1
190 305 m 1
 190 89 l 1
 386 89 l 2
 446 89 494 137 494 197 c 0xf4
 494 257 446 305 386 305 c 2
 190 305 l 1
EndSplineSet
Position2: "'cpsp' Capital Spacing lookup 0 subtable" dx=5 dy=0 dh=10 dv=0
EndChar

StartChar: C
Encoding: 67 67 13
Width: 663
GlyphClass: 2
Flags: MW
HStem: -10 89<282 399 282 425> 607 89<284.5 398.5>
VStem: 62 98<298 388 227 484> 515 94<204.5 261>
AnchorPoint: "Bottom" 332 0 basechar 0
LayerCount: 2
Fore
SplineSet
344 696 m 0
 505 696 609 593 609 423 c 1
 511 423 l 1
 511 538 453 607 344 607 c 0
 225 607 160 532 160 388 c 2
 160 298 l 2
 160 156 222 79 342 79 c 0
 456 79 515 148 515 261 c 1
 609 261 l 1
 609 94 506 -10 344 -10 c 0
 167 -10 62 104 62 298 c 2
 62 388 l 2
 62 580 167 696 344 696 c 0
EndSplineSet
Position2: "'cpsp' Capital Spacing lookup 0 subtable" dx=5 dy=0 dh=10 dv=0
EndChar

StartChar: Cacute
Encoding: 262 262 14
Width: 663
GlyphClass: 2
Flags: MW
HStem: -10 89<282 399 282 425> 607 89<284.5 398.5> 750 145<279 463 279 463>
VStem: 62 98<298 388 227 484> 515 94<204.5 261>
AnchorPoint: "Bottom" 332 0 basechar 0
LayerCount: 2
Fore
SplineSet
464 892 m 1
 348 750 l 1
 279 750 l 1
 373 895 l 1
 463 895 l 1
 464 892 l 1
344 696 m 0
 505 696 609 593 609 423 c 1
 511 423 l 1
 511 538 453 607 344 607 c 0
 225 607 160 532 160 388 c 2
 160 298 l 2
 160 156 222 79 342 79 c 0
 456 79 515 148 515 261 c 1
 609 261 l 1
 609 94 506 -10 344 -10 c 0
 167 -10 62 104 62 298 c 2
 62 388 l 2
 62 580 167 696 344 696 c 0
EndSplineSet
EndChar

StartChar: Ccaron
Encoding: 268 268 15
Width: 663
GlyphClass: 2
Flags: MW
HStem: -10 89<282 399 282 425> 607 89<284.5 398.5> 750 145<158 372 158 294>
VStem: 62 98<298 388 227 484> 515 94<204.5 261>
AnchorPoint: "Bottom" 332 0 basechar 0
LayerCount: 2
Fore
SplineSet
372 750 m 1
 294 750 l 1
 158 895 l 1
 238 895 l 1
 333 806 l 1
 427 895 l 1
 507 895 l 1
 372 750 l 1
344 696 m 0
 505 696 609 593 609 423 c 1
 511 423 l 1
 511 538 453 607 344 607 c 0
 225 607 160 532 160 388 c 2
 160 298 l 2
 160 156 222 79 342 79 c 0
 456 79 515 148 515 261 c 1
 609 261 l 1
 609 94 506 -10 344 -10 c 0
 167 -10 62 104 62 298 c 2
 62 388 l 2
 62 580 167 696 344 696 c 0
EndSplineSet
EndChar

StartChar: Ccedilla
Encoding: 199 199 16
Width: 663
GlyphClass: 2
Flags: MW
HStem: -197 51<322.5 342.5 309.5 370> -60 43<314 335 314 338> -10 89<282 399 282 425> 607 89<284.5 398.5>
VStem: 62 98<298 388 227 484> 387 62<-116 -87.5> 515 94<204.5 261>
LayerCount: 2
Fore
SplineSet
344 696 m 0
 505 696 609 593 609 423 c 1
 511 423 l 1
 511 538 453 607 344 607 c 0
 225 607 160 532 160 388 c 2
 160 298 l 2
 160 156 222 79 342 79 c 0
 456 79 515 148 515 261 c 1
 609 261 l 1
 609 94 506 -10 344 -10 c 0
 167 -10 62 104 62 298 c 2
 62 388 l 2
 62 580 167 696 344 696 c 0
314 -17 m 1xde
 338 -17 l 2
 412 -17 449 -47 449 -106 c 0
 449 -164 396 -197 344 -197 c 0
 301 -197 266 -190 239 -175 c 1
 248 -126 l 1
 275 -139 299 -146 320 -146 c 0
 365 -146 387 -131 387 -101 c 0
 387 -74 363 -60 335 -60 c 2
 314 -60 l 1
 314 -17 l 1xde
EndSplineSet
Position2: "'cpsp' Capital Spacing lookup 0 subtable" dx=5 dy=0 dh=10 dv=0
EndChar

StartChar: D
Encoding: 68 68 17
Width: 675
GlyphClass: 2
Flags: MW
HStem: 0 89<190 330 190 330> 597 89<190 190 190 330>
VStem: 92 98<89 597 89 686 89 686> 516 98<308 378 213.5 448.5>
LayerCount: 2
Fore
SplineSet
92 686 m 1
 330 686 l 2
 503 686 614 567 614 378 c 2
 614 308 l 2
 614 119 503 0 330 0 c 2
 92 0 l 1
 92 686 l 1
190 597 m 1
 190 89 l 1
 330 89 l 2
 447 89 516 162 516 308 c 2
 516 378 l 2
 516 519 452 597 330 597 c 2
 190 597 l 1
EndSplineSet
Position2: "'cpsp' Capital Spacing lookup 0 subtable" dx=5 dy=0 dh=10 dv=0
EndChar

StartChar: Eth
Encoding: 208 208 18
Width: 681
GlyphClass: 2
Flags: MW
HStem: 0 89<196 336 196 336> 310 65<5 98 5 98 196 341> 597 89<196 196 196 336>
VStem: 98 98<89 310 89 310 89 310 375 597> 522 98<308 378 213.5 448.5>
LayerCount: 2
Fore
SplineSet
98 686 m 1
 336 686 l 2
 509 686 620 567 620 378 c 2
 620 308 l 2
 620 119 509 0 336 0 c 2
 98 0 l 1
 98 310 l 1
 5 310 l 1
 5 375 l 1
 98 375 l 1
 98 686 l 1
196 597 m 1
 196 375 l 1
 341 375 l 1
 341 310 l 1
 196 310 l 1
 196 89 l 1
 336 89 l 2
 453 89 522 162 522 308 c 2
 522 378 l 2
 522 519 458 597 336 597 c 2
 196 597 l 1
EndSplineSet
Position2: "'cpsp' Capital Spacing lookup 0 subtable" dx=5 dy=0 dh=10 dv=0
EndChar

StartChar: Dcaron
Encoding: 270 270 19
Width: 675
GlyphClass: 2
Flags: MW
HStem: 0 89<190 330 190 330> 597 89<190 190 190 330> 750 145<164 378 164 300>
VStem: 92 98<89 597 89 686 89 686> 516 98<308 378 213.5 448.5>
LayerCount: 2
Fore
SplineSet
378 750 m 1
 300 750 l 1
 164 895 l 1
 244 895 l 1
 339 806 l 1
 433 895 l 1
 513 895 l 1
 378 750 l 1
92 686 m 1
 330 686 l 2
 503 686 614 567 614 378 c 2
 614 308 l 2
 614 119 503 0 330 0 c 2
 92 0 l 1
 92 686 l 1
190 597 m 1
 190 89 l 1
 330 89 l 2
 447 89 516 162 516 308 c 2
 516 378 l 2
 516 519 452 597 330 597 c 2
 190 597 l 1
EndSplineSet
EndChar

StartChar: Dcroat
Encoding: 272 272 20
Width: 681
GlyphClass: 2
Flags: MW
HStem: 0 89<196 336 196 336> 310 65<5 98 5 98 196 341> 597 89<196 196 196 336>
VStem: 98 98<89 310 89 310 89 310 375 597> 522 98<308 378 213.5 448.5>
LayerCount: 2
Fore
SplineSet
98 686 m 1
 336 686 l 2
 509 686 620 567 620 378 c 2
 620 308 l 2
 620 119 509 0 336 0 c 2
 98 0 l 1
 98 310 l 1
 5 310 l 1
 5 375 l 1
 98 375 l 1
 98 686 l 1
196 597 m 1
 196 375 l 1
 341 375 l 1
 341 310 l 1
 196 310 l 1
 196 89 l 1
 336 89 l 2
 453 89 522 162 522 308 c 2
 522 378 l 2
 522 519 458 597 336 597 c 2
 196 597 l 1
EndSplineSet
EndChar

StartChar: E
Encoding: 69 69 21
Width: 593
GlyphClass: 2
Flags: MW
HStem: 0 89<190 535 190 549> 306 89<190 497 190 497> 597 89<190 529 190 190>
VStem: 92 98<89 306 395 597>
AnchorPoint: "Bottom" 297 0 basechar 0
LayerCount: 2
Fore
SplineSet
529 597 m 1
 190 597 l 1
 190 395 l 1
 497 395 l 1
 497 306 l 1
 190 306 l 1
 190 89 l 1
 535 89 l 1
 549 0 l 1
 92 0 l 1
 92 686 l 1
 542 686 l 1
 529 597 l 1
EndSplineSet
Position2: "'cpsp' Capital Spacing lookup 0 subtable" dx=5 dy=0 dh=10 dv=0
EndChar

StartChar: Eacute
Encoding: 201 201 22
Width: 593
GlyphClass: 2
Flags: MW
HStem: 0 89<190 535 190 549> 306 89<190 497 190 497> 597 89<190 529 190 190> 750 145<284 468 284 468>
VStem: 92 98<89 306 395 597>
LayerCount: 2
Fore
SplineSet
469 892 m 1
 353 750 l 1
 284 750 l 1
 378 895 l 1
 468 895 l 1
 469 892 l 1
529 597 m 1
 190 597 l 1
 190 395 l 1
 497 395 l 1
 497 306 l 1
 190 306 l 1
 190 89 l 1
 535 89 l 1
 549 0 l 1
 92 0 l 1
 92 686 l 1
 542 686 l 1
 529 597 l 1
EndSplineSet
Position2: "'cpsp' Capital Spacing lookup 0 subtable" dx=5 dy=0 dh=10 dv=0
EndChar

StartChar: Ecaron
Encoding: 282 282 23
Width: 593
GlyphClass: 2
Flags: MW
HStem: 0 89<190 535 190 549> 306 89<190 497 190 497> 597 89<190 529 190 190> 750 145<123 337 123 259>
VStem: 92 98<89 306 395 597>
AnchorPoint: "Bottom" 297 0 basechar 0
LayerCount: 2
Fore
SplineSet
337 750 m 1
 259 750 l 1
 123 895 l 1
 203 895 l 1
 298 806 l 1
 392 895 l 1
 472 895 l 1
 337 750 l 1
529 597 m 1
 190 597 l 1
 190 395 l 1
 497 395 l 1
 497 306 l 1
 190 306 l 1
 190 89 l 1
 535 89 l 1
 549 0 l 1
 92 0 l 1
 92 686 l 1
 542 686 l 1
 529 597 l 1
EndSplineSet
EndChar

StartChar: Ecircumflex
Encoding: 202 202 24
Width: 593
GlyphClass: 2
Flags: MW
HStem: 0 89<190 535 190 549> 306 89<190 497 190 497> 597 89<190 529 190 190> 750 145<140 354 140 354 276 489 276 409>
VStem: 92 98<89 306 395 597>
LayerCount: 2
Fore
SplineSet
489 750 m 1
 409 750 l 1
 315 839 l 1
 220 750 l 1
 140 750 l 1
 276 895 l 1
 354 895 l 1
 489 750 l 1
529 597 m 1
 190 597 l 1
 190 395 l 1
 497 395 l 1
 497 306 l 1
 190 306 l 1
 190 89 l 1
 535 89 l 1
 549 0 l 1
 92 0 l 1
 92 686 l 1
 542 686 l 1
 529 597 l 1
EndSplineSet
Position2: "'cpsp' Capital Spacing lookup 0 subtable" dx=5 dy=0 dh=10 dv=0
EndChar

StartChar: Edieresis
Encoding: 203 203 25
Width: 593
GlyphClass: 2
Flags: MW
HStem: 0 89<190 535 190 549> 306 89<190 497 190 497> 597 89<190 529 190 190> 750 98<178 268 178 268 366 457>
VStem: 92 98<89 306 395 597> 178 90<750 848> 366 91<750 848>
LayerCount: 2
Fore
SplineSet
268 750 m 1xf6
 178 750 l 1
 178 848 l 1
 268 848 l 1
 268 750 l 1xf6
457 750 m 1
 366 750 l 1
 366 848 l 1
 457 848 l 1
 457 750 l 1
529 597 m 1
 190 597 l 1
 190 395 l 1
 497 395 l 1
 497 306 l 1
 190 306 l 1
 190 89 l 1
 535 89 l 1
 549 0 l 1
 92 0 l 1
 92 686 l 1xfa
 542 686 l 1
 529 597 l 1
EndSplineSet
Position2: "'cpsp' Capital Spacing lookup 0 subtable" dx=5 dy=0 dh=10 dv=0
EndChar

StartChar: Edotaccent
Encoding: 278 278 26
Width: 593
GlyphClass: 2
Flags: MW
HStem: 0 89<190 535 190 549> 306 89<190 497 190 497> 597 89<190 529 190 190> 779 132<279 315>
VStem: 92 98<89 306 395 597> 231 132<827.5 862.5 825.5 864>
AnchorPoint: "Bottom" 297 0 basechar 0
LayerCount: 2
Fore
SplineSet
297 911 m 0
 334 911 363 881 363 844 c 0
 363 807 333 779 297 779 c 0
 261 779 231 809 231 846 c 0
 231 882 260 911 297 911 c 0
529 597 m 1
 190 597 l 1
 190 395 l 1
 497 395 l 1
 497 306 l 1
 190 306 l 1
 190 89 l 1
 535 89 l 1
 549 0 l 1
 92 0 l 1
 92 686 l 1
 542 686 l 1
 529 597 l 1
EndSplineSet
EndChar

StartChar: Egrave
Encoding: 200 200 27
Width: 593
GlyphClass: 2
Flags: MW
HStem: 0 89<190 535 190 549> 306 89<190 497 190 497> 597 89<190 529 190 190> 750 145<181 365 181 295>
VStem: 92 98<89 306 395 597>
LayerCount: 2
Fore
SplineSet
365 750 m 1
 295 750 l 1
 180 892 l 1
 181 895 l 1
 270 895 l 1
 365 750 l 1
529 597 m 1
 190 597 l 1
 190 395 l 1
 497 395 l 1
 497 306 l 1
 190 306 l 1
 190 89 l 1
 535 89 l 1
 549 0 l 1
 92 0 l 1
 92 686 l 1
 542 686 l 1
 529 597 l 1
EndSplineSet
Position2: "'cpsp' Capital Spacing lookup 0 subtable" dx=5 dy=0 dh=10 dv=0
EndChar

StartChar: Emacron
Encoding: 274 274 28
Width: 593
GlyphClass: 2
Flags: MW
HStem: 0 89<190 535 190 549> 306 89<190 497 190 497> 597 89<190 529 190 190> 837 74<138 456 138 456>
VStem: 92 98<89 306 395 597>
AnchorPoint: "Bottom" 297 0 basechar 0
LayerCount: 2
Fore
SplineSet
456 837 m 1
 138 837 l 1
 138 911 l 1
 456 911 l 1
 456 837 l 1
529 597 m 1
 190 597 l 1
 190 395 l 1
 497 395 l 1
 497 306 l 1
 190 306 l 1
 190 89 l 1
 535 89 l 1
 549 0 l 1
 92 0 l 1
 92 686 l 1
 542 686 l 1
 529 597 l 1
EndSplineSet
EndChar

StartChar: Eogonek
Encoding: 280 280 29
Width: 593
GlyphClass: 2
Flags: MW
HStem: -143 47<507.5 529> 0 89<190 470 524 524 524 535 190 549> 306 89<190 497 190 497> 597 89<190 529 190 190>
VStem: 92 98<89 306 395 597> 416 62<-70.5 -54.5>
AnchorPoint: "Bottom" 297 0 basechar 0
LayerCount: 2
Fore
SplineSet
589 -82 m 1
 602 -119 l 1
 575 -135 545 -143 513 -143 c 0
 454 -143 416 -120 416 -69 c 0
 416 -40 446 -16 470 0 c 1
 92 0 l 1
 92 686 l 1
 542 686 l 1
 529 597 l 1
 190 597 l 1
 190 395 l 1
 497 395 l 1
 497 306 l 1
 190 306 l 1
 190 89 l 1
 535 89 l 1
 549 0 l 1
 524 0 l 1
 504 -11 478 -35 478 -58 c 0
 478 -83 493 -96 522 -96 c 0
 537 -96 559 -91 589 -82 c 1
EndSplineSet
EndChar

StartChar: F
Encoding: 70 70 30
Width: 550
GlyphClass: 2
Flags: MW
HStem: 299 89<190 470 190 470> 597 89<190 511 190 190>
VStem: 92 98<0 299 388 597>
LayerCount: 2
Fore
SplineSet
511 597 m 1
 190 597 l 1
 190 388 l 1
 470 388 l 1
 470 299 l 1
 190 299 l 1
 190 0 l 1
 92 0 l 1
 92 686 l 1
 524 686 l 1
 511 597 l 1
EndSplineSet
Position2: "'cpsp' Capital Spacing lookup 0 subtable" dx=5 dy=0 dh=10 dv=0
EndChar

StartChar: G
Encoding: 71 71 31
Width: 677
GlyphClass: 2
Flags: MW
HStem: -10 89<283 386.5> 274 88<317 511 317 607> 607 89<284.5 398>
VStem: 62 98<298 388 226.5 484> 511 96<261 274 274 274>
AnchorPoint: "Bottom" 339 0 basechar 0
LayerCount: 2
Fore
SplineSet
344 696 m 0
 505 696 607 596 607 445 c 1
 509 445 l 1
 509 547 452 607 344 607 c 0
 225 607 160 532 160 388 c 2
 160 298 l 2
 160 155 222 79 344 79 c 0
 459 79 511 133 511 261 c 2
 511 274 l 1
 317 274 l 1
 317 362 l 1
 607 362 l 1
 607 128 l 2
 607 73 609 30 613 0 c 1
 555 0 l 1
 547 25 540 52 535 82 c 1
 492 21 429 -10 344 -10 c 0
 167 -10 62 104 62 298 c 2
 62 388 l 2
 62 580 167 696 344 696 c 0
EndSplineSet
Position2: "'cpsp' Capital Spacing lookup 0 subtable" dx=5 dy=0 dh=10 dv=0
EndChar

StartChar: Gbreve
Encoding: 286 286 32
Width: 677
GlyphClass: 2
Flags: MW
HStem: -10 89<283 386.5> 274 88<317 511 317 607> 607 89<284.5 398> 788 62<307.5 369.5 307.5 386.5>
VStem: 62 98<298 388 226.5 484> 511 96<261 274 274 274>
AnchorPoint: "Bottom" 339 0 basechar 0
LayerCount: 2
Fore
SplineSet
464 912 m 1
 532 912 l 1
 532 850 434 788 339 788 c 0
 242 788 147 851 147 912 c 1
 214 912 l 1
 225 876 276 850 339 850 c 0
 400 850 453 876 464 912 c 1
344 696 m 0
 505 696 607 596 607 445 c 1
 509 445 l 1
 509 547 452 607 344 607 c 0
 225 607 160 532 160 388 c 2
 160 298 l 2
 160 155 222 79 344 79 c 0
 459 79 511 133 511 261 c 2
 511 274 l 1
 317 274 l 1
 317 362 l 1
 607 362 l 1
 607 128 l 2
 607 73 609 30 613 0 c 1
 555 0 l 1
 547 25 540 52 535 82 c 1
 492 21 429 -10 344 -10 c 0
 167 -10 62 104 62 298 c 2
 62 388 l 2
 62 580 167 696 344 696 c 0
EndSplineSet
EndChar

StartChar: Gcommaaccent
Encoding: 290 290 33
Width: 677
GlyphClass: 2
Flags: MW
HStem: -151 111<288 329 288 389> -10 89<283 386.5> 274 88<317 511 317 607> 607 89<284.5 398>
VStem: 62 98<298 388 226.5 484> 288 101<-125 -125 -125 -40 -125 -40> 511 96<261 274 274 274>
AnchorPoint: "Bottom" 339 0 basechar 0
LayerCount: 2
Fore
SplineSet
344 696 m 0
 505 696 607 596 607 445 c 1
 509 445 l 1
 509 547 452 607 344 607 c 0
 225 607 160 532 160 388 c 2
 160 298 l 2
 160 155 222 79 344 79 c 0
 459 79 511 133 511 261 c 2
 511 274 l 1
 317 274 l 1
 317 362 l 1
 607 362 l 1
 607 128 l 2
 607 73 609 30 613 0 c 1
 555 0 l 1
 547 25 540 52 535 82 c 1
 492 21 429 -10 344 -10 c 0
 167 -10 62 104 62 298 c 2
 62 388 l 2
 62 580 167 696 344 696 c 0
389 -125 m 1xfe
 360 -250 l 1
 307 -250 l 1
 329 -151 l 1
 288 -151 l 1
 288 -40 l 1
 389 -40 l 1
 389 -125 l 1xfe
EndSplineSet
EndChar

StartChar: H
Encoding: 72 72 34
Width: 693
GlyphClass: 2
Flags: MW
HStem: 306 89<190 503 190 503> 666 20G<92 190 190 190 503 601 601 601>
VStem: 92 98<0 306 0 395 395 686> 503 98<0 306 306 306 395 686>
LayerCount: 2
Fore
SplineSet
601 0 m 1
 503 0 l 1
 503 306 l 1
 190 306 l 1
 190 0 l 1
 92 0 l 1
 92 686 l 1
 190 686 l 1
 190 395 l 1
 503 395 l 1
 503 686 l 1
 601 686 l 1
 601 0 l 1
EndSplineSet
Position2: "'cpsp' Capital Spacing lookup 0 subtable" dx=5 dy=0 dh=10 dv=0
EndChar

StartChar: I
Encoding: 73 73 35
Width: 364
GlyphClass: 2
Flags: MW
HStem: 0 89<53 133 231 311 53 133> 597 89<53 133 53 311 231 311 231 231>
VStem: 133 98<89 597 89 597>
LayerCount: 2
Fore
SplineSet
311 597 m 1
 231 597 l 1
 231 89 l 1
 311 89 l 1
 311 0 l 1
 53 0 l 1
 53 89 l 1
 133 89 l 1
 133 597 l 1
 53 597 l 1
 53 686 l 1
 311 686 l 1
 311 597 l 1
EndSplineSet
Position2: "'cpsp' Capital Spacing lookup 0 subtable" dx=5 dy=0 dh=10 dv=0
EndChar

StartChar: Iacute
Encoding: 205 205 36
Width: 364
GlyphClass: 2
Flags: MW
HStem: 0 89<53 133 231 311 53 133> 597 89<53 133 53 311 231 311 231 231> 750 145<144 328 144 328>
VStem: 133 98<89 597 89 597>
LayerCount: 2
Fore
SplineSet
329 892 m 1
 213 750 l 1
 144 750 l 1
 238 895 l 1
 328 895 l 1
 329 892 l 1
311 597 m 1
 231 597 l 1
 231 89 l 1
 311 89 l 1
 311 0 l 1
 53 0 l 1
 53 89 l 1
 133 89 l 1
 133 597 l 1
 53 597 l 1
 53 686 l 1
 311 686 l 1
 311 597 l 1
EndSplineSet
Position2: "'cpsp' Capital Spacing lookup 0 subtable" dx=5 dy=0 dh=10 dv=0
EndChar

StartChar: Icircumflex
Encoding: 206 206 37
Width: 364
GlyphClass: 2
Flags: MW
HStem: 0 89<53 133 231 311 53 133> 597 89<53 133 53 311 231 311 231 231> 750 145<8 222 8 222 144 357 144 277>
VStem: 133 98<89 597 89 597>
LayerCount: 2
Fore
SplineSet
357 750 m 1
 277 750 l 1
 183 839 l 1
 88 750 l 1
 8 750 l 1
 144 895 l 1
 222 895 l 1
 357 750 l 1
311 597 m 1
 231 597 l 1
 231 89 l 1
 311 89 l 1
 311 0 l 1
 53 0 l 1
 53 89 l 1
 133 89 l 1
 133 597 l 1
 53 597 l 1
 53 686 l 1
 311 686 l 1
 311 597 l 1
EndSplineSet
Position2: "'cpsp' Capital Spacing lookup 0 subtable" dx=5 dy=0 dh=10 dv=0
EndChar

StartChar: Idieresis
Encoding: 207 207 38
Width: 364
GlyphClass: 2
Flags: MW
HStem: 0 89<53 133 231 311 53 133> 597 89<53 133 53 311 231 311 231 231> 750 98<43 133 43 133 231 322>
VStem: 43 90<750 848> 133 98<89 597 89 597 750 848> 231 91<750 848>
LayerCount: 2
Fore
SplineSet
133 750 m 1xf4
 43 750 l 1
 43 848 l 1
 133 848 l 1
 133 750 l 1xf4
322 750 m 1
 231 750 l 1
 231 848 l 1
 322 848 l 1
 322 750 l 1
311 597 m 1
 231 597 l 1
 231 89 l 1
 311 89 l 1
 311 0 l 1
 53 0 l 1
 53 89 l 1
 133 89 l 1
 133 597 l 1xe8
 53 597 l 1
 53 686 l 1
 311 686 l 1
 311 597 l 1
EndSplineSet
Position2: "'cpsp' Capital Spacing lookup 0 subtable" dx=5 dy=0 dh=10 dv=0
EndChar

StartChar: Idotaccent
Encoding: 304 304 39
Width: 364
GlyphClass: 2
Flags: MW
HStem: 0 89<53 133 231 311 53 133> 597 89<53 133 53 311 231 311 231 231> 779 132<164 200>
VStem: 116 132<827.5 862.5 825.5 864> 133 98<89 597 89 597>
LayerCount: 2
Fore
SplineSet
182 911 m 0xf0
 219 911 248 881 248 844 c 0
 248 807 218 779 182 779 c 0
 146 779 116 809 116 846 c 0
 116 882 145 911 182 911 c 0xf0
311 597 m 1
 231 597 l 1
 231 89 l 1
 311 89 l 1
 311 0 l 1
 53 0 l 1
 53 89 l 1
 133 89 l 1
 133 597 l 1
 53 597 l 1
 53 686 l 1xc8
 311 686 l 1
 311 597 l 1
EndSplineSet
EndChar

StartChar: Igrave
Encoding: 204 204 40
Width: 364
GlyphClass: 2
Flags: MW
HStem: 0 89<53 133 231 311 53 133> 597 89<53 133 53 311 231 311 231 231> 750 145<33 217 33 147>
VStem: 133 98<89 597 89 597>
LayerCount: 2
Fore
SplineSet
217 750 m 1
 147 750 l 1
 32 892 l 1
 33 895 l 1
 122 895 l 1
 217 750 l 1
311 597 m 1
 231 597 l 1
 231 89 l 1
 311 89 l 1
 311 0 l 1
 53 0 l 1
 53 89 l 1
 133 89 l 1
 133 597 l 1
 53 597 l 1
 53 686 l 1
 311 686 l 1
 311 597 l 1
EndSplineSet
Position2: "'cpsp' Capital Spacing lookup 0 subtable" dx=5 dy=0 dh=10 dv=0
EndChar

StartChar: Imacron
Encoding: 298 298 41
Width: 364
GlyphClass: 2
Flags: MW
HStem: 0 89<53 133 231 311 53 133> 597 89<53 133 53 311 231 311 231 231> 837 74<23 341 23 341>
VStem: 133 98<89 597 89 597>
LayerCount: 2
Fore
SplineSet
341 837 m 1
 23 837 l 1
 23 911 l 1
 341 911 l 1
 341 837 l 1
311 597 m 1
 231 597 l 1
 231 89 l 1
 311 89 l 1
 311 0 l 1
 53 0 l 1
 53 89 l 1
 133 89 l 1
 133 597 l 1
 53 597 l 1
 53 686 l 1
 311 686 l 1
 311 597 l 1
EndSplineSet
EndChar

StartChar: Iogonek
Encoding: 302 302 42
Width: 364
GlyphClass: 2
Flags: MW
HStem: -143 47<271.5 293> 0 89<53 133 231 234 53 133 288 288 288 311> 597 89<53 133 53 311 231 231 231 311>
VStem: 133 98<89 597 89 597> 180 62<-70.5 -54.5>
LayerCount: 2
Fore
SplineSet
353 -82 m 1xf0
 366 -119 l 1
 339 -135 309 -143 277 -143 c 0
 218 -143 180 -120 180 -69 c 0
 180 -40 210 -16 234 0 c 1xe8
 53 0 l 1
 53 89 l 1
 133 89 l 1
 133 597 l 1
 53 597 l 1
 53 686 l 1
 311 686 l 1
 311 597 l 1
 231 597 l 1
 231 89 l 1
 311 89 l 1
 311 0 l 1xf0
 288 0 l 1
 268 -11 242 -35 242 -58 c 0
 242 -83 257 -96 286 -96 c 0xe8
 301 -96 323 -91 353 -82 c 1xf0
EndSplineSet
EndChar

StartChar: J
Encoding: 74 74 43
Width: 526
GlyphClass: 2
Flags: MW
HStem: -10 89<203.5 227 227 236> 666 20G<341 439 439 439>
VStem: 29 98<187 208 151 208> 341 98<181 187 187 686>
LayerCount: 2
Fore
SplineSet
439 686 m 1
 439 187 l 2
 439 65 356 -10 236 -10 c 2
 227 -10 l 2
 108 -10 29 57 29 187 c 2
 29 208 l 1
 127 208 l 1
 127 181 l 2
 127 121 172 79 235 79 c 0
 296 79 341 118 341 181 c 2
 341 686 l 1
 439 686 l 1
EndSplineSet
Position2: "'cpsp' Capital Spacing lookup 0 subtable" dx=5 dy=0 dh=10 dv=0
EndChar

StartChar: K
Encoding: 75 75 44
Width: 623
GlyphClass: 2
Flags: MW
HStem: 666 20G<92 190 190 190 488 601 601 601>
VStem: 92 98<0 206 329 686>
AnchorPoint: "Bottom" 312 0 basechar 0
LayerCount: 2
Fore
SplineSet
349 383 m 1
 609 0 l 1
 495 0 l 1
 287 308 l 1
 190 206 l 1
 190 0 l 1
 92 0 l 1
 92 686 l 1
 190 686 l 1
 190 329 l 1
 488 686 l 1
 601 686 l 1
 349 383 l 1
EndSplineSet
Position2: "'cpsp' Capital Spacing lookup 0 subtable" dx=5 dy=0 dh=10 dv=0
EndChar

StartChar: Kcommaaccent
Encoding: 310 310 45
Width: 623
GlyphClass: 2
Flags: MW
HStem: -151 111<261 302 261 362> 666 20G<92 190 190 190 488 601 601 601>
VStem: 92 98<0 206 329 686> 261 101<-125 -125 -125 -40 -125 -40>
AnchorPoint: "Bottom" 312 0 basechar 0
LayerCount: 2
Fore
SplineSet
349 383 m 1
 609 0 l 1
 495 0 l 1
 287 308 l 1
 190 206 l 1
 190 0 l 1
 92 0 l 1
 92 686 l 1
 190 686 l 1
 190 329 l 1
 488 686 l 1
 601 686 l 1
 349 383 l 1
362 -125 m 1
 333 -250 l 1
 280 -250 l 1
 302 -151 l 1
 261 -151 l 1
 261 -40 l 1
 362 -40 l 1
 362 -125 l 1
EndSplineSet
EndChar

StartChar: L
Encoding: 76 76 46
Width: 536
GlyphClass: 2
Flags: MW
HStem: 0 89<190 505 190 519> 666 20G<92 190 190 190>
VStem: 92 98<89 89 89 686>
AnchorPoint: "Bottom" 268 0 basechar 0
LayerCount: 2
Fore
SplineSet
190 89 m 1
 505 89 l 1
 519 0 l 1
 92 0 l 1
 92 686 l 1
 190 686 l 1
 190 89 l 1
EndSplineSet
Position2: "'cpsp' Capital Spacing lookup 0 subtable" dx=5 dy=0 dh=10 dv=0
EndChar

StartChar: Lacute
Encoding: 313 313 47
Width: 536
GlyphClass: 2
Flags: MW
HStem: 0 89<190 505 190 519> 666 20G<92 190 190 190> 750 145<115 299 115 299>
VStem: 92 98<89 89 89 686>
AnchorPoint: "Bottom" 268 0 basechar 0
LayerCount: 2
Fore
SplineSet
300 892 m 1
 184 750 l 1
 115 750 l 1
 209 895 l 1
 299 895 l 1
 300 892 l 1
190 89 m 1
 505 89 l 1
 519 0 l 1
 92 0 l 1
 92 686 l 1
 190 686 l 1
 190 89 l 1
EndSplineSet
EndChar

StartChar: Lcaron
Encoding: 317 317 48
Width: 536
GlyphClass: 2
Flags: MW
HStem: 0 89<190 505 190 519> 575 111<425 466>
VStem: 92 98<89 89 89 686> 425 101<601 601 601 686 601 686>
AnchorPoint: "Bottom" 268 0 basechar 0
LayerCount: 2
Fore
SplineSet
190 89 m 1
 505 89 l 1
 519 0 l 1
 92 0 l 1
 92 686 l 1
 190 686 l 1
 190 89 l 1
526 601 m 1
 491 451 l 1
 439 451 l 1
 466 575 l 1
 425 575 l 1
 425 686 l 1
 526 686 l 1
 526 601 l 1
EndSplineSet
EndChar

StartChar: Lcommaaccent
Encoding: 315 315 49
Width: 536
GlyphClass: 2
Flags: MW
HStem: -151 111<217 258 217 318> 0 89<190 505 190 519> 666 20G<92 190 190 190>
VStem: 92 98<89 89 89 686> 217 101<-125 -125 -125 -40 -125 -40>
AnchorPoint: "Bottom" 268 0 basechar 0
LayerCount: 2
Fore
SplineSet
190 89 m 1
 505 89 l 1
 519 0 l 1
 92 0 l 1
 92 686 l 1
 190 686 l 1
 190 89 l 1
318 -125 m 1xf8
 289 -250 l 1
 236 -250 l 1
 258 -151 l 1
 217 -151 l 1
 217 -40 l 1
 318 -40 l 1
 318 -125 l 1xf8
EndSplineSet
EndChar

StartChar: Lslash
Encoding: 321 321 50
Width: 539
GlyphClass: 2
Flags: MW
HStem: 0 89<193 508 193 522> 497 20G<332 332> 666 20G<95 193 193 193>
VStem: 95 98<89 324 324 324 445 686>
LayerCount: 2
Fore
SplineSet
193 445 m 1
 332 517 l 1
 332 446 l 1
 193 374 l 1
 193 89 l 1
 508 89 l 1
 522 0 l 1
 95 0 l 1
 95 324 l 1
 33 293 l 1
 33 364 l 1
 95 395 l 1
 95 686 l 1
 193 686 l 1
 193 445 l 1
EndSplineSet
Position2: "'cpsp' Capital Spacing lookup 0 subtable" dx=5 dy=0 dh=10 dv=0
EndChar

StartChar: M
Encoding: 77 77 51
Width: 938
GlyphClass: 2
Flags: MW
HStem: 0 146<467 471 467 505 422 471> 571 115<181 186 181 181 742 748 742 742>
VStem: 92 89<0 571 0 686> 748 98<0 571 571 571>
LayerCount: 2
Fore
SplineSet
846 0 m 1
 748 0 l 1
 748 571 l 1
 742 571 l 1
 505 0 l 1
 422 0 l 1
 186 571 l 1
 181 571 l 1
 181 0 l 1
 92 0 l 1
 92 686 l 1
 246 686 l 1
 467 146 l 1
 471 146 l 1
 693 686 l 1
 846 686 l 1
 846 0 l 1
EndSplineSet
Position2: "'cpsp' Capital Spacing lookup 0 subtable" dx=5 dy=0 dh=10 dv=0
EndChar

StartChar: N
Encoding: 78 78 52
Width: 694
GlyphClass: 2
Flags: MW
HStem: 666 20G<92 178 178 178 513 602 602 602>
VStem: 92 89<0 501 0 686> 513 89<191 686>
AnchorPoint: "Bottom" 347 0 basechar 0
LayerCount: 2
Fore
SplineSet
602 0 m 1
 519 0 l 1
 184 502 l 1
 181 501 l 1
 181 0 l 1
 92 0 l 1
 92 686 l 1
 178 686 l 1
 510 190 l 1
 513 191 l 1
 513 686 l 1
 602 686 l 1
 602 0 l 1
EndSplineSet
Position2: "'cpsp' Capital Spacing lookup 0 subtable" dx=5 dy=0 dh=10 dv=0
EndChar

StartChar: Nacute
Encoding: 323 323 53
Width: 694
GlyphClass: 2
Flags: MW
HStem: 666 20G<92 178 178 178 513 602 602 602> 750 145<294 478 294 478>
VStem: 92 89<0 501 0 686> 513 89<191 686>
AnchorPoint: "Bottom" 347 0 basechar 0
LayerCount: 2
Fore
SplineSet
479 892 m 1
 363 750 l 1
 294 750 l 1
 388 895 l 1
 478 895 l 1
 479 892 l 1
602 0 m 1
 519 0 l 1
 184 502 l 1
 181 501 l 1
 181 0 l 1
 92 0 l 1
 92 686 l 1
 178 686 l 1
 510 190 l 1
 513 191 l 1
 513 686 l 1
 602 686 l 1
 602 0 l 1
EndSplineSet
EndChar

StartChar: Ncaron
Encoding: 327 327 54
Width: 694
GlyphClass: 2
Flags: MW
HStem: 666 20G<92 178 178 178 513 602 602 602> 750 145<173 387 173 309>
VStem: 92 89<0 501 0 686> 513 89<191 686>
AnchorPoint: "Bottom" 347 0 basechar 0
LayerCount: 2
Fore
SplineSet
387 750 m 1
 309 750 l 1
 173 895 l 1
 253 895 l 1
 348 806 l 1
 442 895 l 1
 522 895 l 1
 387 750 l 1
602 0 m 1
 519 0 l 1
 184 502 l 1
 181 501 l 1
 181 0 l 1
 92 0 l 1
 92 686 l 1
 178 686 l 1
 510 190 l 1
 513 191 l 1
 513 686 l 1
 602 686 l 1
 602 0 l 1
EndSplineSet
EndChar

StartChar: Ncommaaccent
Encoding: 325 325 55
Width: 694
GlyphClass: 2
Flags: MW
HStem: -151 111<296 337 296 397> 666 20G<92 178 178 178 513 602 602 602>
VStem: 92 89<0 501 0 686> 296 101<-125 -125 -125 -40 -125 -40> 513 89<191 686>
AnchorPoint: "Bottom" 347 0 basechar 0
LayerCount: 2
Fore
SplineSet
602 0 m 1
 519 0 l 1
 184 502 l 1
 181 501 l 1
 181 0 l 1
 92 0 l 1
 92 686 l 1
 178 686 l 1
 510 190 l 1
 513 191 l 1
 513 686 l 1
 602 686 l 1
 602 0 l 1
397 -125 m 1
 368 -250 l 1
 315 -250 l 1
 337 -151 l 1
 296 -151 l 1
 296 -40 l 1
 397 -40 l 1
 397 -125 l 1
EndSplineSet
EndChar

StartChar: Ntilde
Encoding: 209 209 56
Width: 694
GlyphClass: 2
Flags: MW
HStem: 666 20G<92 178 178 178 513 602 602 602> 750 69<427.5 450.5 427.5 462.5> 784 70<245 274.5>
VStem: 92 89<0 501 0 686> 513 89<191 686>
LayerCount: 2
Fore
SplineSet
491 854 m 1xb8
 541 854 l 1xb8
 541 795 496 750 429 750 c 0xd8
 409 750 385 753 359 761 c 0
 304 777 289 784 260 784 c 0
 230 784 212 773 205 750 c 1
 155 750 l 1
 155 802 194 854 266 854 c 0xb8
 301 854 328 845 356 836 c 0
 393 825 419 819 436 819 c 0xd8
 465 819 484 831 491 854 c 1xb8
602 0 m 1
 519 0 l 1
 184 502 l 1
 181 501 l 1
 181 0 l 1
 92 0 l 1
 92 686 l 1
 178 686 l 1
 510 190 l 1
 513 191 l 1
 513 686 l 1
 602 686 l 1
 602 0 l 1
EndSplineSet
Position2: "'cpsp' Capital Spacing lookup 0 subtable" dx=5 dy=0 dh=10 dv=0
EndChar

StartChar: O
Encoding: 79 79 57
Width: 690
GlyphClass: 2
Flags: MW
HStem: -10 89<284 402 284 430> 607 89<287 406>
VStem: 61 98<298 388 227 484.5> 531 98<298 388 201.5 459>
LayerCount: 2
Fore
SplineSet
345 696 m 0
 515 696 629 581 629 388 c 2
 629 298 l 2
 629 105 515 -10 345 -10 c 0
 175 -10 61 105 61 298 c 2
 61 388 l 2
 61 581 175 696 345 696 c 0
345 607 m 0
 229 607 159 533 159 388 c 2
 159 298 l 2
 159 156 223 79 345 79 c 0
 459 79 531 151 531 298 c 2
 531 388 l 2
 531 530 467 607 345 607 c 0
EndSplineSet
Substitution2: "Single Substitution lookup 5 subtable" ordmasculine
Substitution2: "'aalt' Access All Alternates lookup 0 subtable" ordmasculine
Position2: "'cpsp' Capital Spacing lookup 0 subtable" dx=5 dy=0 dh=10 dv=0
EndChar

StartChar: Oacute
Encoding: 211 211 58
Width: 690
GlyphClass: 2
Flags: MW
HStem: -10 89<284 402 284 430> 607 89<287 406> 750 145<306 490 306 490>
VStem: 61 98<298 388 227 484.5> 531 98<298 388 201.5 459>
LayerCount: 2
Fore
SplineSet
491 892 m 1
 375 750 l 1
 306 750 l 1
 400 895 l 1
 490 895 l 1
 491 892 l 1
345 696 m 0
 515 696 629 581 629 388 c 2
 629 298 l 2
 629 105 515 -10 345 -10 c 0
 175 -10 61 105 61 298 c 2
 61 388 l 2
 61 581 175 696 345 696 c 0
345 607 m 0
 229 607 159 533 159 388 c 2
 159 298 l 2
 159 156 223 79 345 79 c 0
 459 79 531 151 531 298 c 2
 531 388 l 2
 531 530 467 607 345 607 c 0
EndSplineSet
Position2: "'cpsp' Capital Spacing lookup 0 subtable" dx=5 dy=0 dh=10 dv=0
EndChar

StartChar: Ocircumflex
Encoding: 212 212 59
Width: 690
GlyphClass: 2
Flags: MW
HStem: -10 89<284 402 284 430> 607 89<287 406> 750 145<168 382 168 382 304 517 304 437>
VStem: 61 98<298 388 227 484.5> 531 98<298 388 201.5 459>
LayerCount: 2
Fore
SplineSet
517 750 m 1
 437 750 l 1
 343 839 l 1
 248 750 l 1
 168 750 l 1
 304 895 l 1
 382 895 l 1
 517 750 l 1
345 696 m 0
 515 696 629 581 629 388 c 2
 629 298 l 2
 629 105 515 -10 345 -10 c 0
 175 -10 61 105 61 298 c 2
 61 388 l 2
 61 581 175 696 345 696 c 0
345 607 m 0
 229 607 159 533 159 388 c 2
 159 298 l 2
 159 156 223 79 345 79 c 0
 459 79 531 151 531 298 c 2
 531 388 l 2
 531 530 467 607 345 607 c 0
EndSplineSet
Position2: "'cpsp' Capital Spacing lookup 0 subtable" dx=5 dy=0 dh=10 dv=0
EndChar

StartChar: Odieresis
Encoding: 214 214 60
Width: 690
GlyphClass: 2
Flags: MW
HStem: -10 89<284 402 284 430> 607 89<287 406> 750 98<207 297 207 297 395 486>
VStem: 61 98<298 388 227 484.5> 207 90<750 848> 395 91<750 848> 531 98<298 388 201.5 459>
LayerCount: 2
Fore
SplineSet
297 750 m 1
 207 750 l 1
 207 848 l 1
 297 848 l 1
 297 750 l 1
486 750 m 1
 395 750 l 1
 395 848 l 1
 486 848 l 1
 486 750 l 1
345 696 m 0
 515 696 629 581 629 388 c 2
 629 298 l 2
 629 105 515 -10 345 -10 c 0
 175 -10 61 105 61 298 c 2
 61 388 l 2
 61 581 175 696 345 696 c 0
345 607 m 0
 229 607 159 533 159 388 c 2
 159 298 l 2
 159 156 223 79 345 79 c 0
 459 79 531 151 531 298 c 2
 531 388 l 2
 531 530 467 607 345 607 c 0
EndSplineSet
Position2: "'cpsp' Capital Spacing lookup 0 subtable" dx=5 dy=0 dh=10 dv=0
EndChar

StartChar: Ograve
Encoding: 210 210 61
Width: 690
GlyphClass: 2
Flags: MW
HStem: -10 89<284 402 284 430> 607 89<287 406> 750 145<199 383 199 313>
VStem: 61 98<298 388 227 484.5> 531 98<298 388 201.5 459>
LayerCount: 2
Fore
SplineSet
383 750 m 1
 313 750 l 1
 198 892 l 1
 199 895 l 1
 288 895 l 1
 383 750 l 1
345 696 m 0
 515 696 629 581 629 388 c 2
 629 298 l 2
 629 105 515 -10 345 -10 c 0
 175 -10 61 105 61 298 c 2
 61 388 l 2
 61 581 175 696 345 696 c 0
345 607 m 0
 229 607 159 533 159 388 c 2
 159 298 l 2
 159 156 223 79 345 79 c 0
 459 79 531 151 531 298 c 2
 531 388 l 2
 531 530 467 607 345 607 c 0
EndSplineSet
Position2: "'cpsp' Capital Spacing lookup 0 subtable" dx=5 dy=0 dh=10 dv=0
EndChar

StartChar: Ohungarumlaut
Encoding: 336 336 62
Width: 690
GlyphClass: 2
Flags: MW
HStem: -10 89<284 402 284 430> 607 89<287 406> 750 145<215 399 215 399 370 370 370 399 310 440>
VStem: 61 98<298 388 227 484.5> 531 98<298 388 201.5 459>
LayerCount: 2
Fore
SplineSet
400 892 m 1
 285 750 l 1
 215 750 l 1
 310 895 l 1
 399 895 l 1
 400 892 l 1
555 892 m 1
 440 750 l 1
 370 750 l 1
 464 895 l 1
 554 895 l 1
 555 892 l 1
345 696 m 0
 515 696 629 581 629 388 c 2
 629 298 l 2
 629 105 515 -10 345 -10 c 0
 175 -10 61 105 61 298 c 2
 61 388 l 2
 61 581 175 696 345 696 c 0
345 607 m 0
 229 607 159 533 159 388 c 2
 159 298 l 2
 159 156 223 79 345 79 c 0
 459 79 531 151 531 298 c 2
 531 388 l 2
 531 530 467 607 345 607 c 0
EndSplineSet
EndChar

StartChar: Omacron
Encoding: 332 332 63
Width: 690
GlyphClass: 2
Flags: MW
HStem: -10 89<284 402 284 430> 607 89<287 406> 837 74<186 504 186 504>
VStem: 61 98<298 388 227 484.5> 531 98<298 388 201.5 459>
LayerCount: 2
Fore
SplineSet
504 837 m 1
 186 837 l 1
 186 911 l 1
 504 911 l 1
 504 837 l 1
345 696 m 0
 515 696 629 581 629 388 c 2
 629 298 l 2
 629 105 515 -10 345 -10 c 0
 175 -10 61 105 61 298 c 2
 61 388 l 2
 61 581 175 696 345 696 c 0
345 607 m 0
 229 607 159 533 159 388 c 2
 159 298 l 2
 159 156 223 79 345 79 c 0
 459 79 531 151 531 298 c 2
 531 388 l 2
 531 530 467 607 345 607 c 0
EndSplineSet
EndChar

StartChar: Oslash
Encoding: 216 216 64
Width: 690
GlyphClass: 2
Flags: MW
HStem: -10 89<315.5 402.5 315.5 430> 607 89<286.5 374.5>
VStem: 61 98<298 388 265.5 484.5> 531 98<298 388 201.5 418.5>
LayerCount: 2
Fore
SplineSet
624 754 m 1
 544 621 l 1
 601 567 629 489 629 388 c 2
 629 298 l 2
 629 105 515 -10 345 -10 c 0
 286 -10 235 3 190 30 c 1
 134 -65 l 1
 70 -65 l 1
 147 63 l 1
 90 118 61 196 61 298 c 2
 61 388 l 2
 61 581 175 696 345 696 c 0
 405 696 457 682 501 655 c 1
 560 754 l 1
 624 754 l 1
357 607 m 0
 216 607 159 527 159 388 c 2
 159 298 l 2
 159 233 172 182 197 147 c 1
 454 577 l 1
 424 597 392 607 357 607 c 0
494 537 m 1
 237 108 l 1
 266 89 298 79 333 79 c 0
 472 79 531 158 531 298 c 2
 531 388 l 2
 531 449 519 499 494 537 c 1
EndSplineSet
Position2: "'cpsp' Capital Spacing lookup 0 subtable" dx=5 dy=0 dh=10 dv=0
EndChar

StartChar: Otilde
Encoding: 213 213 65
Width: 690
GlyphClass: 2
Flags: MW
HStem: -10 89<284 402 284 430> 607 89<287 406> 750 69<424.5 447.5 424.5 459> 784 70<242 271.5>
VStem: 61 98<298 388 227 484.5> 531 98<298 388 201.5 459>
LayerCount: 2
Fore
SplineSet
488 854 m 1xec
 538 854 l 1
 538 792 492 750 426 750 c 0xec
 406 750 382 753 356 761 c 0
 301 777 286 784 257 784 c 0xdc
 227 784 209 773 202 750 c 1
 152 750 l 1xec
 152 804 192 854 263 854 c 0xdc
 298 854 324 844 352 836 c 0
 388 824 416 819 433 819 c 0
 462 819 481 831 488 854 c 1xec
345 696 m 0
 515 696 629 581 629 388 c 2
 629 298 l 2
 629 105 515 -10 345 -10 c 0
 175 -10 61 105 61 298 c 2
 61 388 l 2
 61 581 175 696 345 696 c 0
345 607 m 0
 229 607 159 533 159 388 c 2
 159 298 l 2
 159 156 223 79 345 79 c 0
 459 79 531 151 531 298 c 2
 531 388 l 2
 531 530 467 607 345 607 c 0
EndSplineSet
Position2: "'cpsp' Capital Spacing lookup 0 subtable" dx=5 dy=0 dh=10 dv=0
EndChar

StartChar: OE
Encoding: 338 338 66
Width: 1032
GlyphClass: 2
Flags: MW
HStem: -10 89<284 383.5> 0 89<629 974 629 988> 306 89<629 936 629 936> 597 89<629 968 629 629> 607 89<287 379.5 258 406>
VStem: 61 98<298 388 227 484.5> 531 98<0 306 58 306 298 306 89 388 395 459>
LayerCount: 2
Fore
SplineSet
340 696 m 0xae
 419 696 482 673 531 628 c 1x6e
 531 686 l 1
 981 686 l 1
 968 597 l 1
 629 597 l 1
 629 395 l 1
 936 395 l 1
 936 306 l 1
 629 306 l 1
 629 89 l 1
 974 89 l 1
 988 0 l 1
 531 0 l 1x76
 531 58 l 1
 484 13 422 -10 345 -10 c 0
 175 -10 61 105 61 298 c 2
 61 388 l 2
 61 581 176 696 340 696 c 0xae
345 607 m 0
 229 607 159 533 159 388 c 2
 159 298 l 2
 159 156 223 79 345 79 c 0
 459 79 531 151 531 298 c 2
 531 388 l 2
 531 530 467 607 345 607 c 0
EndSplineSet
Position2: "'cpsp' Capital Spacing lookup 0 subtable" dx=5 dy=0 dh=10 dv=0
EndChar

StartChar: P
Encoding: 80 80 67
Width: 624
GlyphClass: 2
Flags: MW
HStem: 286 89<190 379 379 388 190 379> 597 89<190 190 190 379>
VStem: 92 98<0 286 0 375 375 597> 495 98<454.5 517.5>
LayerCount: 2
Fore
SplineSet
92 686 m 1
 388 686 l 2
 506 686 593 602 593 486 c 0
 593 370 506 286 388 286 c 2
 190 286 l 1
 190 0 l 1
 92 0 l 1
 92 686 l 1
190 597 m 1
 190 375 l 1
 379 375 l 2
 440 375 495 423 495 486 c 0
 495 549 441 597 379 597 c 2
 190 597 l 1
EndSplineSet
Position2: "'cpsp' Capital Spacing lookup 0 subtable" dx=5 dy=0 dh=10 dv=0
EndChar

StartChar: Thorn
Encoding: 222 222 68
Width: 633
GlyphClass: 2
Flags: MW
HStem: 162 89<190 379 379 388 190 379> 473 89<190 388 190 379> 666 20G<92 190 190 190>
VStem: 92 98<0 162 0 251 251 473 562 686> 495 98<330.5 393.5>
LayerCount: 2
Fore
SplineSet
190 562 m 1
 388 562 l 2
 506 562 593 478 593 362 c 0
 593 246 506 162 388 162 c 2
 190 162 l 1
 190 0 l 1
 92 0 l 1
 92 686 l 1
 190 686 l 1
 190 562 l 1
190 473 m 1
 190 251 l 1
 379 251 l 2
 440 251 495 299 495 362 c 0
 495 425 441 473 379 473 c 2
 190 473 l 1
EndSplineSet
Position2: "'cpsp' Capital Spacing lookup 0 subtable" dx=5 dy=0 dh=10 dv=0
EndChar

StartChar: Q
Encoding: 81 81 69
Width: 690
GlyphClass: 2
Flags: MW
HStem: -145 75<479 516 479 519> -25 20G 607 89<287 406>
VStem: 61 98<298 388 227 484.5> 531 98<298 388 214.5 459>
LayerCount: 2
Fore
SplineSet
345 696 m 0
 515 696 629 581 629 388 c 2
 629 298 l 2
 629 131 545 18 402 -5 c 1
 415 -54 457 -70 501 -70 c 0
 531 -70 566 -62 606 -46 c 2
 618 -42 l 1
 618 -112 l 1
 579 -134 539 -145 499 -145 c 0
 355 -145 318 -77 305 -8 c 1
 151 11 61 123 61 298 c 2
 61 388 l 2
 61 581 175 696 345 696 c 0
345 607 m 0
 229 607 159 533 159 388 c 2
 159 298 l 2
 159 156 223 79 345 79 c 0
 459 79 531 151 531 298 c 2
 531 388 l 2
 531 530 467 607 345 607 c 0
EndSplineSet
Position2: "'cpsp' Capital Spacing lookup 0 subtable" dx=5 dy=0 dh=10 dv=0
EndChar

StartChar: R
Encoding: 82 82 70
Width: 670
GlyphClass: 2
Flags: MW
HStem: 302 89<190 364 190 385> 597 89<190 190 190 384 384 385>
VStem: 92 98<0 302 0 391 391 597> 481 98<113 186.5> 494 98<492 496 496 524.5>
AnchorPoint: "Bottom" 335 0 basechar 0
LayerCount: 2
Fore
SplineSet
92 686 m 1xf0
 384 686 l 2
 501 686 592 628 592 525 c 0xe8
 592 433 535 367 469 354 c 1
 469 349 l 1
 530 325 579 261 579 170 c 0
 579 56 598 42 630 31 c 1
 630 3 l 1
 615 -3 599 -6 583 -6 c 0
 528 -6 481 16 481 130 c 0
 481 243 427 302 364 302 c 2
 190 302 l 1
 190 0 l 1
 92 0 l 1
 92 686 l 1xf0
190 597 m 1
 190 391 l 1
 385 391 l 2
 441 391 494 433 494 492 c 2
 494 496 l 2
 494 553 452 597 385 597 c 2
 190 597 l 1
EndSplineSet
Position2: "'cpsp' Capital Spacing lookup 0 subtable" dx=5 dy=0 dh=10 dv=0
EndChar

StartChar: Racute
Encoding: 340 340 71
Width: 670
GlyphClass: 2
Flags: MW
HStem: 302 89<190 364 190 385> 597 89<190 190 190 384 384 385> 750 145<282 466 282 466>
VStem: 92 98<0 302 0 391 391 597> 481 98<113 186.5> 494 98<492 496 496 524.5>
AnchorPoint: "Bottom" 335 0 basechar 0
LayerCount: 2
Fore
SplineSet
467 892 m 1xf8
 351 750 l 1
 282 750 l 1
 376 895 l 1
 466 895 l 1
 467 892 l 1xf8
92 686 m 1
 384 686 l 2
 501 686 592 628 592 525 c 0xf4
 592 433 535 367 469 354 c 1
 469 349 l 1
 530 325 579 261 579 170 c 0
 579 56 598 42 630 31 c 1
 630 3 l 1
 615 -3 599 -6 583 -6 c 0
 528 -6 481 16 481 130 c 0
 481 243 427 302 364 302 c 2
 190 302 l 1
 190 0 l 1
 92 0 l 1
 92 686 l 1
190 597 m 1
 190 391 l 1
 385 391 l 2
 441 391 494 433 494 492 c 2
 494 496 l 2
 494 553 452 597 385 597 c 2
 190 597 l 1
EndSplineSet
EndChar

StartChar: Rcaron
Encoding: 344 344 72
Width: 670
GlyphClass: 2
Flags: MW
HStem: 302 89<190 364 190 385> 597 89<190 190 190 384 384 385> 750 145<161 375 161 297>
VStem: 92 98<0 302 0 391 391 597> 481 98<113 186.5> 494 98<492 496 496 524.5>
AnchorPoint: "Bottom" 335 0 basechar 0
LayerCount: 2
Fore
SplineSet
375 750 m 1xf8
 297 750 l 1
 161 895 l 1
 241 895 l 1
 336 806 l 1
 430 895 l 1
 510 895 l 1
 375 750 l 1xf8
92 686 m 1
 384 686 l 2
 501 686 592 628 592 525 c 0xf4
 592 433 535 367 469 354 c 1
 469 349 l 1
 530 325 579 261 579 170 c 0
 579 56 598 42 630 31 c 1
 630 3 l 1
 615 -3 599 -6 583 -6 c 0
 528 -6 481 16 481 130 c 0
 481 243 427 302 364 302 c 2
 190 302 l 1
 190 0 l 1
 92 0 l 1
 92 686 l 1
190 597 m 1
 190 391 l 1
 385 391 l 2
 441 391 494 433 494 492 c 2
 494 496 l 2
 494 553 452 597 385 597 c 2
 190 597 l 1
EndSplineSet
EndChar

StartChar: Rcommaaccent
Encoding: 342 342 73
Width: 670
GlyphClass: 2
Flags: MW
HStem: -151 111<284 325 284 385> 302 89<190 364 190 385> 597 89<190 190 190 384 384 385>
VStem: 92 98<0 302 0 391 391 597> 284 101<-125 -125 -125 -40 -125 -40> 481 98<113 186.5> 494 98<492 496 496 524.5>
AnchorPoint: "Bottom" 335 0 basechar 0
LayerCount: 2
Fore
SplineSet
92 686 m 1xfc
 384 686 l 2
 501 686 592 628 592 525 c 0xfa
 592 433 535 367 469 354 c 1
 469 349 l 1
 530 325 579 261 579 170 c 0
 579 56 598 42 630 31 c 1
 630 3 l 1
 615 -3 599 -6 583 -6 c 0
 528 -6 481 16 481 130 c 0
 481 243 427 302 364 302 c 2
 190 302 l 1
 190 0 l 1
 92 0 l 1
 92 686 l 1xfc
190 597 m 1
 190 391 l 1
 385 391 l 2
 441 391 494 433 494 492 c 2
 494 496 l 2
 494 553 452 597 385 597 c 2
 190 597 l 1
385 -125 m 1
 356 -250 l 1
 303 -250 l 1
 325 -151 l 1
 284 -151 l 1
 284 -40 l 1
 385 -40 l 1
 385 -125 l 1
EndSplineSet
EndChar

StartChar: S
Encoding: 83 83 74
Width: 627
GlyphClass: 2
Flags: MW
HStem: -10 89<264 364 264 391.5> 607 89<269.5 357.5>
VStem: 52 98<154.5 194 154.5 195> 68 98<437.5 545.5 437.5 570.5> 458 98<492 504 492 507 492 539.5> 476 98<150 270>
AnchorPoint: "Bottom" 314 0 basechar 0
LayerCount: 2
Fore
SplineSet
314 696 m 0xd8
 462 696 556 628 556 504 c 2
 556 492 l 1
 458 492 l 1
 458 507 l 2xd8
 458 572 399 607 316 607 c 0
 223 607 166 575 166 516 c 0xd4
 166 359 574 449 574 205 c 0
 574 50 470 -10 313 -10 c 0
 151 -10 52 59 52 195 c 1
 53 215 l 1
 151 215 l 1
 150 194 l 2xe4
 150 115 214 79 314 79 c 0
 414 79 476 118 476 182 c 0xd4
 476 358 68 257 68 501 c 0
 68 640 174 696 314 696 c 0xd8
EndSplineSet
Position2: "'cpsp' Capital Spacing lookup 0 subtable" dx=5 dy=0 dh=10 dv=0
EndChar

StartChar: Sacute
Encoding: 346 346 75
Width: 627
GlyphClass: 2
Flags: MW
HStem: -10 89<264 364 264 391.5> 607 89<269.5 357.5> 750 145<261 445 261 445>
VStem: 52 98<154.5 194 154.5 195> 68 98<437.5 545.5 437.5 570.5> 458 98<492 504 492 507 492 539.5> 476 98<150 270>
AnchorPoint: "Bottom" 314 0 basechar 0
LayerCount: 2
Fore
SplineSet
446 892 m 1xea
 330 750 l 1
 261 750 l 1
 355 895 l 1
 445 895 l 1
 446 892 l 1xea
314 696 m 0xec
 462 696 556 628 556 504 c 2
 556 492 l 1
 458 492 l 1
 458 507 l 2xec
 458 572 399 607 316 607 c 0
 223 607 166 575 166 516 c 0xea
 166 359 574 449 574 205 c 0
 574 50 470 -10 313 -10 c 0
 151 -10 52 59 52 195 c 1
 53 215 l 1
 151 215 l 1
 150 194 l 2xf2
 150 115 214 79 314 79 c 0
 414 79 476 118 476 182 c 0xea
 476 358 68 257 68 501 c 0
 68 640 174 696 314 696 c 0xec
EndSplineSet
EndChar

StartChar: Scaron
Encoding: 352 352 76
Width: 627
GlyphClass: 2
Flags: MW
HStem: -10 89<264 364 264 391.5> 607 89<269.5 357.5> 750 145<141 355 141 277>
VStem: 52 98<154.5 194 154.5 195> 68 98<437.5 545.5 437.5 570.5> 458 98<492 504 492 507 492 539.5> 476 98<150 270>
LayerCount: 2
Fore
SplineSet
355 750 m 1xea
 277 750 l 1
 141 895 l 1
 221 895 l 1
 316 806 l 1
 410 895 l 1
 490 895 l 1
 355 750 l 1xea
314 696 m 0xec
 462 696 556 628 556 504 c 2
 556 492 l 1
 458 492 l 1
 458 507 l 2xec
 458 572 399 607 316 607 c 0
 223 607 166 575 166 516 c 0xea
 166 359 574 449 574 205 c 0
 574 50 470 -10 313 -10 c 0
 151 -10 52 59 52 195 c 1
 53 215 l 1
 151 215 l 1
 150 194 l 2xf2
 150 115 214 79 314 79 c 0
 414 79 476 118 476 182 c 0xea
 476 358 68 257 68 501 c 0
 68 640 174 696 314 696 c 0xec
EndSplineSet
Position2: "'cpsp' Capital Spacing lookup 0 subtable" dx=5 dy=0 dh=10 dv=0
EndChar

StartChar: Scedilla
Encoding: 350 350 77
Width: 627
GlyphClass: 2
Flags: MW
HStem: -197 51<292.5 313 280 340> -60 43<284 305 284 308> -10 89<264 364 264 391.5> 607 89<269.5 357.5>
VStem: 52 98<154.5 194 154.5 195> 68 98<437.5 545.5 437.5 570.5> 357 62<-116 -87.5> 458 98<492 504 492 507 492 539.5> 476 98<150 270>
AnchorPoint: "Bottom" 314 0 basechar 0
LayerCount: 2
Fore
SplineSet
314 696 m 0xb7
 462 696 556 628 556 504 c 2
 556 492 l 1
 458 492 l 1
 458 507 l 2xb7
 458 572 399 607 316 607 c 0
 223 607 166 575 166 516 c 0xb680
 166 359 574 449 574 205 c 0
 574 50 470 -10 313 -10 c 0
 151 -10 52 59 52 195 c 1
 53 215 l 1
 151 215 l 1
 150 194 l 2xba80
 150 115 214 79 314 79 c 0
 414 79 476 118 476 182 c 0xb680
 476 358 68 257 68 501 c 0
 68 640 174 696 314 696 c 0xb7
284 -17 m 1xd680
 308 -17 l 2
 382 -17 419 -47 419 -106 c 0
 419 -164 366 -197 314 -197 c 0
 271 -197 236 -190 209 -175 c 1
 218 -126 l 1
 245 -139 269 -146 291 -146 c 0
 335 -146 357 -131 357 -101 c 0
 357 -74 333 -60 305 -60 c 2
 284 -60 l 1
 284 -17 l 1xd680
EndSplineSet
EndChar

StartChar: Scommaaccent
Encoding: 536 536 78
Width: 627
GlyphClass: 2
Flags: MW
HStem: -151 111<263 304 263 364> -10 89<264 364 264 391.5> 607 89<269.5 357.5>
VStem: 52 98<154.5 194 154.5 195> 68 98<437.5 545.5 437.5 570.5> 263 101<-125 -125 -125 -40 -125 -40> 458 98<492 504 492 507 492 539.5> 476 98<150 270>
AnchorPoint: "Bottom" 314 0 basechar 0
LayerCount: 2
Fore
SplineSet
314 696 m 0x6e
 462 696 556 628 556 504 c 2
 556 492 l 1
 458 492 l 1
 458 507 l 2x6e
 458 572 399 607 316 607 c 0
 223 607 166 575 166 516 c 0x6d
 166 359 574 449 574 205 c 0
 574 50 470 -10 313 -10 c 0
 151 -10 52 59 52 195 c 1
 53 215 l 1
 151 215 l 1
 150 194 l 2x75
 150 115 214 79 314 79 c 0
 414 79 476 118 476 182 c 0x6d
 476 358 68 257 68 501 c 0
 68 640 174 696 314 696 c 0x6e
364 -125 m 1xed
 335 -250 l 1
 282 -250 l 1
 304 -151 l 1
 263 -151 l 1
 263 -40 l 1
 364 -40 l 1
 364 -125 l 1xed
EndSplineSet
EndChar

StartChar: T
Encoding: 84 84 79
Width: 578
GlyphClass: 2
Flags: MW
HStem: 597 89<25 240 25 553 338 553 338 338>
VStem: 240 98<0 597 0 597>
AnchorPoint: "Bottom" 289 0 basechar 0
LayerCount: 2
Fore
SplineSet
553 597 m 1
 338 597 l 1
 338 0 l 1
 240 0 l 1
 240 597 l 1
 25 597 l 1
 25 686 l 1
 553 686 l 1
 553 597 l 1
EndSplineSet
Position2: "'cpsp' Capital Spacing lookup 0 subtable" dx=5 dy=0 dh=10 dv=0
EndChar

StartChar: Tcaron
Encoding: 356 356 80
Width: 578
GlyphClass: 2
Flags: MW
HStem: 597 89<25 240 25 553 338 553 338 338> 750 145<115 329 115 251>
VStem: 240 98<0 597 0 597>
AnchorPoint: "Bottom" 289 0 basechar 0
LayerCount: 2
Fore
SplineSet
329 750 m 1
 251 750 l 1
 115 895 l 1
 195 895 l 1
 290 806 l 1
 384 895 l 1
 464 895 l 1
 329 750 l 1
553 597 m 1
 338 597 l 1
 338 0 l 1
 240 0 l 1
 240 597 l 1
 25 597 l 1
 25 686 l 1
 553 686 l 1
 553 597 l 1
EndSplineSet
EndChar

StartChar: Tcedilla
Encoding: 354 354 81
Width: 578
GlyphClass: 2
Flags: MW
HStem: -197 51<267.5 288 255 315> -60 43<259 280 259 283> 597 89<25 240 25 553 338 553 338 338>
VStem: 240 98<0 597 0 597> 332 62<-116 -87.5>
AnchorPoint: "Bottom" 289 0 basechar 0
LayerCount: 2
Fore
SplineSet
553 597 m 1xf0
 338 597 l 1
 338 0 l 1
 240 0 l 1
 240 597 l 1
 25 597 l 1
 25 686 l 1
 553 686 l 1
 553 597 l 1xf0
259 -17 m 1
 283 -17 l 2
 357 -17 394 -47 394 -106 c 0
 394 -164 341 -197 289 -197 c 0
 246 -197 211 -190 184 -175 c 1
 193 -126 l 1
 220 -139 244 -146 266 -146 c 0
 310 -146 332 -131 332 -101 c 0
 332 -74 308 -60 280 -60 c 2xe8
 259 -60 l 1
 259 -17 l 1
EndSplineSet
EndChar

StartChar: Tcommaaccent
Encoding: 538 538 82
Width: 578
GlyphClass: 2
Flags: MW
HStem: -151 111<238 279 238 339> 597 89<25 240 25 553 338 553 338 338>
VStem: 240 98<0 597 0 597>
AnchorPoint: "Bottom" 289 0 basechar 0
LayerCount: 2
Fore
SplineSet
553 597 m 1
 338 597 l 1
 338 0 l 1
 240 0 l 1
 240 597 l 1
 25 597 l 1
 25 686 l 1
 553 686 l 1
 553 597 l 1
339 -125 m 1
 310 -250 l 1
 257 -250 l 1
 279 -151 l 1
 238 -151 l 1
 238 -40 l 1
 339 -40 l 1
 339 -125 l 1
EndSplineSet
EndChar

StartChar: U
Encoding: 85 85 83
Width: 680
GlyphClass: 2
Flags: MW
HStem: -10 89<296.5 333 333 346> 666 20G<86 184 184 184 496 594 594 594>
VStem: 86 98<219 221 221 686> 496 98<221 686>
LayerCount: 2
Fore
SplineSet
594 686 m 1
 594 219 l 2
 594 81 496 -10 346 -10 c 2
 333 -10 l 2
 185 -10 86 79 86 219 c 2
 86 686 l 1
 184 686 l 1
 184 221 l 2
 184 135 251 79 342 79 c 0
 437 79 496 137 496 221 c 2
 496 686 l 1
 594 686 l 1
EndSplineSet
Position2: "'cpsp' Capital Spacing lookup 0 subtable" dx=5 dy=0 dh=10 dv=0
EndChar

StartChar: Uacute
Encoding: 218 218 84
Width: 680
GlyphClass: 2
Flags: MW
HStem: -10 89<296.5 333 333 346> 666 20G<86 184 184 184 496 594 594 594> 750 145<304 488 304 488>
VStem: 86 98<219 221 221 686> 496 98<221 686>
LayerCount: 2
Fore
SplineSet
489 892 m 1
 373 750 l 1
 304 750 l 1
 398 895 l 1
 488 895 l 1
 489 892 l 1
594 686 m 1
 594 219 l 2
 594 81 496 -10 346 -10 c 2
 333 -10 l 2
 185 -10 86 79 86 219 c 2
 86 686 l 1
 184 686 l 1
 184 221 l 2
 184 135 251 79 342 79 c 0
 437 79 496 137 496 221 c 2
 496 686 l 1
 594 686 l 1
EndSplineSet
Position2: "'cpsp' Capital Spacing lookup 0 subtable" dx=5 dy=0 dh=10 dv=0
EndChar

StartChar: Ucircumflex
Encoding: 219 219 85
Width: 680
GlyphClass: 2
Flags: MW
HStem: -10 89<296.5 333 333 346> 666 20G<86 184 184 184 496 594 594 594> 750 145<165 379 165 379 301 514 301 434>
VStem: 86 98<219 221 221 686> 496 98<221 686>
LayerCount: 2
Fore
SplineSet
514 750 m 1
 434 750 l 1
 340 839 l 1
 245 750 l 1
 165 750 l 1
 301 895 l 1
 379 895 l 1
 514 750 l 1
594 686 m 1
 594 219 l 2
 594 81 496 -10 346 -10 c 2
 333 -10 l 2
 185 -10 86 79 86 219 c 2
 86 686 l 1
 184 686 l 1
 184 221 l 2
 184 135 251 79 342 79 c 0
 437 79 496 137 496 221 c 2
 496 686 l 1
 594 686 l 1
EndSplineSet
Position2: "'cpsp' Capital Spacing lookup 0 subtable" dx=5 dy=0 dh=10 dv=0
EndChar

StartChar: Udieresis
Encoding: 220 220 86
Width: 680
GlyphClass: 2
Flags: MW
HStem: -10 89<296.5 333 333 346> 666 20G<86 184 184 184 496 594 594 594> 750 98<201 291 201 291 389 480>
VStem: 86 98<219 221 221 686> 201 90<750 848> 389 91<750 848> 496 98<221 686>
LayerCount: 2
Fore
SplineSet
291 750 m 1
 201 750 l 1
 201 848 l 1
 291 848 l 1
 291 750 l 1
480 750 m 1
 389 750 l 1
 389 848 l 1
 480 848 l 1
 480 750 l 1
594 686 m 1xf2
 594 219 l 2
 594 81 496 -10 346 -10 c 2
 333 -10 l 2
 185 -10 86 79 86 219 c 2
 86 686 l 1
 184 686 l 1
 184 221 l 2
 184 135 251 79 342 79 c 0
 437 79 496 137 496 221 c 2
 496 686 l 1
 594 686 l 1xf2
EndSplineSet
Position2: "'cpsp' Capital Spacing lookup 0 subtable" dx=5 dy=0 dh=10 dv=0
EndChar

StartChar: Ugrave
Encoding: 217 217 87
Width: 680
GlyphClass: 2
Flags: MW
HStem: -10 89<296.5 333 333 346> 666 20G<86 184 184 184 496 594 594 594> 750 145<199 383 199 313>
VStem: 86 98<219 221 221 686> 496 98<221 686>
LayerCount: 2
Fore
SplineSet
383 750 m 1
 313 750 l 1
 198 892 l 1
 199 895 l 1
 288 895 l 1
 383 750 l 1
594 686 m 1
 594 219 l 2
 594 81 496 -10 346 -10 c 2
 333 -10 l 2
 185 -10 86 79 86 219 c 2
 86 686 l 1
 184 686 l 1
 184 221 l 2
 184 135 251 79 342 79 c 0
 437 79 496 137 496 221 c 2
 496 686 l 1
 594 686 l 1
EndSplineSet
Position2: "'cpsp' Capital Spacing lookup 0 subtable" dx=5 dy=0 dh=10 dv=0
EndChar

StartChar: Uhungarumlaut
Encoding: 368 368 88
Width: 680
GlyphClass: 2
Flags: MW
HStem: -10 89<296.5 333 333 346> 666 20G<86 184 184 184 496 594 594 594> 750 145<210 394 210 394 365 365 365 394 305 435>
VStem: 86 98<219 221 221 686> 496 98<221 686>
LayerCount: 2
Fore
SplineSet
395 892 m 1
 280 750 l 1
 210 750 l 1
 305 895 l 1
 394 895 l 1
 395 892 l 1
550 892 m 1
 435 750 l 1
 365 750 l 1
 459 895 l 1
 549 895 l 1
 550 892 l 1
594 686 m 1
 594 219 l 2
 594 81 496 -10 346 -10 c 2
 333 -10 l 2
 185 -10 86 79 86 219 c 2
 86 686 l 1
 184 686 l 1
 184 221 l 2
 184 135 251 79 342 79 c 0
 437 79 496 137 496 221 c 2
 496 686 l 1
 594 686 l 1
EndSplineSet
EndChar

StartChar: Umacron
Encoding: 362 362 89
Width: 680
GlyphClass: 2
Flags: MW
HStem: -10 89<296.5 333 333 346> 666 20G<86 184 184 184 496 594 594 594> 837 74<181 499 181 499>
VStem: 86 98<219 221 221 686> 496 98<221 686>
LayerCount: 2
Fore
SplineSet
499 837 m 1
 181 837 l 1
 181 911 l 1
 499 911 l 1
 499 837 l 1
594 686 m 1
 594 219 l 2
 594 81 496 -10 346 -10 c 2
 333 -10 l 2
 185 -10 86 79 86 219 c 2
 86 686 l 1
 184 686 l 1
 184 221 l 2
 184 135 251 79 342 79 c 0
 437 79 496 137 496 221 c 2
 496 686 l 1
 594 686 l 1
EndSplineSet
EndChar

StartChar: Uogonek
Encoding: 370 370 90
Width: 680
GlyphClass: 2
Flags: MW
HStem: -143 47<415.5 437> -20 20G<427 432 432 432> -10 89<296.5 333 333 346 346 364> 666 20G<86 184 184 184 496 594 594 594>
VStem: 86 98<219 221 221 686> 324 62<-70.5 -57> 496 98<221 686>
LayerCount: 2
Fore
SplineSet
594 686 m 1xbe
 594 219 l 2
 594 108 530 27 427 0 c 1
 432 0 l 1xde
 412 -11 386 -35 386 -58 c 0
 386 -83 401 -96 430 -96 c 0
 445 -96 467 -91 497 -82 c 1
 510 -119 l 1
 483 -135 453 -143 421 -143 c 0
 362 -143 324 -120 324 -69 c 0
 324 -45 344 -25 364 -10 c 1
 346 -10 l 1
 333 -10 l 2
 185 -10 86 79 86 219 c 2
 86 686 l 1
 184 686 l 1
 184 221 l 2
 184 135 251 79 342 79 c 0
 437 79 496 137 496 221 c 2
 496 686 l 1
 594 686 l 1xbe
EndSplineSet
EndChar

StartChar: Uring
Encoding: 366 366 91
Width: 680
GlyphClass: 2
Flags: MW
HStem: -10 89<296.5 333 333 346> 666 20G<86 184 184 184 496 594 594 594> 720 47<324.5 355.5 324.5 368> 874 47<324.5 355.5>
VStem: 86 98<219 221 221 686> 239 45<804.5 835.5 804.5 848> 396 45<805.5 835.5> 496 98<221 686>
LayerCount: 2
Fore
SplineSet
340 921 m 0
 390 921 441 878 441 820 c 0
 441 765 396 720 340 720 c 0
 287 720 239 763 239 820 c 0
 239 876 284 921 340 921 c 0
340 874 m 0
 309 874 284 851 284 820 c 0
 284 789 309 767 340 767 c 0
 371 767 396 790 396 821 c 0
 396 850 371 874 340 874 c 0
594 686 m 1
 594 219 l 2
 594 81 496 -10 346 -10 c 2
 333 -10 l 2
 185 -10 86 79 86 219 c 2
 86 686 l 1
 184 686 l 1
 184 221 l 2
 184 135 251 79 342 79 c 0
 437 79 496 137 496 221 c 2
 496 686 l 1
 594 686 l 1
EndSplineSet
EndChar

StartChar: V
Encoding: 86 86 92
Width: 603
GlyphClass: 2
Flags: MW
HStem: 0 133<303 309 303 354 249 309> 666 20G<5 110 110 110 503 598 598 598>
VStem: 5 593<686 686>
LayerCount: 2
Fore
SplineSet
354 0 m 1
 249 0 l 1
 5 686 l 1
 110 686 l 1
 303 133 l 1
 309 133 l 1
 503 686 l 1
 598 686 l 1
 354 0 l 1
EndSplineSet
Position2: "'cpsp' Capital Spacing lookup 0 subtable" dx=5 dy=0 dh=10 dv=0
EndChar

StartChar: W
Encoding: 87 87 93
Width: 916
GlyphClass: 2
Flags: MW
HStem: 0 169<264 270 264 310 210 270 656 662> 496 190<455 462 455 455> 666 20G<14 119 119 119 416 511 511 511 808 903 903 903>
VStem: 14 889<686 686>
LayerCount: 2
Fore
SplineSet
702 0 m 1xb0
 602 0 l 1
 462 496 l 1
 455 496 l 1xd0
 310 0 l 1
 210 0 l 1
 14 686 l 1
 119 686 l 1
 264 169 l 1
 270 169 l 1
 416 686 l 1
 511 686 l 1
 656 169 l 1
 662 169 l 1
 808 686 l 1
 903 686 l 1
 702 0 l 1xb0
EndSplineSet
Position2: "'cpsp' Capital Spacing lookup 0 subtable" dx=5 dy=0 dh=10 dv=0
EndChar

StartChar: X
Encoding: 88 88 94
Width: 631
GlyphClass: 2
Flags: MW
HStem: 665 20G
VStem: 9 612<0 0>
LayerCount: 2
Fore
SplineSet
372 361 m 1
 621 0 l 1
 503 0 l 1
 313 276 l 1
 118 0 l 1
 9 0 l 1
 259 355 l 1
 32 685 l 1
 150 685 l 1
 318 440 l 1
 388 538 449 627 476 665 c 2
 490 685 l 1
 599 685 l 1
 372 361 l 1
EndSplineSet
Position2: "'cpsp' Capital Spacing lookup 0 subtable" dx=5 dy=0 dh=10 dv=0
EndChar

StartChar: Y
Encoding: 89 89 95
Width: 572
GlyphClass: 2
Flags: MW
HStem: 666 20G<-5 107 107 107 475 576 576 576>
VStem: 237 98<0 265 0 265>
LayerCount: 2
Fore
SplineSet
335 265 m 1
 335 0 l 1
 237 0 l 1
 237 265 l 1
 -5 686 l 1
 107 686 l 1
 290 367 l 1
 294 367 l 1
 475 686 l 1
 576 686 l 1
 335 265 l 1
EndSplineSet
Position2: "'cpsp' Capital Spacing lookup 0 subtable" dx=5 dy=0 dh=10 dv=0
EndChar

StartChar: Yacute
Encoding: 221 221 96
Width: 572
GlyphClass: 2
Flags: MW
HStem: 666 20G<-5 107 107 107 475 576 576 576> 750 145<259 443 259 443>
VStem: 237 98<0 265 0 265>
LayerCount: 2
Fore
SplineSet
444 892 m 1
 328 750 l 1
 259 750 l 1
 353 895 l 1
 443 895 l 1
 444 892 l 1
335 265 m 1
 335 0 l 1
 237 0 l 1
 237 265 l 1
 -5 686 l 1
 107 686 l 1
 290 367 l 1
 294 367 l 1
 475 686 l 1
 576 686 l 1
 335 265 l 1
EndSplineSet
Position2: "'cpsp' Capital Spacing lookup 0 subtable" dx=5 dy=0 dh=10 dv=0
EndChar

StartChar: Ydieresis
Encoding: 376 376 97
Width: 572
GlyphClass: 2
Flags: MW
HStem: 666 20G<-5 107 107 107 475 576 576 576> 749 98<158 248 158 248 346 437>
VStem: 158 90<749 847> 237 98<0 265 0 265> 346 91<749 847>
LayerCount: 2
Fore
SplineSet
248 749 m 1xe8
 158 749 l 1
 158 847 l 1
 248 847 l 1
 248 749 l 1xe8
437 749 m 1
 346 749 l 1
 346 847 l 1
 437 847 l 1
 437 749 l 1
335 265 m 1xd0
 335 0 l 1
 237 0 l 1
 237 265 l 1
 -5 686 l 1
 107 686 l 1
 290 367 l 1
 294 367 l 1
 475 686 l 1
 576 686 l 1
 335 265 l 1xd0
EndSplineSet
Position2: "'cpsp' Capital Spacing lookup 0 subtable" dx=5 dy=0 dh=10 dv=0
EndChar

StartChar: Z
Encoding: 90 90 98
Width: 596
GlyphClass: 2
Flags: MW
HStem: 0 89<181 555 181 555> 597 89<56 397 56 547>
VStem: 32 523<0 38 38 38>
LayerCount: 2
Fore
SplineSet
547 648 m 1
 181 89 l 1
 555 89 l 1
 555 0 l 1
 32 0 l 1
 32 38 l 1
 397 597 l 1
 56 597 l 1
 56 686 l 1
 547 686 l 1
 547 648 l 1
EndSplineSet
Position2: "'cpsp' Capital Spacing lookup 0 subtable" dx=5 dy=0 dh=10 dv=0
EndChar

StartChar: Zacute
Encoding: 377 377 99
Width: 596
GlyphClass: 2
Flags: MW
HStem: 0 89<181 555 181 555> 597 89<56 397 56 547> 750 145<245 429 245 429>
VStem: 32 523<0 38 38 38>
LayerCount: 2
Fore
SplineSet
430 892 m 1
 314 750 l 1
 245 750 l 1
 339 895 l 1
 429 895 l 1
 430 892 l 1
547 648 m 1
 181 89 l 1
 555 89 l 1
 555 0 l 1
 32 0 l 1
 32 38 l 1
 397 597 l 1
 56 597 l 1
 56 686 l 1
 547 686 l 1
 547 648 l 1
EndSplineSet
EndChar

StartChar: Zcaron
Encoding: 381 381 100
Width: 596
GlyphClass: 2
Flags: MW
HStem: 0 89<181 555 181 555> 597 89<56 397 56 547> 750 145<125 339 125 261>
VStem: 32 523<0 38 38 38>
LayerCount: 2
Fore
SplineSet
339 750 m 1
 261 750 l 1
 125 895 l 1
 205 895 l 1
 300 806 l 1
 394 895 l 1
 474 895 l 1
 339 750 l 1
547 648 m 1
 181 89 l 1
 555 89 l 1
 555 0 l 1
 32 0 l 1
 32 38 l 1
 397 597 l 1
 56 597 l 1
 56 686 l 1
 547 686 l 1
 547 648 l 1
EndSplineSet
Position2: "'cpsp' Capital Spacing lookup 0 subtable" dx=5 dy=0 dh=10 dv=0
EndChar

StartChar: Zdotaccent
Encoding: 379 379 101
Width: 596
GlyphClass: 2
Flags: MW
HStem: 0 89<181 555 181 555> 597 89<56 397 56 547> 779 132<280 316>
VStem: 232 132<827.5 862.5 825.5 864>
LayerCount: 2
Fore
SplineSet
298 911 m 0
 335 911 364 881 364 844 c 0
 364 807 334 779 298 779 c 0
 262 779 232 809 232 846 c 0
 232 882 261 911 298 911 c 0
547 648 m 1
 181 89 l 1
 555 89 l 1
 555 0 l 1
 32 0 l 1
 32 38 l 1
 397 597 l 1
 56 597 l 1
 56 686 l 1
 547 686 l 1
 547 648 l 1
EndSplineSet
EndChar

StartChar: a
Encoding: 97 97 102
Width: 585
GlyphClass: 2
Flags: MW
HStem: -10 75<212 254.5> 234 73<282.5 390> 446 75<275 284 284 308.5>
VStem: 48 94<111 168 111 202.5> 65 94<354 422.5> 390 94<214 234 234 234 307 354 354 365>
LayerCount: 2
Fore
SplineSet
275 521 m 2xf4
 284 521 l 2
 420 521 484 465 484 365 c 2
 484 100 l 2
 484 75 497 65 512 65 c 0
 528 65 543 70 558 79 c 1
 558 10 l 1
 536 -3 510 -10 481 -10 c 0
 421 -10 397 29 394 82 c 1
 353 21 294 -10 215 -10 c 0
 105 -10 48 35 48 142 c 0xf4
 48 263 133 307 390 307 c 1
 390 354 l 2
 390 425 344 446 273 446 c 0
 201 446 159 417 159 366 c 2
 159 354 l 1
 67 354 l 1
 66 361 65 372 65 387 c 0xec
 65 458 156 521 275 521 c 2xf4
390 214 m 2
 390 234 l 1
 175 234 142 202 142 134 c 0
 142 88 177 65 247 65 c 0
 321 65 390 122 390 214 c 2
EndSplineSet
Substitution2: "Single Substitution lookup 5 subtable" ordfeminine
Substitution2: "'aalt' Access All Alternates lookup 0 subtable" ordfeminine
EndChar

StartChar: aacute
Encoding: 225 225 103
Width: 585
GlyphClass: 2
Flags: MW
HStem: -10 75<212 254.5> 234 73<282.5 390> 446 75<275 284 284 308.5> 575 145<246 430 246 430>
VStem: 48 94<111 168 111 202.5> 65 94<354 422.5> 390 94<214 234 234 234 307 354 354 365>
LayerCount: 2
Fore
SplineSet
431 717 m 1xfa
 315 575 l 1
 246 575 l 1
 340 720 l 1
 430 720 l 1
 431 717 l 1xfa
275 521 m 2
 284 521 l 2
 420 521 484 465 484 365 c 2
 484 100 l 2
 484 75 497 65 512 65 c 0
 528 65 543 70 558 79 c 1
 558 10 l 1
 536 -3 510 -10 481 -10 c 0
 421 -10 397 29 394 82 c 1
 353 21 294 -10 215 -10 c 0
 105 -10 48 35 48 142 c 0xfa
 48 263 133 307 390 307 c 1
 390 354 l 2
 390 425 344 446 273 446 c 0
 201 446 159 417 159 366 c 2
 159 354 l 1
 67 354 l 1
 66 361 65 372 65 387 c 0xf6
 65 458 156 521 275 521 c 2
390 214 m 2
 390 234 l 1
 175 234 142 202 142 134 c 0
 142 88 177 65 247 65 c 0
 321 65 390 122 390 214 c 2
EndSplineSet
EndChar

StartChar: abreve
Encoding: 259 259 104
Width: 585
GlyphClass: 2
Flags: MW
HStem: -10 75<212 254.5> 234 73<282.5 390> 446 75<275 284 284 308.5> 613 62<261.5 323.5 261.5 340.5>
VStem: 48 94<111 168 111 202.5> 65 94<354 422.5> 390 94<214 234 234 234 307 354 354 365>
LayerCount: 2
Fore
SplineSet
418 737 m 1xfa
 486 737 l 1
 486 675 388 613 293 613 c 0
 196 613 101 676 101 737 c 1
 168 737 l 1
 179 701 230 675 293 675 c 0
 354 675 407 701 418 737 c 1xfa
275 521 m 2
 284 521 l 2
 420 521 484 465 484 365 c 2
 484 100 l 2
 484 75 497 65 512 65 c 0
 528 65 543 70 558 79 c 1
 558 10 l 1
 536 -3 510 -10 481 -10 c 0
 421 -10 397 29 394 82 c 1
 353 21 294 -10 215 -10 c 0
 105 -10 48 35 48 142 c 0xfa
 48 263 133 307 390 307 c 1
 390 354 l 2
 390 425 344 446 273 446 c 0
 201 446 159 417 159 366 c 2
 159 354 l 1
 67 354 l 1
 66 361 65 372 65 387 c 0xf6
 65 458 156 521 275 521 c 2
390 214 m 2
 390 234 l 1
 175 234 142 202 142 134 c 0
 142 88 177 65 247 65 c 0
 321 65 390 122 390 214 c 2
EndSplineSet
EndChar

StartChar: acircumflex
Encoding: 226 226 105
Width: 585
GlyphClass: 2
Flags: MW
HStem: -10 75<212 254.5> 234 73<282.5 390> 446 75<275 284 284 308.5> 575 145<103 317 103 317 239 452 239 372> 664 56<278 278>
VStem: 48 94<111 168 111 202.5> 65 94<354 422.5> 390 94<214 234 234 234 307 354 354 365>
LayerCount: 2
Fore
SplineSet
452 575 m 1xf5
 372 575 l 1xf3
 278 664 l 1xed
 183 575 l 1
 103 575 l 1
 239 720 l 1
 317 720 l 1
 452 575 l 1xf5
275 521 m 2
 284 521 l 2
 420 521 484 465 484 365 c 2
 484 100 l 2
 484 75 497 65 512 65 c 0
 528 65 543 70 558 79 c 1
 558 10 l 1
 536 -3 510 -10 481 -10 c 0
 421 -10 397 29 394 82 c 1
 353 21 294 -10 215 -10 c 0
 105 -10 48 35 48 142 c 0xf5
 48 263 133 307 390 307 c 1
 390 354 l 2
 390 425 344 446 273 446 c 0
 201 446 159 417 159 366 c 2
 159 354 l 1
 67 354 l 1
 66 361 65 372 65 387 c 0
 65 458 156 521 275 521 c 2
390 214 m 2
 390 234 l 1
 175 234 142 202 142 134 c 0
 142 88 177 65 247 65 c 0
 321 65 390 122 390 214 c 2
EndSplineSet
EndChar

StartChar: adieresis
Encoding: 228 228 106
Width: 585
GlyphClass: 2
Flags: MW
HStem: -10 75<212 254.5> 234 73<282.5 390> 446 75<275 284 284 308.5> 622 98<136 226 136 226 324 415>
VStem: 48 94<111 168 111 202.5> 65 94<354 422.5> 136 90<622 720> 324 91<622 720> 390 94<214 234 234 234 307 354 354 365>
LayerCount: 2
Fore
SplineSet
226 622 m 1xf3
 136 622 l 1
 136 720 l 1
 226 720 l 1
 226 622 l 1xf3
415 622 m 1
 324 622 l 1
 324 720 l 1
 415 720 l 1
 415 622 l 1
275 521 m 2
 284 521 l 2
 420 521 484 465 484 365 c 2
 484 100 l 2
 484 75 497 65 512 65 c 0
 528 65 543 70 558 79 c 1
 558 10 l 1
 536 -3 510 -10 481 -10 c 0
 421 -10 397 29 394 82 c 1
 353 21 294 -10 215 -10 c 0
 105 -10 48 35 48 142 c 0xf880
 48 263 133 307 390 307 c 1
 390 354 l 2
 390 425 344 446 273 446 c 0
 201 446 159 417 159 366 c 2
 159 354 l 1
 67 354 l 1
 66 361 65 372 65 387 c 0xf480
 65 458 156 521 275 521 c 2
390 214 m 2
 390 234 l 1
 175 234 142 202 142 134 c 0
 142 88 177 65 247 65 c 0
 321 65 390 122 390 214 c 2
EndSplineSet
EndChar

StartChar: agrave
Encoding: 224 224 107
Width: 585
GlyphClass: 2
Flags: MW
HStem: -10 75<212 254.5> 234 73<282.5 390> 446 75<275 284 284 308.5> 575 145<130 314 130 244>
VStem: 48 94<111 168 111 202.5> 65 94<354 422.5> 390 94<214 234 234 234 307 354 354 365>
LayerCount: 2
Fore
SplineSet
314 575 m 1xfa
 244 575 l 1
 129 717 l 1
 130 720 l 1
 219 720 l 1
 314 575 l 1xfa
275 521 m 2
 284 521 l 2
 420 521 484 465 484 365 c 2
 484 100 l 2
 484 75 497 65 512 65 c 0
 528 65 543 70 558 79 c 1
 558 10 l 1
 536 -3 510 -10 481 -10 c 0
 421 -10 397 29 394 82 c 1
 353 21 294 -10 215 -10 c 0
 105 -10 48 35 48 142 c 0xfa
 48 263 133 307 390 307 c 1
 390 354 l 2
 390 425 344 446 273 446 c 0
 201 446 159 417 159 366 c 2
 159 354 l 1
 67 354 l 1
 66 361 65 372 65 387 c 0xf6
 65 458 156 521 275 521 c 2
390 214 m 2
 390 234 l 1
 175 234 142 202 142 134 c 0
 142 88 177 65 247 65 c 0
 321 65 390 122 390 214 c 2
EndSplineSet
EndChar

StartChar: amacron
Encoding: 257 257 108
Width: 585
GlyphClass: 2
Flags: MW
HStem: -10 75<212 254.5> 234 73<282.5 390> 446 75<275 284 284 308.5> 662 74<134 452 134 452>
VStem: 48 94<111 168 111 202.5> 65 94<354 422.5> 390 94<214 234 234 234 307 354 354 365>
LayerCount: 2
Fore
SplineSet
452 662 m 1xfa
 134 662 l 1
 134 736 l 1
 452 736 l 1
 452 662 l 1xfa
275 521 m 2
 284 521 l 2
 420 521 484 465 484 365 c 2
 484 100 l 2
 484 75 497 65 512 65 c 0
 528 65 543 70 558 79 c 1
 558 10 l 1
 536 -3 510 -10 481 -10 c 0
 421 -10 397 29 394 82 c 1
 353 21 294 -10 215 -10 c 0
 105 -10 48 35 48 142 c 0xfa
 48 263 133 307 390 307 c 1
 390 354 l 2
 390 425 344 446 273 446 c 0
 201 446 159 417 159 366 c 2
 159 354 l 1
 67 354 l 1
 66 361 65 372 65 387 c 0xf6
 65 458 156 521 275 521 c 2
390 214 m 2
 390 234 l 1
 175 234 142 202 142 134 c 0
 142 88 177 65 247 65 c 0
 321 65 390 122 390 214 c 2
EndSplineSet
EndChar

StartChar: aogonek
Encoding: 261 261 109
Width: 585
GlyphClass: 2
Flags: MW
HStem: -143 47<509.5 531> -10 75<212 254.5> 234 73<282.5 390> 446 75<275 284 284 308.5>
VStem: 48 94<111 168 111 202.5> 65 94<354 422.5> 390 94<214 234 234 234 307 354 354 365> 418 62<-70.5 -57>
LayerCount: 2
Fore
SplineSet
591 -82 m 1xfa
 604 -119 l 1
 577 -135 547 -143 515 -143 c 0
 456 -143 418 -120 418 -69 c 0xf9
 418 -45 439 -24 460 -8 c 1
 415 0 397 36 394 82 c 1
 353 21 294 -10 215 -10 c 0
 105 -10 48 35 48 142 c 0xfa
 48 263 133 307 390 307 c 1
 390 354 l 2
 390 425 344 446 273 446 c 0
 201 446 159 417 159 366 c 2
 159 354 l 1
 67 354 l 1
 66 361 65 372 65 387 c 0
 65 458 156 521 275 521 c 2
 284 521 l 2
 420 521 484 465 484 365 c 2
 484 100 l 2
 484 75 497 65 512 65 c 0
 528 65 543 70 558 79 c 1
 558 10 l 1xf6
 545 2 531 -3 516 -6 c 1
 498 -19 480 -39 480 -58 c 0
 480 -83 495 -96 524 -96 c 0xf9
 539 -96 561 -91 591 -82 c 1xfa
390 214 m 2xfa
 390 234 l 1
 175 234 142 202 142 134 c 0
 142 88 177 65 247 65 c 0
 321 65 390 122 390 214 c 2xfa
EndSplineSet
EndChar

StartChar: aring
Encoding: 229 229 110
Width: 585
GlyphClass: 2
Flags: MW
HStem: -10 75<212 254.5> 234 73<282.5 390> 446 75<275 284 284 308.5> 556 47<261.5 292.5 261.5 305> 710 47<261.5 292.5>
VStem: 48 94<111 168 111 202.5> 65 94<354 422.5> 176 45<640.5 671.5 640.5 684> 333 45<641.5 671.5> 390 94<214 234 234 234 307 354 354 365>
LayerCount: 2
Fore
SplineSet
277 757 m 0xfdc0
 329 757 378 715 378 656 c 0
 378 601 333 556 277 556 c 0
 223 556 176 598 176 656 c 0
 176 712 221 757 277 757 c 0xfdc0
277 710 m 0
 246 710 221 687 221 656 c 0
 221 625 246 603 277 603 c 0
 308 603 333 626 333 657 c 0
 333 686 308 710 277 710 c 0
275 521 m 2
 284 521 l 2
 420 521 484 465 484 365 c 2
 484 100 l 2
 484 75 497 65 512 65 c 0
 528 65 543 70 558 79 c 1
 558 10 l 1
 536 -3 510 -10 481 -10 c 0
 421 -10 397 29 394 82 c 1
 353 21 294 -10 215 -10 c 0
 105 -10 48 35 48 142 c 0xfd40
 48 263 133 307 390 307 c 1
 390 354 l 2
 390 425 344 446 273 446 c 0
 201 446 159 417 159 366 c 2
 159 354 l 1
 67 354 l 1
 66 361 65 372 65 387 c 0xfb40
 65 458 156 521 275 521 c 2
390 214 m 2
 390 234 l 1
 175 234 142 202 142 134 c 0
 142 88 177 65 247 65 c 0
 321 65 390 122 390 214 c 2
EndSplineSet
EndChar

StartChar: atilde
Encoding: 227 227 111
Width: 585
GlyphClass: 2
Flags: MW
HStem: -10 75<212 254.5> 234 73<282.5 390> 446 75<275 284 284 308.5> 616 69<357.5 380.5 357.5 392.5> 650 70<175 204.5>
VStem: 48 94<111 168 111 202.5> 65 94<354 422.5> 390 94<214 234 234 234 307 354 354 365>
LayerCount: 2
Fore
SplineSet
421 720 m 1xed
 471 720 l 1xeb
 471 661 426 616 359 616 c 0xf5
 339 616 315 619 289 627 c 0
 234 643 219 650 190 650 c 0xed
 160 650 142 639 135 616 c 1
 85 616 l 1xf5
 85 668 124 720 196 720 c 0xed
 231 720 258 711 286 702 c 0
 323 691 349 685 366 685 c 0xf5
 395 685 414 697 421 720 c 1xed
275 521 m 2
 284 521 l 2
 420 521 484 465 484 365 c 2
 484 100 l 2
 484 75 497 65 512 65 c 0
 528 65 543 70 558 79 c 1
 558 10 l 1
 536 -3 510 -10 481 -10 c 0
 421 -10 397 29 394 82 c 1
 353 21 294 -10 215 -10 c 0
 105 -10 48 35 48 142 c 0xed
 48 263 133 307 390 307 c 1
 390 354 l 2
 390 425 344 446 273 446 c 0
 201 446 159 417 159 366 c 2
 159 354 l 1
 67 354 l 1
 66 361 65 372 65 387 c 0
 65 458 156 521 275 521 c 2
390 214 m 2
 390 234 l 1
 175 234 142 202 142 134 c 0
 142 88 177 65 247 65 c 0
 321 65 390 122 390 214 c 2
EndSplineSet
EndChar

StartChar: ae
Encoding: 230 230 112
Width: 895
GlyphClass: 2
Flags: MW
HStem: -10 75<212 255 581 623 623 627> 234 73<282.5 390 486 748> 446 75<275 284 284 308.5 620 627 627 660>
VStem: 48 94<111 168 111 202.5> 65 94<354 422.5> 390 94<214 234 234 234 234 354> 748 93
LayerCount: 2
Fore
SplineSet
620 521 m 2xf6
 627 521 l 2
 752 521 841 439 841 305 c 2
 841 234 l 1
 484 234 l 1
 487 128 533 65 629 65 c 0
 720 65 752 130 752 190 c 1
 841 190 l 1
 841 71 754 -10 627 -10 c 2
 623 -10 l 2
 534 -10 463 29 423 101 c 1
 378 29 295 -10 215 -10 c 0
 105 -10 48 35 48 142 c 0xf6
 48 263 133 307 390 307 c 1
 390 354 l 2
 390 425 344 446 273 446 c 0
 201 446 159 417 159 366 c 2
 159 354 l 1
 67 354 l 1
 66 361 65 372 65 387 c 0xee
 65 458 156 521 275 521 c 2
 284 521 l 2
 368 521 426 500 457 457 c 1
 497 500 551 521 620 521 c 2xf6
622 446 m 0
 547 446 497 400 486 307 c 1
 748 307 l 1
 748 319 l 2
 748 395 698 446 622 446 c 0
390 214 m 2
 390 234 l 1
 175 234 142 202 142 134 c 0
 142 88 177 65 247 65 c 0
 321 65 390 122 390 214 c 2
EndSplineSet
EndChar

StartChar: b
Encoding: 98 98 113
Width: 583
GlyphClass: 2
Flags: MW
HStem: -10 75<286 349.5 262.5 388> 446 75<293 349> 700 20G<83 177 177 177>
VStem: 83 94<446 720 446 720 446 720> 437 94<191.5 256 256 267 173 321>
LayerCount: 2
Fore
SplineSet
177 720 m 1
 177 446 l 1
 206 487 261 521 325 521 c 0
 457 521 531 420 531 267 c 2
 531 256 l 2
 531 90 452 -10 324 -10 c 0
 248 -10 191 20 152 81 c 1
 119 0 l 1
 83 0 l 1
 83 720 l 1
 177 720 l 1
306 446 m 0
 217 446 176 385 176 255 c 0
 176 123 219 65 306 65 c 0
 393 65 437 128 437 255 c 0
 437 387 392 446 306 446 c 0
EndSplineSet
EndChar

StartChar: c
Encoding: 99 99 114
Width: 544
GlyphClass: 2
Flags: MW
HStem: -10 75<240.5 276 276 284> 446 75<275 283 283 320.5>
VStem: 51 94<243 267 267 291 177.5 343.5> 405 90<160.5 200>
AnchorPoint: "Bottom" 272 0 basechar 0
LayerCount: 2
Fore
SplineSet
275 521 m 2
 283 521 l 2
 406 521 495 437 495 310 c 1
 402 310 l 1
 402 390 361 446 280 446 c 0
 198 446 145 388 145 291 c 2
 145 237 l 2
 145 118 198 65 283 65 c 0
 367 65 405 121 405 200 c 1
 495 200 l 1
 495 71 411 -10 284 -10 c 2
 276 -10 l 2
 138 -10 51 91 51 243 c 2
 51 267 l 2
 51 420 141 521 275 521 c 2
EndSplineSet
EndChar

StartChar: cacute
Encoding: 263 263 115
Width: 544
GlyphClass: 2
Flags: MW
HStem: -10 75<240.5 276 276 284> 446 75<275 283 283 320.5> 575 145<219 403 219 403>
VStem: 51 94<243 267 267 291 177.5 343.5> 405 90<160.5 200>
AnchorPoint: "Bottom" 272 0 basechar 0
LayerCount: 2
Fore
SplineSet
404 717 m 1
 288 575 l 1
 219 575 l 1
 313 720 l 1
 403 720 l 1
 404 717 l 1
275 521 m 2
 283 521 l 2
 406 521 495 437 495 310 c 1
 402 310 l 1
 402 390 361 446 280 446 c 0
 198 446 145 388 145 291 c 2
 145 237 l 2
 145 118 198 65 283 65 c 0
 367 65 405 121 405 200 c 1
 495 200 l 1
 495 71 411 -10 284 -10 c 2
 276 -10 l 2
 138 -10 51 91 51 243 c 2
 51 267 l 2
 51 420 141 521 275 521 c 2
EndSplineSet
EndChar

StartChar: ccaron
Encoding: 269 269 116
Width: 544
GlyphClass: 2
Flags: MW
HStem: -10 75<240.5 276 276 284> 446 75<275 283 283 320.5> 575 145<98 312 98 234>
VStem: 51 94<243 267 267 291 177.5 343.5> 405 90<160.5 200>
AnchorPoint: "Bottom" 272 0 basechar 0
LayerCount: 2
Fore
SplineSet
312 575 m 1
 234 575 l 1
 98 720 l 1
 178 720 l 1
 273 631 l 1
 367 720 l 1
 447 720 l 1
 312 575 l 1
275 521 m 2
 283 521 l 2
 406 521 495 437 495 310 c 1
 402 310 l 1
 402 390 361 446 280 446 c 0
 198 446 145 388 145 291 c 2
 145 237 l 2
 145 118 198 65 283 65 c 0
 367 65 405 121 405 200 c 1
 495 200 l 1
 495 71 411 -10 284 -10 c 2
 276 -10 l 2
 138 -10 51 91 51 243 c 2
 51 267 l 2
 51 420 141 521 275 521 c 2
EndSplineSet
EndChar

StartChar: ccedilla
Encoding: 231 231 117
Width: 544
GlyphClass: 2
Flags: MW
HStem: -197 51<262.5 282.5 249.5 310> -60 43<254 275 254 278> -10 75<240.5 276 276 284> 446 75<275 283 283 320.5>
VStem: 51 94<243 267 267 291 177.5 343.5> 327 62<-116 -87.5> 405 90<160.5 200>
LayerCount: 2
Fore
SplineSet
275 521 m 2
 283 521 l 2
 406 521 495 437 495 310 c 1
 402 310 l 1
 402 390 361 446 280 446 c 0
 198 446 145 388 145 291 c 2
 145 237 l 2
 145 118 198 65 283 65 c 0
 367 65 405 121 405 200 c 1
 495 200 l 1xbe
 495 71 411 -10 284 -10 c 2
 276 -10 l 2
 138 -10 51 91 51 243 c 2
 51 267 l 2
 51 420 141 521 275 521 c 2
254 -17 m 1xdc
 278 -17 l 2
 352 -17 389 -47 389 -106 c 0
 389 -164 336 -197 284 -197 c 0
 241 -197 206 -190 179 -175 c 1
 188 -126 l 1
 215 -139 239 -146 260 -146 c 0
 305 -146 327 -131 327 -101 c 0
 327 -74 303 -60 275 -60 c 2
 254 -60 l 1
 254 -17 l 1xdc
EndSplineSet
EndChar

StartChar: d
Encoding: 100 100 118
Width: 583
GlyphClass: 2
Flags: MW
HStem: -10 75<232.5 292.5> 446 75<231.5 290.5 193 319> 700 20G<406 500 500 500>
VStem: 52 94<256 267 267 320 189 344> 406 94<446 720>
LayerCount: 2
Fore
SplineSet
500 0 m 1
 430 0 l 1
 427 13 422 36 417 70 c 1
 379 17 326 -10 259 -10 c 0
 131 -10 52 90 52 256 c 2
 52 267 l 2
 52 421 127 521 259 521 c 0
 322 521 371 496 406 446 c 1
 406 720 l 1
 500 720 l 1
 500 0 l 1
276 446 m 0
 187 446 146 385 146 255 c 0
 146 123 189 65 276 65 c 0
 363 65 407 128 407 255 c 0
 407 387 362 446 276 446 c 0
EndSplineSet
EndChar

StartChar: eth
Encoding: 240 240 119
Width: 575
GlyphClass: 2
Flags: MW
HStem: -10 75<241.5 330.5 241.5 359.5> 446 75<243 292 216 332.5> 498 20G 709 20G<173 173>
VStem: 52 94<237 246 246 265 188.5 274 188.5 351.5> 428 94<246 265 265 274 160.5 322.5>
LayerCount: 2
Fore
SplineSet
114 700 m 1xdc
 173 729 l 1
 203 714 235 695 268 673 c 1
 362 717 l 1
 394 683 l 1
 307 643 l 1
 443 531 522 408 522 274 c 2
 522 237 l 2
 522 84 432 -10 287 -10 c 0
 142 -10 52 84 52 237 c 2
 52 274 l 2
 52 429 145 521 287 521 c 0xdc
 297 521 308 520 319 518 c 1
 295 547 267 576 236 605 c 1
 145 562 l 1
 132 573 121 584 109 595 c 1xbc
 203 639 l 1
 172 666 135 685 114 700 c 1xdc
287 446 m 0
 199 446 146 385 146 265 c 2
 146 246 l 2
 146 131 196 65 287 65 c 0
 374 65 428 126 428 246 c 2
 428 265 l 2
 428 380 378 446 287 446 c 0
EndSplineSet
EndChar

StartChar: dcaron
Encoding: 271 271 120
Width: 583
GlyphClass: 2
Flags: MW
HStem: -10 75<232.5 292.5> 446 75<231.5 290.5 193 319> 575 111<572 613 572 673> 700 20G<406 500 500 500>
VStem: 52 94<256 267 267 320 189 344> 406 94<446 720> 572 101<601 601 601 686 601 686>
LayerCount: 2
Fore
SplineSet
500 0 m 1
 430 0 l 1
 427 13 422 36 417 70 c 1
 379 17 326 -10 259 -10 c 0
 131 -10 52 90 52 256 c 2
 52 267 l 2
 52 421 127 521 259 521 c 0
 322 521 371 496 406 446 c 1
 406 720 l 1
 500 720 l 1
 500 0 l 1
673 601 m 1
 638 451 l 1
 586 451 l 1
 613 575 l 1
 572 575 l 1
 572 686 l 1
 673 686 l 1
 673 601 l 1
276 446 m 0
 187 446 146 385 146 255 c 0
 146 123 189 65 276 65 c 0
 363 65 407 128 407 255 c 0
 407 387 362 446 276 446 c 0
EndSplineSet
EndChar

StartChar: dcroat
Encoding: 273 273 121
Width: 583
GlyphClass: 2
Flags: MW
HStem: -10 75<232.5 292.5> 446 75<231.5 290.5 193 319> 592 74<195 406 195 406 500 577> 592 128<195 500 406 577 406 500>
VStem: 52 94<256 267 267 320 189 344> 406 94<446 592 0 592 666 720>
LayerCount: 2
Fore
SplineSet
577 592 m 1xdc
 500 592 l 1
 500 0 l 1
 430 0 l 1
 427 13 422 36 417 70 c 1
 379 17 326 -10 259 -10 c 0
 131 -10 52 90 52 256 c 2
 52 267 l 2
 52 421 127 521 259 521 c 0
 322 521 371 496 406 446 c 1
 406 592 l 1
 195 592 l 1xdc
 195 666 l 1
 406 666 l 1xec
 406 720 l 1
 500 720 l 1xdc
 500 666 l 1
 577 666 l 1xec
 577 592 l 1xdc
276 65 m 0
 363 65 407 128 407 255 c 0
 407 387 362 446 276 446 c 0
 187 446 146 385 146 255 c 0
 146 123 189 65 276 65 c 0
EndSplineSet
EndChar

StartChar: e
Encoding: 101 101 122
Width: 556
GlyphClass: 2
Flags: MW
HStem: -10 75<242 284 284 288> 234 73<147 409 147 502 145 409> 446 75<281 288 288 321>
VStem: 51 94<234 265 234 341> 409 93
AnchorPoint: "Bottom" 278 0 basechar 0
LayerCount: 2
Fore
SplineSet
281 521 m 2
 288 521 l 2
 414 521 502 437 502 305 c 2
 502 234 l 1
 145 234 l 1
 148 128 194 65 290 65 c 0
 381 65 413 130 413 190 c 1
 502 190 l 1
 502 69 413 -10 288 -10 c 2
 284 -10 l 2
 139 -10 51 91 51 245 c 2
 51 265 l 2
 51 417 139 521 281 521 c 2
283 446 m 0
 208 446 158 400 147 307 c 1
 409 307 l 1
 409 319 l 2
 409 395 359 446 283 446 c 0
EndSplineSet
EndChar

StartChar: eacute
Encoding: 233 233 123
Width: 556
GlyphClass: 2
Flags: MW
HStem: -10 75<242 284 284 288> 234 73<147 409 147 502 145 409> 446 75<281 288 288 321> 575 145<246 430 246 430>
VStem: 51 94<234 265 234 341> 409 93
LayerCount: 2
Fore
SplineSet
431 717 m 1
 315 575 l 1
 246 575 l 1
 340 720 l 1
 430 720 l 1
 431 717 l 1
281 521 m 2
 288 521 l 2
 414 521 502 437 502 305 c 2
 502 234 l 1
 145 234 l 1
 148 128 194 65 290 65 c 0
 381 65 413 130 413 190 c 1
 502 190 l 1
 502 69 413 -10 288 -10 c 2
 284 -10 l 2
 139 -10 51 91 51 245 c 2
 51 265 l 2
 51 417 139 521 281 521 c 2
283 446 m 0
 208 446 158 400 147 307 c 1
 409 307 l 1
 409 319 l 2
 409 395 359 446 283 446 c 0
EndSplineSet
EndChar

StartChar: ecaron
Encoding: 283 283 124
Width: 556
GlyphClass: 2
Flags: MW
HStem: -10 75<242 284 284 288> 234 73<147 409 147 502 145 409> 446 75<281 288 288 321> 575 145<104 318 104 240>
VStem: 51 94<234 265 234 341> 409 93
AnchorPoint: "Bottom" 278 0 basechar 0
LayerCount: 2
Fore
SplineSet
318 575 m 1
 240 575 l 1
 104 720 l 1
 184 720 l 1
 279 631 l 1
 373 720 l 1
 453 720 l 1
 318 575 l 1
281 521 m 2
 288 521 l 2
 414 521 502 437 502 305 c 2
 502 234 l 1
 145 234 l 1
 148 128 194 65 290 65 c 0
 381 65 413 130 413 190 c 1
 502 190 l 1
 502 69 413 -10 288 -10 c 2
 284 -10 l 2
 139 -10 51 91 51 245 c 2
 51 265 l 2
 51 417 139 521 281 521 c 2
283 446 m 0
 208 446 158 400 147 307 c 1
 409 307 l 1
 409 319 l 2
 409 395 359 446 283 446 c 0
EndSplineSet
EndChar

StartChar: ecircumflex
Encoding: 234 234 125
Width: 556
GlyphClass: 2
Flags: MW
HStem: -10 75<242 284 284 288> 234 73<147 409 147 502 145 409> 446 75<281 288 288 321> 575 145<108 322 108 322 244 457 244 377> 664 56<283 283>
VStem: 51 94<234 265 234 341> 409 93
LayerCount: 2
Fore
SplineSet
457 575 m 1xf6
 377 575 l 1xf6
 283 664 l 1xee
 188 575 l 1
 108 575 l 1
 244 720 l 1
 322 720 l 1
 457 575 l 1xf6
281 521 m 2
 288 521 l 2
 414 521 502 437 502 305 c 2
 502 234 l 1
 145 234 l 1
 148 128 194 65 290 65 c 0
 381 65 413 130 413 190 c 1
 502 190 l 1
 502 69 413 -10 288 -10 c 2
 284 -10 l 2
 139 -10 51 91 51 245 c 2
 51 265 l 2
 51 417 139 521 281 521 c 2
283 446 m 0
 208 446 158 400 147 307 c 1
 409 307 l 1
 409 319 l 2
 409 395 359 446 283 446 c 0
EndSplineSet
EndChar

StartChar: edieresis
Encoding: 235 235 126
Width: 556
GlyphClass: 2
Flags: MW
HStem: -10 75<242 284 284 288> 234 73<147 409 147 502 145 409> 446 75<281 288 288 321> 622 98<143 233 143 233 331 422>
VStem: 51 94<234 265 234 341> 143 90<622 720> 331 91<622 720> 409 93
LayerCount: 2
Fore
SplineSet
233 622 m 1xf6
 143 622 l 1
 143 720 l 1
 233 720 l 1
 233 622 l 1xf6
422 622 m 1
 331 622 l 1
 331 720 l 1
 422 720 l 1
 422 622 l 1
281 521 m 2
 288 521 l 2
 414 521 502 437 502 305 c 2
 502 234 l 1
 145 234 l 1
 148 128 194 65 290 65 c 0
 381 65 413 130 413 190 c 1
 502 190 l 1
 502 69 413 -10 288 -10 c 2
 284 -10 l 2
 139 -10 51 91 51 245 c 2
 51 265 l 2xf9
 51 417 139 521 281 521 c 2
283 446 m 0
 208 446 158 400 147 307 c 1
 409 307 l 1
 409 319 l 2
 409 395 359 446 283 446 c 0
EndSplineSet
EndChar

StartChar: edotaccent
Encoding: 279 279 127
Width: 556
GlyphClass: 2
Flags: MW
HStem: -10 75<242 284 284 288> 234 73<147 409 147 502 145 409> 446 75<281 288 288 321> 604 132<260 296>
VStem: 51 94<234 265 234 341> 212 132<652.5 687.5 650.5 689> 409 93
AnchorPoint: "Bottom" 278 0 basechar 0
LayerCount: 2
Fore
SplineSet
278 736 m 0
 315 736 344 706 344 669 c 0
 344 632 314 604 278 604 c 0
 242 604 212 634 212 671 c 0
 212 707 241 736 278 736 c 0
281 521 m 2
 288 521 l 2
 414 521 502 437 502 305 c 2
 502 234 l 1
 145 234 l 1
 148 128 194 65 290 65 c 0
 381 65 413 130 413 190 c 1
 502 190 l 1
 502 69 413 -10 288 -10 c 2
 284 -10 l 2
 139 -10 51 91 51 245 c 2
 51 265 l 2
 51 417 139 521 281 521 c 2
283 446 m 0
 208 446 158 400 147 307 c 1
 409 307 l 1
 409 319 l 2
 409 395 359 446 283 446 c 0
EndSplineSet
EndChar

StartChar: egrave
Encoding: 232 232 128
Width: 556
GlyphClass: 2
Flags: MW
HStem: -10 75<242 284 284 288> 234 73<147 409 147 502 145 409> 446 75<281 288 288 321> 575 145<136 320 136 250>
VStem: 51 94<234 265 234 341> 409 93
LayerCount: 2
Fore
SplineSet
320 575 m 1
 250 575 l 1
 135 717 l 1
 136 720 l 1
 225 720 l 1
 320 575 l 1
281 521 m 2
 288 521 l 2
 414 521 502 437 502 305 c 2
 502 234 l 1
 145 234 l 1
 148 128 194 65 290 65 c 0
 381 65 413 130 413 190 c 1
 502 190 l 1
 502 69 413 -10 288 -10 c 2
 284 -10 l 2
 139 -10 51 91 51 245 c 2
 51 265 l 2
 51 417 139 521 281 521 c 2
283 446 m 0
 208 446 158 400 147 307 c 1
 409 307 l 1
 409 319 l 2
 409 395 359 446 283 446 c 0
EndSplineSet
EndChar

StartChar: emacron
Encoding: 275 275 129
Width: 556
GlyphClass: 2
Flags: MW
HStem: -10 75<242 284 284 288> 234 73<147 409 147 502 145 409> 446 75<281 288 288 321> 662 74<119 437 119 437>
VStem: 51 94<234 265 234 341> 409 93
AnchorPoint: "Bottom" 278 0 basechar 0
LayerCount: 2
Fore
SplineSet
437 662 m 1
 119 662 l 1
 119 736 l 1
 437 736 l 1
 437 662 l 1
281 521 m 2
 288 521 l 2
 414 521 502 437 502 305 c 2
 502 234 l 1
 145 234 l 1
 148 128 194 65 290 65 c 0
 381 65 413 130 413 190 c 1
 502 190 l 1
 502 69 413 -10 288 -10 c 2
 284 -10 l 2
 139 -10 51 91 51 245 c 2
 51 265 l 2
 51 417 139 521 281 521 c 2
283 446 m 0
 208 446 158 400 147 307 c 1
 409 307 l 1
 409 319 l 2
 409 395 359 446 283 446 c 0
EndSplineSet
EndChar

StartChar: eogonek
Encoding: 281 281 130
Width: 556
GlyphClass: 2
Flags: MW
HStem: -143 47<353.5 375> -20 20G<361 370 370 370> -10 75<242 284 284 288 288 302> 234 73<147 409 147 502 145 409> 446 75<281 288 288 321>
VStem: 51 94<234 265 234 341> 262 62<-70.5 -57> 409 93
AnchorPoint: "Bottom" 278 0 basechar 0
LayerCount: 2
Fore
SplineSet
502 234 m 1xbf
 145 234 l 1
 148 128 194 65 290 65 c 0xbf
 381 65 413 130 413 190 c 1
 502 190 l 1
 502 94 446 25 361 0 c 1
 370 0 l 1xdf
 350 -11 324 -35 324 -58 c 0
 324 -83 339 -96 368 -96 c 0
 383 -96 405 -91 435 -82 c 1
 448 -119 l 1
 421 -135 391 -143 359 -143 c 0
 300 -143 262 -120 262 -69 c 0
 262 -45 282 -25 302 -10 c 1
 288 -10 l 1
 284 -10 l 2
 139 -10 51 91 51 245 c 2
 51 265 l 2
 51 417 139 521 281 521 c 2
 288 521 l 2
 414 521 502 437 502 305 c 2
 502 234 l 1xbf
409 307 m 1
 409 319 l 2
 409 395 359 446 283 446 c 0
 208 446 158 400 147 307 c 1
 409 307 l 1
EndSplineSet
EndChar

StartChar: f
Encoding: 102 102 131
Width: 338
GlyphClass: 2
Flags: MW
HStem: 436 75<47 103 47 103 197 316> 653 75<237.5 240.5 182.5 271.5>
VStem: 103 94<0 436 0 436 511 580 580 590>
LayerCount: 2
Fore
SplineSet
222 728 m 0
 259 728 291 722 316 709 c 1
 316 640 l 1
 295 649 278 653 265 653 c 0
 210 653 197 634 197 590 c 2
 197 511 l 1
 316 511 l 1
 316 436 l 1
 197 436 l 1
 197 0 l 1
 103 0 l 1
 103 436 l 1
 47 436 l 1
 47 511 l 1
 103 511 l 1
 103 580 l 2
 103 679 143 728 222 728 c 0
EndSplineSet
EndChar

StartChar: g
Encoding: 103 103 132
Width: 568
GlyphClass: 2
Flags: MW
HStem: -188 75<125 380 187 361> 3 90<171 421 228 393> 200 75<208 319.5 254.5 296> 446 75<284 288 288 307 284 319.5>
VStem: 36 93<-71 -39.5> 65 93<129 158.5> 78 93<331 391.5 328.5 409> 404 93<328.5 382.5 312.5 391.5> 458 93<-68 -36> 471 80<603 603>
LayerCount: 2
Fore
SplineSet
471 603 m 1xf240
 551 603 l 1xf240
 551 536 513 486 449 473 c 1
 447 470 l 1
 480 441 497 405 497 360 c 0
 497 265 422 200 296 200 c 2
 228 200 l 2
 188 200 158 177 158 145 c 0
 158 113 185 93 228 93 c 2xf5
 421 93 l 2
 501 93 551 37 551 -38 c 0
 551 -129 477 -188 361 -188 c 2
 160 -188 l 2
 90 -188 36 -125 36 -68 c 0xf880
 36 -11 67 32 111 51 c 1
 80 70 65 98 65 134 c 0xf5
 65 183 96 218 145 235 c 1
 100 260 78 302 78 360 c 0
 78 458 154 521 284 521 c 2
 288 521 l 2
 326 521 360 515 390 504 c 1
 437 527 464 560 471 603 c 1xf240
287 446 m 0
 222 446 171 423 171 360 c 0
 171 297 222 275 287 275 c 0
 352 275 404 297 404 360 c 0xf3
 404 423 352 446 287 446 c 0
393 3 m 2xf880
 187 3 l 2
 155 3 129 -23 129 -55 c 0
 129 -87 155 -113 187 -113 c 2
 380 -113 l 2
 423 -113 458 -84 458 -52 c 0
 458 -20 436 3 393 3 c 2xf880
EndSplineSet
EndChar

StartChar: gbreve
Encoding: 287 287 133
Width: 568
GlyphClass: 2
Flags: MW
HStem: -188 75<125 380 187 361> 3 90<171 421 228 393> 200 75<208 319.5 254.5 296> 446 75<284 288 288 307 284 319.5> 613 62<252.5 314.5 252.5 331.5>
VStem: 36 93<-71 -39.5> 65 93<129 158.5> 78 93<331 391.5 328.5 409> 404 93<328.5 382.5 312.5 391.5> 458 93<-68 -36> 471 80<603 603>
LayerCount: 2
Fore
SplineSet
409 737 m 1xf980
 477 737 l 1
 477 675 379 613 284 613 c 0
 187 613 92 676 92 737 c 1
 159 737 l 1
 170 701 221 675 284 675 c 0
 345 675 398 701 409 737 c 1xf980
471 603 m 1xf920
 551 603 l 1xf920
 551 536 513 486 449 473 c 1
 447 470 l 1
 480 441 497 405 497 360 c 0
 497 265 422 200 296 200 c 2
 228 200 l 2
 188 200 158 177 158 145 c 0
 158 113 185 93 228 93 c 2xfa80
 421 93 l 2
 501 93 551 37 551 -38 c 0
 551 -129 477 -188 361 -188 c 2
 160 -188 l 2
 90 -188 36 -125 36 -68 c 0xfc40
 36 -11 67 32 111 51 c 1
 80 70 65 98 65 134 c 0xfa80
 65 183 96 218 145 235 c 1
 100 260 78 302 78 360 c 0
 78 458 154 521 284 521 c 2
 288 521 l 2
 326 521 360 515 390 504 c 1
 437 527 464 560 471 603 c 1xf920
287 446 m 0
 222 446 171 423 171 360 c 0
 171 297 222 275 287 275 c 0
 352 275 404 297 404 360 c 0xf980
 404 423 352 446 287 446 c 0
393 3 m 2xfc40
 187 3 l 2
 155 3 129 -23 129 -55 c 0
 129 -87 155 -113 187 -113 c 2
 380 -113 l 2
 423 -113 458 -84 458 -52 c 0
 458 -20 436 3 393 3 c 2xfc40
EndSplineSet
EndChar

StartChar: gcommaaccent
Encoding: 291 291 134
Width: 568
GlyphClass: 2
Flags: MW
HStem: -188 75<125 380 187 361> 3 90<171 421 228 393> 200 75<208 319.5 254.5 296> 446 75<284 288 288 307 284 319.5> 591 111<294 335 294 335 234 335>
VStem: 36 93<-71 -39.5> 65 93<129 158.5> 78 93<331 391.5 328.5 409> 234 101<591 676 676 676> 404 93<328.5 382.5 312.5 391.5> 458 93<-68 -36> 471 80<603 603>
LayerCount: 2
Fore
SplineSet
234 676 m 1xf9c0
 263 801 l 1
 316 801 l 1
 294 702 l 1
 335 702 l 1
 335 591 l 1
 234 591 l 1
 234 676 l 1xf9c0
471 603 m 1xf990
 551 603 l 1xf990
 551 536 513 486 449 473 c 1
 447 470 l 1
 480 441 497 405 497 360 c 0
 497 265 422 200 296 200 c 2
 228 200 l 2
 188 200 158 177 158 145 c 0
 158 113 185 93 228 93 c 2xfac0
 421 93 l 2
 501 93 551 37 551 -38 c 0
 551 -129 477 -188 361 -188 c 2
 160 -188 l 2
 90 -188 36 -125 36 -68 c 0xfca0
 36 -11 67 32 111 51 c 1
 80 70 65 98 65 134 c 0xfac0
 65 183 96 218 145 235 c 1
 100 260 78 302 78 360 c 0
 78 458 154 521 284 521 c 2
 288 521 l 2
 326 521 360 515 390 504 c 1
 437 527 464 560 471 603 c 1xf990
287 446 m 0
 222 446 171 423 171 360 c 0
 171 297 222 275 287 275 c 0
 352 275 404 297 404 360 c 0xf9c0
 404 423 352 446 287 446 c 0
393 3 m 2xfca0
 187 3 l 2
 155 3 129 -23 129 -55 c 0
 129 -87 155 -113 187 -113 c 2
 380 -113 l 2
 423 -113 458 -84 458 -52 c 0
 458 -20 436 3 393 3 c 2xfca0
EndSplineSet
EndChar

StartChar: h
Encoding: 104 104 135
Width: 593
GlyphClass: 2
Flags: MW
HStem: 446 75<303.5 345> 700 20G<83 177 177 177>
VStem: 83 94<0 304 447 720> 421 94<0 327 327 344 0 370.5>
LayerCount: 2
Fore
SplineSet
177 720 m 1
 177 447 l 1
 219 496 272 521 335 521 c 0
 444 521 515 462 515 344 c 2
 515 0 l 1
 421 0 l 1
 421 327 l 2
 421 414 377 446 313 446 c 0
 241 446 177 383 177 304 c 2
 177 0 l 1
 83 0 l 1
 83 720 l 1
 177 720 l 1
EndSplineSet
EndChar

StartChar: i
Encoding: 105 105 136
Width: 260
GlyphClass: 2
Flags: MW
HStem: 491 20G<83 177 177 177> 633 87<81 179 81 179>
VStem: 83 94<0 511>
LayerCount: 2
Fore
SplineSet
179 633 m 1
 81 633 l 1
 81 720 l 1
 179 720 l 1
 179 633 l 1
177 0 m 1
 83 0 l 1
 83 511 l 1
 177 511 l 1
 177 0 l 1
EndSplineSet
EndChar

StartChar: dotlessi
Encoding: 305 305 137
Width: 260
GlyphClass: 2
Flags: MW
HStem: 491 20G<83 177 177 177>
VStem: 83 94<0 511>
LayerCount: 2
Fore
SplineSet
177 0 m 1
 83 0 l 1
 83 511 l 1
 177 511 l 1
 177 0 l 1
EndSplineSet
EndChar

StartChar: iacute
Encoding: 237 237 138
Width: 260
GlyphClass: 2
Flags: MW
HStem: 491 20G<83 177 177 177> 575 145<85 269 85 269>
VStem: 83 94<0 511>
LayerCount: 2
Fore
SplineSet
270 717 m 1
 154 575 l 1
 85 575 l 1
 179 720 l 1
 269 720 l 1
 270 717 l 1
177 0 m 1
 83 0 l 1
 83 511 l 1
 177 511 l 1
 177 0 l 1
EndSplineSet
EndChar

StartChar: icircumflex
Encoding: 238 238 139
Width: 260
GlyphClass: 2
Flags: MW
HStem: 491 20G<83 177 177 177> 575 145<-44 170 -44 170 92 305 92 225> 664 56<131 131>
VStem: 83 94<0 511>
LayerCount: 2
Fore
SplineSet
305 575 m 1xd0
 225 575 l 1xd0
 131 664 l 1xb0
 36 575 l 1
 -44 575 l 1
 92 720 l 1
 170 720 l 1
 305 575 l 1xd0
177 0 m 1
 83 0 l 1
 83 511 l 1
 177 511 l 1
 177 0 l 1
EndSplineSet
EndChar

StartChar: idieresis
Encoding: 239 239 140
Width: 260
GlyphClass: 2
Flags: MW
HStem: 491 20G<83 177 177 177> 622 98<-9 83 -9 83 -9 179 179 270>
VStem: -9 92<622 720> 83 94<0 511> 179 91<622 720>
LayerCount: 2
Fore
SplineSet
83 622 m 1xe8
 -9 622 l 1
 -9 720 l 1
 83 720 l 1
 83 622 l 1xe8
270 622 m 1
 179 622 l 1
 179 720 l 1
 270 720 l 1
 270 622 l 1
177 0 m 1xd0
 83 0 l 1
 83 511 l 1
 177 511 l 1
 177 0 l 1xd0
EndSplineSet
EndChar

StartChar: igrave
Encoding: 236 236 141
Width: 260
GlyphClass: 2
Flags: MW
HStem: 491 20G<83 177 177 177> 575 145<-8 176 -8 106>
VStem: 83 94<0 511>
LayerCount: 2
Fore
SplineSet
176 575 m 1
 106 575 l 1
 -9 717 l 1
 -8 720 l 1
 83 720 l 1
 176 575 l 1
177 0 m 1
 83 0 l 1
 83 511 l 1
 177 511 l 1
 177 0 l 1
EndSplineSet
EndChar

StartChar: imacron
Encoding: 299 299 142
Width: 260
GlyphClass: 2
Flags: MW
HStem: 491 20G<83 177 177 177> 662 74<-29 289 -29 289>
VStem: 83 94<0 511>
LayerCount: 2
Fore
SplineSet
289 662 m 1
 -29 662 l 1
 -29 736 l 1
 289 736 l 1
 289 662 l 1
177 0 m 1
 83 0 l 1
 83 511 l 1
 177 511 l 1
 177 0 l 1
EndSplineSet
EndChar

StartChar: iogonek
Encoding: 303 303 143
Width: 260
GlyphClass: 2
Flags: MW
HStem: -143 47<157.5 179> 491 20G<83 177 177 177> 633 87<81 179 81 179>
VStem: 66 62<-70.5 -54.5> 83 94<0 511 0 511>
LayerCount: 2
Fore
SplineSet
179 633 m 1xe8
 81 633 l 1
 81 720 l 1
 179 720 l 1
 179 633 l 1xe8
239 -82 m 1
 252 -119 l 1
 225 -135 195 -143 163 -143 c 0
 104 -143 66 -120 66 -69 c 0
 66 -40 96 -16 120 0 c 1xf0
 83 0 l 1
 83 511 l 1
 177 511 l 1
 177 0 l 1
 174 0 l 1
 154 -11 128 -35 128 -58 c 0
 128 -83 143 -96 172 -96 c 0
 187 -96 209 -91 239 -82 c 1
EndSplineSet
EndChar

StartChar: j
Encoding: 106 106 144
Width: 260
GlyphClass: 2
Flags: MW
HStem: -186 74<34.5 43 11.5 98.5> 491 20G<83 177 177 177> 633 87<81 179 81 179>
VStem: 83 94<-44 -15 -15 511>
LayerCount: 2
Fore
SplineSet
179 633 m 1
 81 633 l 1
 81 720 l 1
 179 720 l 1
 179 633 l 1
177 511 m 1
 177 -15 l 2
 177 -134 145 -186 52 -186 c 0
 17 -186 -11 -180 -34 -167 c 1
 -34 -97 l 1
 -12 -107 5 -112 18 -112 c 0
 68 -112 83 -93 83 -44 c 2
 83 511 l 1
 177 511 l 1
EndSplineSet
EndChar

StartChar: k
Encoding: 107 107 145
Width: 535
GlyphClass: 2
Flags: MW
HStem: 491 20G<405 508 508 508> 700 20G<83 177 177 177>
VStem: 83 94<0 110 226 720>
AnchorPoint: "Bottom" 268 0 basechar 0
LayerCount: 2
Fore
SplineSet
177 226 m 1
 405 511 l 1
 508 511 l 1
 311 263 l 1
 521 0 l 1
 407 0 l 1
 254 190 l 1
 177 110 l 1
 177 0 l 1
 83 0 l 1
 83 720 l 1
 177 720 l 1
 177 226 l 1
EndSplineSet
EndChar

StartChar: kcommaaccent
Encoding: 311 311 146
Width: 535
GlyphClass: 2
Flags: MW
HStem: -151 111<217 258 217 318> 491 20G<405 508 508 508> 700 20G<83 177 177 177>
VStem: 83 94<0 110 226 720> 217 101<-125 -125 -125 -40 -125 -40>
AnchorPoint: "Bottom" 268 0 basechar 0
LayerCount: 2
Fore
SplineSet
177 226 m 1
 405 511 l 1
 508 511 l 1
 311 263 l 1
 521 0 l 1
 407 0 l 1
 254 190 l 1
 177 110 l 1
 177 0 l 1
 83 0 l 1
 83 720 l 1
 177 720 l 1
 177 226 l 1
318 -125 m 1
 289 -250 l 1
 236 -250 l 1
 258 -151 l 1
 217 -151 l 1
 217 -40 l 1
 318 -40 l 1
 318 -125 l 1
EndSplineSet
EndChar

StartChar: l
Encoding: 108 108 147
Width: 268
GlyphClass: 2
Flags: MW
HStem: 700 20G<87 181 181 181>
VStem: 87 94<0 720>
AnchorPoint: "Bottom" 134 0 basechar 0
LayerCount: 2
Fore
SplineSet
181 0 m 1
 87 0 l 1
 87 720 l 1
 181 720 l 1
 181 0 l 1
EndSplineSet
EndChar

StartChar: lacute
Encoding: 314 314 148
Width: 268
GlyphClass: 2
Flags: MW
HStem: 700 20G<87 181 181 181> 750 145<81 265 81 265>
VStem: 87 94<0 720>
AnchorPoint: "Bottom" 134 0 basechar 0
LayerCount: 2
Fore
SplineSet
266 892 m 1
 150 750 l 1
 81 750 l 1
 175 895 l 1
 265 895 l 1
 266 892 l 1
181 0 m 1
 87 0 l 1
 87 720 l 1
 181 720 l 1xa0
 181 0 l 1
EndSplineSet
EndChar

StartChar: lcaron
Encoding: 318 318 149
Width: 268
GlyphClass: 2
Flags: MW
HStem: 575 111<247 288 247 348> 700 20G<87 181 181 181>
VStem: 87 94<0 720> 247 101<601 601 601 686 601 686>
AnchorPoint: "Bottom" 134 0 basechar 0
LayerCount: 2
Fore
SplineSet
181 0 m 1
 87 0 l 1
 87 720 l 1
 181 720 l 1
 181 0 l 1
348 601 m 1
 313 451 l 1
 261 451 l 1
 288 575 l 1
 247 575 l 1
 247 686 l 1
 348 686 l 1
 348 601 l 1
EndSplineSet
EndChar

StartChar: lcommaaccent
Encoding: 316 316 150
Width: 268
GlyphClass: 2
Flags: MW
HStem: -151 111<83 124 83 184> 700 20G<87 181 181 181>
VStem: 87 94<0 720>
AnchorPoint: "Bottom" 134 0 basechar 0
LayerCount: 2
Fore
SplineSet
181 0 m 1
 87 0 l 1
 87 720 l 1
 181 720 l 1
 181 0 l 1
184 -125 m 1
 155 -250 l 1
 102 -250 l 1
 124 -151 l 1
 83 -151 l 1
 83 -40 l 1
 184 -40 l 1
 184 -125 l 1
EndSplineSet
EndChar

StartChar: lslash
Encoding: 322 322 151
Width: 298
GlyphClass: 2
Flags: MW
HStem: 700 20G<102 196 196 196>
VStem: 102 94<0 322 322 322 440 720>
LayerCount: 2
Fore
SplineSet
196 440 m 1
 278 481 l 1
 278 411 l 1
 196 370 l 1
 196 0 l 1
 102 0 l 1
 102 322 l 1
 20 281 l 1
 20 351 l 1
 102 392 l 1
 102 720 l 1
 196 720 l 1
 196 440 l 1
EndSplineSet
EndChar

StartChar: m
Encoding: 109 109 152
Width: 867
GlyphClass: 2
Flags: MW
HStem: 446 75<291 327.5 596 633.5> 491 20G<83 151 151 151>
VStem: 83 94<0 304 0 511> 389 94<0 304 0 327 0 366.5> 695 94<0 327 327 344 0 366.5>
LayerCount: 2
Fore
SplineSet
622 521 m 0xb8
 726 521 789 458 789 344 c 2
 789 0 l 1
 695 0 l 1
 695 327 l 2
 695 406 664 446 603 446 c 0
 538 446 483 384 483 304 c 2
 483 0 l 1
 389 0 l 1
 389 327 l 2
 389 406 358 446 297 446 c 0xb8
 232 446 177 384 177 304 c 2
 177 0 l 1
 83 0 l 1
 83 511 l 1
 151 511 l 1x78
 164 436 l 1
 203 493 257 521 325 521 c 0
 392 521 439 493 465 436 c 1
 514 505 570 521 622 521 c 0xb8
EndSplineSet
EndChar

StartChar: n
Encoding: 110 110 153
Width: 593
GlyphClass: 2
Flags: MW
HStem: 446 75<299.5 345> 491 20G<83 151 151 151>
VStem: 83 94<0 304 0 511> 421 94<0 327 327 344 0 370.5>
AnchorPoint: "Bottom" 297 0 basechar 0
LayerCount: 2
Fore
SplineSet
335 521 m 0xb0
 444 521 515 462 515 344 c 2
 515 0 l 1
 421 0 l 1
 421 327 l 2
 421 414 377 446 313 446 c 0xb0
 241 446 177 383 177 304 c 2
 177 0 l 1
 83 0 l 1
 83 511 l 1
 151 511 l 1x70
 164 436 l 1
 207 493 264 521 335 521 c 0xb0
EndSplineSet
EndChar

StartChar: nacute
Encoding: 324 324 154
Width: 593
GlyphClass: 2
Flags: MW
HStem: 446 75<299.5 345> 491 20G<83 151 151 151> 575 145<244 428 244 428>
VStem: 83 94<0 304 0 511> 421 94<0 327 327 344 0 370.5>
AnchorPoint: "Bottom" 297 0 basechar 0
LayerCount: 2
Fore
SplineSet
429 717 m 1xb8
 313 575 l 1
 244 575 l 1
 338 720 l 1
 428 720 l 1
 429 717 l 1xb8
335 521 m 0
 444 521 515 462 515 344 c 2
 515 0 l 1
 421 0 l 1
 421 327 l 2
 421 414 377 446 313 446 c 0xb8
 241 446 177 383 177 304 c 2
 177 0 l 1
 83 0 l 1
 83 511 l 1
 151 511 l 1x78
 164 436 l 1
 207 493 264 521 335 521 c 0
EndSplineSet
EndChar

StartChar: ncaron
Encoding: 328 328 155
Width: 593
GlyphClass: 2
Flags: MW
HStem: 446 75<299.5 345> 491 20G<83 151 151 151> 575 145<123 337 123 259>
VStem: 83 94<0 304 0 511> 421 94<0 327 327 344 0 370.5>
AnchorPoint: "Bottom" 297 0 basechar 0
LayerCount: 2
Fore
SplineSet
337 575 m 1xb8
 259 575 l 1
 123 720 l 1
 203 720 l 1
 298 631 l 1
 392 720 l 1
 472 720 l 1
 337 575 l 1xb8
335 521 m 0
 444 521 515 462 515 344 c 2
 515 0 l 1
 421 0 l 1
 421 327 l 2
 421 414 377 446 313 446 c 0xb8
 241 446 177 383 177 304 c 2
 177 0 l 1
 83 0 l 1
 83 511 l 1
 151 511 l 1x78
 164 436 l 1
 207 493 264 521 335 521 c 0
EndSplineSet
EndChar

StartChar: ncommaaccent
Encoding: 326 326 156
Width: 593
GlyphClass: 2
Flags: MW
HStem: -151 111<246 287 246 347> 446 75<299.5 345> 491 20G<83 151 151 151>
VStem: 83 94<0 304 0 511> 246 101<-125 -125 -125 -40 -125 -40> 421 94<0 327 327 344 0 370.5>
AnchorPoint: "Bottom" 297 0 basechar 0
LayerCount: 2
Fore
SplineSet
335 521 m 0xdc
 444 521 515 462 515 344 c 2
 515 0 l 1
 421 0 l 1
 421 327 l 2
 421 414 377 446 313 446 c 0xdc
 241 446 177 383 177 304 c 2
 177 0 l 1
 83 0 l 1
 83 511 l 1
 151 511 l 1xbc
 164 436 l 1
 207 493 264 521 335 521 c 0xdc
347 -125 m 1
 318 -250 l 1
 265 -250 l 1
 287 -151 l 1
 246 -151 l 1
 246 -40 l 1
 347 -40 l 1
 347 -125 l 1
EndSplineSet
EndChar

StartChar: ntilde
Encoding: 241 241 157
Width: 593
GlyphClass: 2
Flags: MW
HStem: 446 75<299.5 345> 491 20G<83 151 151 151> 616 69<383.5 406.5 383.5 418.5> 650 70<201 230.5>
VStem: 83 94<0 304 0 511> 421 94<0 327 327 344 0 370.5>
LayerCount: 2
Fore
SplineSet
447 720 m 1x9c
 497 720 l 1x9c
 497 661 452 616 385 616 c 0xac
 365 616 341 619 315 627 c 0
 260 643 245 650 216 650 c 0x9c
 186 650 168 639 161 616 c 1
 111 616 l 1xac
 111 668 150 720 222 720 c 0x9c
 257 720 284 711 312 702 c 0
 349 691 375 685 392 685 c 0xac
 421 685 440 697 447 720 c 1x9c
335 521 m 0
 444 521 515 462 515 344 c 2
 515 0 l 1
 421 0 l 1
 421 327 l 2
 421 414 377 446 313 446 c 0x9c
 241 446 177 383 177 304 c 2
 177 0 l 1
 83 0 l 1
 83 511 l 1
 151 511 l 1x5c
 164 436 l 1
 207 493 264 521 335 521 c 0
EndSplineSet
EndChar

StartChar: o
Encoding: 111 111 158
Width: 574
GlyphClass: 2
Flags: MW
HStem: -10 75<241.5 330.5 241.5 359.5> 446 75<243 332.5>
VStem: 52 94<237 246 246 265 188.5 274 188.5 351.5> 428 94<246 265 265 274 160.5 322.5>
LayerCount: 2
Fore
SplineSet
287 521 m 0
 429 521 522 429 522 274 c 2
 522 237 l 2
 522 84 432 -10 287 -10 c 0
 142 -10 52 84 52 237 c 2
 52 274 l 2
 52 429 145 521 287 521 c 0
287 446 m 0
 199 446 146 385 146 265 c 2
 146 246 l 2
 146 131 196 65 287 65 c 0
 374 65 428 126 428 246 c 2
 428 265 l 2
 428 380 378 446 287 446 c 0
EndSplineSet
Substitution2: "Single Substitution lookup 5 subtable" ordmasculine
Substitution2: "'aalt' Access All Alternates lookup 0 subtable" ordmasculine
EndChar

StartChar: oacute
Encoding: 243 243 159
Width: 574
GlyphClass: 2
Flags: MW
HStem: -10 75<241.5 330.5 241.5 359.5> 446 75<243 332.5> 575 145<255 439 255 439>
VStem: 52 94<237 246 246 265 188.5 274 188.5 351.5> 428 94<246 265 265 274 160.5 322.5>
LayerCount: 2
Fore
SplineSet
440 717 m 1
 324 575 l 1
 255 575 l 1
 349 720 l 1
 439 720 l 1
 440 717 l 1
287 521 m 0
 429 521 522 429 522 274 c 2
 522 237 l 2
 522 84 432 -10 287 -10 c 0
 142 -10 52 84 52 237 c 2
 52 274 l 2
 52 429 145 521 287 521 c 0
287 446 m 0
 199 446 146 385 146 265 c 2
 146 246 l 2
 146 131 196 65 287 65 c 0
 374 65 428 126 428 246 c 2
 428 265 l 2
 428 380 378 446 287 446 c 0
EndSplineSet
EndChar

StartChar: ocircumflex
Encoding: 244 244 160
Width: 574
GlyphClass: 2
Flags: MW
HStem: -10 75<241.5 330.5 241.5 359.5> 446 75<243 332.5> 575 145<111 325 111 325 247 460 247 380> 664 56<286 286>
VStem: 52 94<237 246 246 265 188.5 274 188.5 351.5> 428 94<246 265 265 274 160.5 322.5>
LayerCount: 2
Fore
SplineSet
460 575 m 1xec
 380 575 l 1xec
 286 664 l 1xdc
 191 575 l 1
 111 575 l 1
 247 720 l 1
 325 720 l 1
 460 575 l 1xec
287 521 m 0
 429 521 522 429 522 274 c 2
 522 237 l 2
 522 84 432 -10 287 -10 c 0
 142 -10 52 84 52 237 c 2
 52 274 l 2
 52 429 145 521 287 521 c 0
287 446 m 0
 199 446 146 385 146 265 c 2
 146 246 l 2
 146 131 196 65 287 65 c 0
 374 65 428 126 428 246 c 2
 428 265 l 2
 428 380 378 446 287 446 c 0
EndSplineSet
EndChar

StartChar: odieresis
Encoding: 246 246 161
Width: 574
GlyphClass: 2
Flags: MW
HStem: -10 75<241.5 330.5 241.5 359.5> 446 75<243 332.5> 622 98<147 237 147 237 335 426>
VStem: 52 94<237 246 246 265 188.5 274 188.5 351.5> 147 90<622 720> 335 91<622 720> 428 94<246 265 265 274 160.5 322.5>
LayerCount: 2
Fore
SplineSet
237 622 m 1
 147 622 l 1
 147 720 l 1
 237 720 l 1
 237 622 l 1
426 622 m 1
 335 622 l 1
 335 720 l 1
 426 720 l 1
 426 622 l 1
287 521 m 0xf2
 429 521 522 429 522 274 c 2
 522 237 l 2
 522 84 432 -10 287 -10 c 0
 142 -10 52 84 52 237 c 2
 52 274 l 2
 52 429 145 521 287 521 c 0xf2
287 446 m 0
 199 446 146 385 146 265 c 2
 146 246 l 2
 146 131 196 65 287 65 c 0
 374 65 428 126 428 246 c 2
 428 265 l 2
 428 380 378 446 287 446 c 0
EndSplineSet
EndChar

StartChar: ograve
Encoding: 242 242 162
Width: 574
GlyphClass: 2
Flags: MW
HStem: -10 75<241.5 330.5 241.5 359.5> 446 75<243 332.5> 575 145<139 323 139 253>
VStem: 52 94<237 246 246 265 188.5 274 188.5 351.5> 428 94<246 265 265 274 160.5 322.5>
LayerCount: 2
Fore
SplineSet
323 575 m 1
 253 575 l 1
 138 717 l 1
 139 720 l 1
 228 720 l 1
 323 575 l 1
287 521 m 0
 429 521 522 429 522 274 c 2
 522 237 l 2
 522 84 432 -10 287 -10 c 0
 142 -10 52 84 52 237 c 2
 52 274 l 2
 52 429 145 521 287 521 c 0
287 446 m 0
 199 446 146 385 146 265 c 2
 146 246 l 2
 146 131 196 65 287 65 c 0
 374 65 428 126 428 246 c 2
 428 265 l 2
 428 380 378 446 287 446 c 0
EndSplineSet
EndChar

StartChar: ohungarumlaut
Encoding: 337 337 163
Width: 574
GlyphClass: 2
Flags: MW
HStem: -10 75<241.5 330.5 241.5 359.5> 446 75<243 332.5> 575 145<157 341 157 341 312 312 312 341 252 382>
VStem: 52 94<237 246 246 265 188.5 274 188.5 351.5> 428 94<246 265 265 274 160.5 322.5>
LayerCount: 2
Fore
SplineSet
342 717 m 1
 227 575 l 1
 157 575 l 1
 252 720 l 1
 341 720 l 1
 342 717 l 1
497 717 m 1
 382 575 l 1
 312 575 l 1
 406 720 l 1
 496 720 l 1
 497 717 l 1
287 521 m 0
 429 521 522 429 522 274 c 2
 522 237 l 2
 522 84 432 -10 287 -10 c 0
 142 -10 52 84 52 237 c 2
 52 274 l 2
 52 429 145 521 287 521 c 0
287 446 m 0
 199 446 146 385 146 265 c 2
 146 246 l 2
 146 131 196 65 287 65 c 0
 374 65 428 126 428 246 c 2
 428 265 l 2
 428 380 378 446 287 446 c 0
EndSplineSet
EndChar

StartChar: omacron
Encoding: 333 333 164
Width: 574
GlyphClass: 2
Flags: MW
HStem: -10 75<241.5 330.5 241.5 359.5> 446 75<243 332.5> 662 74<128 446 128 446>
VStem: 52 94<237 246 246 265 188.5 274 188.5 351.5> 428 94<246 265 265 274 160.5 322.5>
LayerCount: 2
Fore
SplineSet
446 662 m 1
 128 662 l 1
 128 736 l 1
 446 736 l 1
 446 662 l 1
287 521 m 0
 429 521 522 429 522 274 c 2
 522 237 l 2
 522 84 432 -10 287 -10 c 0
 142 -10 52 84 52 237 c 2
 52 274 l 2
 52 429 145 521 287 521 c 0
287 446 m 0
 199 446 146 385 146 265 c 2
 146 246 l 2
 146 131 196 65 287 65 c 0
 374 65 428 126 428 246 c 2
 428 265 l 2
 428 380 378 446 287 446 c 0
EndSplineSet
EndChar

StartChar: oslash
Encoding: 248 248 165
Width: 574
GlyphClass: 2
Flags: MW
HStem: -10 75<266.5 329.5 266.5 359.5> 446 75<244.5 306>
VStem: 52 94<237 246 246 265 220.5 274 220.5 351.5> 428 94<246 265 265 274 160.5 290.5>
LayerCount: 2
Fore
SplineSet
511 568 m 1
 447 466 l 1
 497 422 522 358 522 274 c 2
 522 237 l 2
 522 84 432 -10 287 -10 c 0
 242 -10 202 -1 167 17 c 1
 122 -55 l 1
 63 -55 l 1
 126 45 l 1
 77 89 52 153 52 237 c 2
 52 274 l 2
 52 429 145 521 287 521 c 0
 331 521 371 512 406 494 c 1
 452 568 l 1
 511 568 l 1
294 446 m 0
 195 446 146 381 146 265 c 2
 146 246 l 2
 146 195 156 155 175 124 c 1
 363 425 l 1
 341 439 318 446 294 446 c 0
398 388 m 1
 210 86 l 1
 231 72 254 65 279 65 c 0
 380 65 428 130 428 246 c 2
 428 265 l 2
 428 316 418 357 398 388 c 1
EndSplineSet
EndChar

StartChar: otilde
Encoding: 245 245 166
Width: 574
GlyphClass: 2
Flags: MW
HStem: -10 75<241.5 330.5 241.5 359.5> 446 75<243 332.5> 616 69<366.5 389.5 366.5 401> 650 70<184 213.5>
VStem: 52 94<237 246 246 265 188.5 274 188.5 351.5> 428 94<246 265 265 274 160.5 322.5>
LayerCount: 2
Fore
SplineSet
430 720 m 1xdc
 480 720 l 1xdc
 480 658 434 616 368 616 c 0xec
 348 616 324 619 298 627 c 0
 243 643 228 650 199 650 c 0xdc
 169 650 151 639 144 616 c 1
 94 616 l 1xec
 94 670 134 720 205 720 c 0xdc
 240 720 266 710 294 702 c 0
 330 690 358 685 375 685 c 0xec
 404 685 423 697 430 720 c 1xdc
287 521 m 0
 429 521 522 429 522 274 c 2
 522 237 l 2
 522 84 432 -10 287 -10 c 0
 142 -10 52 84 52 237 c 2
 52 274 l 2
 52 429 145 521 287 521 c 0
287 446 m 0
 199 446 146 385 146 265 c 2
 146 246 l 2
 146 131 196 65 287 65 c 0
 374 65 428 126 428 246 c 2
 428 265 l 2
 428 380 378 446 287 446 c 0
EndSplineSet
EndChar

StartChar: oe
Encoding: 339 339 167
Width: 933
GlyphClass: 2
Flags: MW
HStem: -10 75<241.5 329.5 621 661 661 665> 234 73<524 786 524 879 522 786> 446 75<243 329.5 216 332.5 658 665 665 698>
VStem: 52 94<237 246 246 265 188.5 274 188.5 351.5> 428 94<234 265 234 322.5> 786 93
LayerCount: 2
Fore
SplineSet
658 521 m 2
 665 521 l 2
 790 521 879 439 879 305 c 2
 879 234 l 1
 522 234 l 1
 525 128 571 65 667 65 c 0
 758 65 790 130 790 190 c 1
 879 190 l 1
 879 71 792 -10 665 -10 c 2
 661 -10 l 2
 581 -10 519 19 476 77 c 1
 435 19 372 -10 287 -10 c 0
 142 -10 52 84 52 237 c 2
 52 274 l 2
 52 429 145 521 287 521 c 0
 372 521 435 492 476 434 c 1
 519 492 579 521 658 521 c 2
287 446 m 0
 199 446 146 385 146 265 c 2
 146 246 l 2
 146 131 196 65 287 65 c 0
 374 65 428 126 428 246 c 2
 428 265 l 2
 428 380 378 446 287 446 c 0
660 446 m 0
 585 446 535 400 524 307 c 1
 786 307 l 1
 786 319 l 2
 786 395 736 446 660 446 c 0
EndSplineSet
EndChar

StartChar: p
Encoding: 112 112 168
Width: 583
GlyphClass: 2
Flags: MW
HStem: -10 75<292.5 351> 446 75<290.5 349.5> 491 20G<83 153 153 153>
VStem: 83 94<-181 65 -181 511> 437 94<191 244 244 255 166.5 322>
LayerCount: 2
Fore
SplineSet
324 521 m 0xd8
 453 521 531 421 531 255 c 2
 531 244 l 2
 531 89 456 -10 324 -10 c 0
 261 -10 212 15 177 65 c 1
 177 -181 l 1
 83 -181 l 1
 83 511 l 1
 153 511 l 1xb8
 156 498 161 475 166 441 c 1
 204 494 257 521 324 521 c 0xd8
307 446 m 0
 216 446 176 383 176 256 c 0
 176 124 219 65 307 65 c 0
 395 65 437 126 437 256 c 0
 437 388 392 446 307 446 c 0
EndSplineSet
EndChar

StartChar: thorn
Encoding: 254 254 169
Width: 583
GlyphClass: 2
Flags: MW
HStem: -10 75<292.5 351> 446 75<293 349.5> 700 20G<83 177 177 177>
VStem: 83 94<-181 65 455 720> 437 94<191 244 244 255 166.5 322>
LayerCount: 2
Fore
SplineSet
177 720 m 1
 177 455 l 1
 213 499 262 521 324 521 c 0
 453 521 531 421 531 255 c 2
 531 244 l 2
 531 89 456 -10 324 -10 c 0
 261 -10 212 15 177 65 c 1
 177 -181 l 1
 83 -181 l 1
 83 720 l 1
 177 720 l 1
307 446 m 0
 216 446 176 383 176 256 c 0
 176 124 219 65 307 65 c 0
 395 65 437 126 437 256 c 0
 437 388 392 446 307 446 c 0
EndSplineSet
EndChar

StartChar: q
Encoding: 113 113 170
Width: 583
GlyphClass: 2
Flags: MW
HStem: -10 75<233 290> 446 75<231.5 297 194 319.5> 491 20G<464 500 500 500>
VStem: 52 94<244 255 255 319.5 190 338> 406 94<-180 65 65 65>
LayerCount: 2
Fore
SplineSet
259 521 m 0xd8
 335 521 392 491 431 430 c 1xd8
 464 511 l 1
 500 511 l 1xb8
 500 -180 l 1
 406 -180 l 1
 406 65 l 1
 377 24 322 -10 258 -10 c 0
 126 -10 52 91 52 244 c 2
 52 255 l 2
 52 421 129 521 259 521 c 0xd8
277 446 m 0
 186 446 146 383 146 256 c 0
 146 124 189 65 277 65 c 0
 365 65 407 126 407 256 c 0
 407 388 362 446 277 446 c 0
EndSplineSet
EndChar

StartChar: r
Encoding: 114 114 171
Width: 490
GlyphClass: 2
Flags: MW
HStem: 446 75<273 301> 491 20G<83 150 150 150>
VStem: 83 94<0 305 0 511> 378 86<323 405 361 377>
AnchorPoint: "Bottom" 130 0 basechar 0
LayerCount: 2
Fore
SplineSet
313 521 m 0xb0
 412 521 464 449 464 361 c 1
 461 323 l 1
 378 323 l 1
 378 345 l 2
 378 409 323 446 279 446 c 0xb0
 215 446 177 391 177 305 c 2
 177 0 l 1
 83 0 l 1
 83 511 l 1
 150 511 l 1x70
 164 435 l 1
 176 473 233 521 313 521 c 0xb0
EndSplineSet
EndChar

StartChar: racute
Encoding: 341 341 172
Width: 490
GlyphClass: 2
Flags: MW
HStem: 446 75<273 301> 491 20G<83 150 150 150> 575 145<77 261 77 261>
VStem: 83 94<0 305 0 511> 378 86<323 405 361 377>
AnchorPoint: "Bottom" 130 0 basechar 0
LayerCount: 2
Fore
SplineSet
262 717 m 1xb8
 146 575 l 1
 77 575 l 1
 171 720 l 1
 261 720 l 1
 262 717 l 1xb8
313 521 m 0
 412 521 464 449 464 361 c 1
 461 323 l 1
 378 323 l 1
 378 345 l 2
 378 409 323 446 279 446 c 0xb8
 215 446 177 391 177 305 c 2
 177 0 l 1
 83 0 l 1
 83 511 l 1
 150 511 l 1x78
 164 435 l 1
 176 473 233 521 313 521 c 0
EndSplineSet
EndChar

StartChar: rcaron
Encoding: 345 345 173
Width: 490
GlyphClass: 2
Flags: MW
HStem: 446 75<273 301> 491 20G<83 150 150 150> 575 145<-45 169 -45 91>
VStem: 83 94<0 305 0 511> 378 86<323 405 361 377>
AnchorPoint: "Bottom" 130 0 basechar 0
LayerCount: 2
Fore
SplineSet
169 575 m 1xb8
 91 575 l 1
 -45 720 l 1
 35 720 l 1
 130 631 l 1
 224 720 l 1
 304 720 l 1
 169 575 l 1xb8
313 521 m 0
 412 521 464 449 464 361 c 1
 461 323 l 1
 378 323 l 1
 378 345 l 2
 378 409 323 446 279 446 c 0xb8
 215 446 177 391 177 305 c 2
 177 0 l 1
 83 0 l 1
 83 511 l 1
 150 511 l 1x78
 164 435 l 1
 176 473 233 521 313 521 c 0
EndSplineSet
EndChar

StartChar: rcommaaccent
Encoding: 343 343 174
Width: 490
GlyphClass: 2
Flags: MW
HStem: -151 111<79 120 79 180> 446 75<273 301> 491 20G<83 150 150 150>
VStem: 83 94<0 305 0 511> 378 86<323 405 361 377>
AnchorPoint: "Bottom" 130 0 basechar 0
LayerCount: 2
Fore
SplineSet
313 521 m 0xd8
 412 521 464 449 464 361 c 1
 461 323 l 1
 378 323 l 1
 378 345 l 2
 378 409 323 446 279 446 c 0xd8
 215 446 177 391 177 305 c 2
 177 0 l 1
 83 0 l 1
 83 511 l 1
 150 511 l 1xb8
 164 435 l 1
 176 473 233 521 313 521 c 0xd8
180 -125 m 1
 151 -250 l 1
 98 -250 l 1
 120 -151 l 1
 79 -151 l 1
 79 -40 l 1
 180 -40 l 1
 180 -125 l 1
EndSplineSet
EndChar

StartChar: s
Encoding: 115 115 175
Width: 534
GlyphClass: 2
Flags: MW
HStem: -10 75<234 253 253 268> 219.82 84.5 446 75<269 278 278 303.5>
VStem: 46 93<138 150 150 160 121.5 160> 60 94<325 401 325 416.5> 379 94<364 421.5 382 397.5> 391 94<112.5 202>
AnchorPoint: "Bottom" 267 0 basechar 0
LayerCount: 2
Fore
SplineSet
269 521 m 2xea
 278 521 l 2
 394 521 473 461 473 382 c 1
 472 364 l 1
 379 364 l 1
 379 373 l 2xec
 379 422 341 446 266 446 c 0
 191 446 154 423 154 379 c 0xea
 154 271 485 347 485 154 c 0
 485 43 406 -10 268 -10 c 2
 253 -10 l 2
 124 -10 45 54 46 138 c 2
 46 160 l 1
 139 160 l 1
 139 150 l 2xf2
 139 93 186 65 282 65 c 0
 332 65 391 89 391 136 c 0
 391 268 60 165 60 369 c 0
 60 464 140 521 269 521 c 2xea
EndSplineSet
EndChar

StartChar: sacute
Encoding: 347 347 176
Width: 534
GlyphClass: 2
Flags: MW
HStem: -10 75<234 253 253 268> 219.82 84.5 446 75<269 278 278 303.5> 575 145<214 398 214 398>
VStem: 46 93<138 150 150 160 121.5 160> 60 94<325 401 325 416.5> 379 94<364 421.5 382 397.5> 391 94<112.5 202>
AnchorPoint: "Bottom" 267 0 basechar 0
LayerCount: 2
Fore
SplineSet
399 717 m 1xf5
 283 575 l 1
 214 575 l 1
 308 720 l 1
 398 720 l 1
 399 717 l 1xf5
269 521 m 2
 278 521 l 2
 394 521 473 461 473 382 c 1
 472 364 l 1
 379 364 l 1
 379 373 l 2xf6
 379 422 341 446 266 446 c 0
 191 446 154 423 154 379 c 0xf5
 154 271 485 347 485 154 c 0
 485 43 406 -10 268 -10 c 2
 253 -10 l 2
 124 -10 45 54 46 138 c 2
 46 160 l 1
 139 160 l 1
 139 150 l 2xf9
 139 93 186 65 282 65 c 0
 332 65 391 89 391 136 c 0
 391 268 60 165 60 369 c 0
 60 464 140 521 269 521 c 2
EndSplineSet
EndChar

StartChar: scaron
Encoding: 353 353 177
Width: 534
GlyphClass: 2
Flags: MW
HStem: -10 75<234 253 253 268> 219.82 84.5 446 75<269 278 278 303.5> 575 145<91 305 91 227>
VStem: 45 94<121.5 138> 60 94<325 401 325 416.5> 379 94<364 421.5 382 397.5> 391 94<112.5 202>
LayerCount: 2
Fore
SplineSet
305 575 m 1xf5
 227 575 l 1
 91 720 l 1
 171 720 l 1
 266 631 l 1
 360 720 l 1
 440 720 l 1
 305 575 l 1xf5
269 521 m 2
 278 521 l 2
 394 521 473 461 473 382 c 1
 472 364 l 1
 379 364 l 1
 379 373 l 2xf6
 379 422 341 446 266 446 c 0
 191 446 154 423 154 379 c 0xf5
 154 271 485 347 485 154 c 0
 485 43 406 -10 268 -10 c 2
 253 -10 l 2
 124 -10 45 54 45 138 c 2
 46 160 l 1
 139 160 l 1
 139 150 l 2xf9
 139 93 186 65 282 65 c 0
 332 65 391 89 391 136 c 0
 391 268 60 165 60 369 c 0
 60 464 140 521 269 521 c 2
EndSplineSet
EndChar

StartChar: scedilla
Encoding: 351 351 178
Width: 534
GlyphClass: 2
Flags: MW
HStem: -197 51<245.5 266 233 293> -60 43<237 258 237 261> -10 75<234 253 253 268> 219.82 84.5 446 75<269 278 278 303.5>
VStem: 46 93<138 150 150 160 121.5 160> 60 94<325 401 325 416.5> 310 62<-116 -87.5> 379 94<364 421.5 382 397.5> 391 94<112.5 202>
AnchorPoint: "Bottom" 267 0 basechar 0
LayerCount: 2
Fore
SplineSet
269 521 m 2xba40
 278 521 l 2
 394 521 473 461 473 382 c 1
 472 364 l 1
 379 364 l 1
 379 373 l 2xba80
 379 422 341 446 266 446 c 0
 191 446 154 423 154 379 c 0xba40
 154 271 485 347 485 154 c 0
 485 43 406 -10 268 -10 c 2
 253 -10 l 2
 124 -10 45 54 46 138 c 2
 46 160 l 1
 139 160 l 1
 139 150 l 2xbc40
 139 93 186 65 282 65 c 0
 332 65 391 89 391 136 c 0
 391 268 60 165 60 369 c 0
 60 464 140 521 269 521 c 2xba40
237 -17 m 1xdb40
 261 -17 l 2
 335 -17 372 -47 372 -106 c 0
 372 -164 319 -197 267 -197 c 0
 224 -197 189 -190 162 -175 c 1
 171 -126 l 1
 198 -139 222 -146 244 -146 c 0
 288 -146 310 -131 310 -101 c 0
 310 -74 286 -60 258 -60 c 2
 237 -60 l 1
 237 -17 l 1xdb40
EndSplineSet
EndChar

StartChar: scommaaccent
Encoding: 537 537 179
Width: 534
GlyphClass: 2
Flags: MW
HStem: -151 111<216 257 216 317> -10 75<234 253 253 268> 219.82 84.5 446 75<269 278 278 303.5>
VStem: 46 93<138 150 150 160 121.5 160> 60 94<325 401 325 416.5> 216 101<-125 -125 -125 -40 -125 -40> 379 94<364 421.5 382 397.5> 391 94<112.5 202>
AnchorPoint: "Bottom" 267 0 basechar 0
LayerCount: 2
Fore
SplineSet
269 521 m 2x7680
 278 521 l 2
 394 521 473 461 473 382 c 1
 472 364 l 1
 379 364 l 1
 379 373 l 2xf7
 379 422 341 446 266 446 c 0
 191 446 154 423 154 379 c 0x7680
 154 271 485 347 485 154 c 0
 485 43 406 -10 268 -10 c 2
 253 -10 l 2
 124 -10 45 54 46 138 c 2
 46 160 l 1
 139 160 l 1
 139 150 l 2x7a80
 139 93 186 65 282 65 c 0
 332 65 391 89 391 136 c 0
 391 268 60 165 60 369 c 0
 60 464 140 521 269 521 c 2x7680
317 -125 m 1
 288 -250 l 1
 235 -250 l 1
 257 -151 l 1
 216 -151 l 1
 216 -40 l 1
 317 -40 l 1
 317 -125 l 1
EndSplineSet
EndChar

StartChar: germandbls
Encoding: 223 223 180
Width: 614
GlyphClass: 2
Flags: MW
HStem: 0 75<259 332 332 342 259 332> 346 74<259 324 324 332 259 324> 436 75<46 104 46 104> 653 75<289 365>
VStem: 104 94<-66 436 436 436 511 511> 448 94<509.5 573.5> 471 94<178 245.5 144.5 249.5>
LayerCount: 2
Fore
SplineSet
331 728 m 0xbc
 455 728 542 650 542 543 c 0xfc
 542 476 501 414 442 391 c 1
 444 387 l 1
 515 360 565 291 565 200 c 0
 565 89 465 0 342 0 c 2
 259 0 l 1
 259 75 l 1
 332 75 l 2
 414 75 471 142 471 214 c 0xfa
 471 285 408 346 332 346 c 2
 259 346 l 1
 259 420 l 1
 324 420 l 2xfc
 393 420 448 472 448 540 c 0
 448 607 403 653 327 653 c 0
 251 653 198 597 198 513 c 2
 198 -66 l 1
 104 -66 l 1
 104 436 l 1
 46 436 l 1
 46 511 l 1
 104 511 l 1
 106 644 204 728 331 728 c 0xbc
EndSplineSet
EndChar

StartChar: t
Encoding: 116 116 181
Width: 346
GlyphClass: 2
Flags: MW
HStem: -10 73<231 238> 436 75<43 99 43 102 193 312>
VStem: 99 94<136 436>
AnchorPoint: "Bottom" 173 0 basechar 0
LayerCount: 2
Fore
SplineSet
193 511 m 1
 312 511 l 1
 312 436 l 1
 193 436 l 1
 193 131 l 2
 193 82 212 63 250 63 c 0
 267 63 288 68 312 78 c 1
 312 8 l 1
 288 -4 257 -10 219 -10 c 0
 142 -10 99 32 99 136 c 2
 99 436 l 1
 43 436 l 1
 43 511 l 1
 102 511 l 1
 134 674 l 1
 193 674 l 1
 193 511 l 1
EndSplineSet
EndChar

StartChar: tcaron
Encoding: 357 357 182
Width: 346
GlyphClass: 2
Flags: MW
HStem: -10 73<231 238> 436 75<43 99 43 102 193 312> 451 60 575 111<325 366 325 426>
VStem: 99 94<136 436> 325 101<601 601 601 686 601 686>
AnchorPoint: "Bottom" 173 0 basechar 0
LayerCount: 2
Fore
SplineSet
426 601 m 1xdc
 391 451 l 1
 339 451 l 1xbc
 366 575 l 1
 325 575 l 1
 325 686 l 1
 426 686 l 1
 426 601 l 1xdc
193 511 m 1xdc
 312 511 l 1
 312 436 l 1
 193 436 l 1
 193 131 l 2
 193 82 212 63 250 63 c 0
 267 63 288 68 312 78 c 1
 312 8 l 1
 288 -4 257 -10 219 -10 c 0
 142 -10 99 32 99 136 c 2
 99 436 l 1
 43 436 l 1
 43 511 l 1
 102 511 l 1
 134 674 l 1
 193 674 l 1
 193 511 l 1xdc
EndSplineSet
EndChar

StartChar: tcedilla
Encoding: 355 355 183
Width: 346
GlyphClass: 2
Flags: MW
HStem: -197 51<151.5 172 139 199> -60 43<143 164 143 167> -10 73<231 238> 436 75<43 99 43 102 193 312>
VStem: 99 94<136 436> 143 169<-60 78 -17 78> 216 62<-116 -87.5>
AnchorPoint: "Bottom" 173 0 basechar 0
LayerCount: 2
Fore
SplineSet
193 511 m 1xd8
 312 511 l 1
 312 436 l 1
 193 436 l 1
 193 131 l 2
 193 82 212 63 250 63 c 0xb8
 267 63 288 68 312 78 c 1
 312 8 l 1xb4
 288 -4 257 -10 219 -10 c 0xb8
 142 -10 99 32 99 136 c 2
 99 436 l 1
 43 436 l 1
 43 511 l 1
 102 511 l 1
 134 674 l 1
 193 674 l 1
 193 511 l 1xd8
143 -17 m 1xd4
 167 -17 l 2
 241 -17 278 -47 278 -106 c 0
 278 -164 225 -197 173 -197 c 0
 130 -197 95 -190 68 -175 c 1
 77 -126 l 1
 104 -139 128 -146 150 -146 c 0
 194 -146 216 -131 216 -101 c 0
 216 -74 192 -60 164 -60 c 2xda
 143 -60 l 1
 143 -17 l 1xd4
EndSplineSet
EndChar

StartChar: tcommaaccent
Encoding: 539 539 184
Width: 346
GlyphClass: 2
Flags: MW
HStem: -151 111<122 163 122 223> -10 73<231 238> 436 75<43 99 43 102 193 312>
VStem: 99 94<136 436> 122 101<-125 -125 -125 -40 -125 -40>
AnchorPoint: "Bottom" 173 0 basechar 0
LayerCount: 2
Fore
SplineSet
193 511 m 1xb0
 312 511 l 1
 312 436 l 1
 193 436 l 1
 193 131 l 2
 193 82 212 63 250 63 c 0
 267 63 288 68 312 78 c 1
 312 8 l 1
 288 -4 257 -10 219 -10 c 0xf0
 142 -10 99 32 99 136 c 2
 99 436 l 1
 43 436 l 1
 43 511 l 1
 102 511 l 1
 134 674 l 1
 193 674 l 1
 193 511 l 1xb0
223 -125 m 1xa8
 194 -250 l 1
 141 -250 l 1
 163 -151 l 1
 122 -151 l 1
 122 -40 l 1
 223 -40 l 1
 223 -125 l 1xa8
EndSplineSet
EndChar

StartChar: u
Encoding: 117 117 185
Width: 618
GlyphClass: 2
Flags: MW
HStem: -10 75<248 291.5 530.5 531> 491 20G<78 172 172 172 416 510 510 510>
VStem: 78 94<167 184 184 511> 416 94<207 511>
LayerCount: 2
Fore
SplineSet
510 511 m 1
 510 100 l 2
 510 75 523 65 538 65 c 0
 553 65 568 70 583 79 c 1
 583 10 l 1
 563 -3 542 -10 520 -10 c 0
 442 -10 423 27 421 74 c 1
 386 23 329 -10 254 -10 c 0
 156 -10 78 48 78 167 c 2
 78 511 l 1
 172 511 l 1
 172 184 l 2
 172 97 216 65 280 65 c 0
 351 65 416 127 416 207 c 2
 416 511 l 1
 510 511 l 1
EndSplineSet
EndChar

StartChar: uacute
Encoding: 250 250 186
Width: 618
GlyphClass: 2
Flags: MW
HStem: -10 75<248 291.5 530.5 531> 491 20G<78 172 172 172 416 510 510 510> 575 145<259 443 259 443>
VStem: 78 94<167 184 184 511> 416 94<207 511>
LayerCount: 2
Fore
SplineSet
444 717 m 1
 328 575 l 1
 259 575 l 1
 353 720 l 1
 443 720 l 1
 444 717 l 1
510 511 m 1
 510 100 l 2
 510 75 523 65 538 65 c 0
 553 65 568 70 583 79 c 1
 583 10 l 1
 563 -3 542 -10 520 -10 c 0
 442 -10 423 27 421 74 c 1
 386 23 329 -10 254 -10 c 0
 156 -10 78 48 78 167 c 2
 78 511 l 1
 172 511 l 1
 172 184 l 2
 172 97 216 65 280 65 c 0
 351 65 416 127 416 207 c 2
 416 511 l 1
 510 511 l 1
EndSplineSet
EndChar

StartChar: ucircumflex
Encoding: 251 251 187
Width: 618
GlyphClass: 2
Flags: MW
HStem: -10 75<248 291.5 530.5 531> 491 20G<78 172 172 172 416 510 510 510> 575 145<117 331 117 331 253 466 253 386> 664 56<292 292>
VStem: 78 94<167 184 184 511> 416 94<207 511>
LayerCount: 2
Fore
SplineSet
466 575 m 1xec
 386 575 l 1xec
 292 664 l 1xdc
 197 575 l 1
 117 575 l 1
 253 720 l 1
 331 720 l 1
 466 575 l 1xec
510 511 m 1
 510 100 l 2
 510 75 523 65 538 65 c 0
 553 65 568 70 583 79 c 1
 583 10 l 1
 563 -3 542 -10 520 -10 c 0
 442 -10 423 27 421 74 c 1
 386 23 329 -10 254 -10 c 0
 156 -10 78 48 78 167 c 2
 78 511 l 1
 172 511 l 1
 172 184 l 2
 172 97 216 65 280 65 c 0
 351 65 416 127 416 207 c 2
 416 511 l 1
 510 511 l 1
EndSplineSet
EndChar

StartChar: udieresis
Encoding: 252 252 188
Width: 618
GlyphClass: 2
Flags: MW
HStem: -10 75<248 291.5 530.5 531> 491 20G<78 172 172 172 416 510 510 510> 622 98<155 245 155 245 343 434>
VStem: 78 94<167 184 184 511> 155 90<622 720> 343 91<622 720> 416 94<207 511>
LayerCount: 2
Fore
SplineSet
245 622 m 1xec
 155 622 l 1
 155 720 l 1
 245 720 l 1
 245 622 l 1xec
434 622 m 1
 343 622 l 1
 343 720 l 1
 434 720 l 1
 434 622 l 1
510 511 m 1xf2
 510 100 l 2
 510 75 523 65 538 65 c 0
 553 65 568 70 583 79 c 1
 583 10 l 1
 563 -3 542 -10 520 -10 c 0
 442 -10 423 27 421 74 c 1
 386 23 329 -10 254 -10 c 0
 156 -10 78 48 78 167 c 2
 78 511 l 1
 172 511 l 1
 172 184 l 2
 172 97 216 65 280 65 c 0
 351 65 416 127 416 207 c 2
 416 511 l 1
 510 511 l 1xf2
EndSplineSet
EndChar

StartChar: ugrave
Encoding: 249 249 189
Width: 618
GlyphClass: 2
Flags: MW
HStem: -10 75<248 291.5 530.5 531> 491 20G<78 172 172 172 416 510 510 510> 575 145<154 338 154 268>
VStem: 78 94<167 184 184 511> 416 94<207 511>
LayerCount: 2
Fore
SplineSet
338 575 m 1
 268 575 l 1
 153 717 l 1
 154 720 l 1
 243 720 l 1
 338 575 l 1
510 511 m 1
 510 100 l 2
 510 75 523 65 538 65 c 0
 553 65 568 70 583 79 c 1
 583 10 l 1
 563 -3 542 -10 520 -10 c 0
 442 -10 423 27 421 74 c 1
 386 23 329 -10 254 -10 c 0
 156 -10 78 48 78 167 c 2
 78 511 l 1
 172 511 l 1
 172 184 l 2
 172 97 216 65 280 65 c 0
 351 65 416 127 416 207 c 2
 416 511 l 1
 510 511 l 1
EndSplineSet
EndChar

StartChar: uhungarumlaut
Encoding: 369 369 190
Width: 618
GlyphClass: 2
Flags: MW
HStem: -10 75<248 291.5 530.5 531> 491 20G<78 172 172 172 416 510 510 510> 575 145<179 363 179 363 334 334 334 363 274 404>
VStem: 78 94<167 184 184 511> 416 94<207 511>
LayerCount: 2
Fore
SplineSet
364 717 m 1
 249 575 l 1
 179 575 l 1
 274 720 l 1
 363 720 l 1
 364 717 l 1
519 717 m 1
 404 575 l 1
 334 575 l 1
 428 720 l 1
 518 720 l 1
 519 717 l 1
510 511 m 1
 510 100 l 2
 510 75 523 65 538 65 c 0
 553 65 568 70 583 79 c 1
 583 10 l 1
 563 -3 542 -10 520 -10 c 0
 442 -10 423 27 421 74 c 1
 386 23 329 -10 254 -10 c 0
 156 -10 78 48 78 167 c 2
 78 511 l 1
 172 511 l 1
 172 184 l 2
 172 97 216 65 280 65 c 0
 351 65 416 127 416 207 c 2
 416 511 l 1
 510 511 l 1
EndSplineSet
EndChar

StartChar: umacron
Encoding: 363 363 191
Width: 618
GlyphClass: 2
Flags: MW
HStem: -10 75<248 291.5 530.5 531> 491 20G<78 172 172 172 416 510 510 510> 662 74<150 468 150 468>
VStem: 78 94<167 184 184 511> 416 94<207 511>
LayerCount: 2
Fore
SplineSet
468 662 m 1
 150 662 l 1
 150 736 l 1
 468 736 l 1
 468 662 l 1
510 511 m 1
 510 100 l 2
 510 75 523 65 538 65 c 0
 553 65 568 70 583 79 c 1
 583 10 l 1
 563 -3 542 -10 520 -10 c 0
 442 -10 423 27 421 74 c 1
 386 23 329 -10 254 -10 c 0
 156 -10 78 48 78 167 c 2
 78 511 l 1
 172 511 l 1
 172 184 l 2
 172 97 216 65 280 65 c 0
 351 65 416 127 416 207 c 2
 416 511 l 1
 510 511 l 1
EndSplineSet
EndChar

StartChar: uogonek
Encoding: 371 371 192
Width: 618
GlyphClass: 2
Flags: MW
HStem: -143 47<539.5 561> -10 75<248 291.5> 491 20G<78 172 172 172 416 510 510 510>
VStem: 78 94<167 184 184 511> 416 94<207 511>
LayerCount: 2
Fore
SplineSet
621 -82 m 1
 634 -119 l 1
 607 -135 577 -143 545 -143 c 0
 486 -143 448 -120 448 -69 c 0
 448 -44 470 -23 491 -8 c 1
 437 1 423 34 421 74 c 1
 386 23 329 -10 254 -10 c 0
 156 -10 78 48 78 167 c 2
 78 511 l 1
 172 511 l 1
 172 184 l 2
 172 97 216 65 280 65 c 0
 351 65 416 127 416 207 c 2
 416 511 l 1
 510 511 l 1
 510 100 l 2
 510 75 523 65 538 65 c 0
 553 65 568 70 583 79 c 1
 583 10 l 1
 571 2 558 -4 545 -7 c 1
 528 -19 510 -39 510 -58 c 0
 510 -83 525 -96 554 -96 c 0
 569 -96 591 -91 621 -82 c 1
EndSplineSet
EndChar

StartChar: uring
Encoding: 367 367 193
Width: 618
GlyphClass: 2
Flags: MW
HStem: -10 75<248 291.5 530.5 531> 491 20G<78 172 172 172 416 510 510 510> 545 47<293.5 324.5 293.5 337> 699 47<293.5 324.5>
VStem: 78 94<167 184 184 511> 208 45<629.5 660.5 629.5 673> 365 45<630.5 660.5> 416 94<207 511>
LayerCount: 2
Fore
SplineSet
309 746 m 0
 359 746 410 703 410 645 c 0
 410 590 365 545 309 545 c 0
 256 545 208 588 208 645 c 0
 208 701 253 746 309 746 c 0
309 699 m 0
 278 699 253 676 253 645 c 0
 253 614 278 592 309 592 c 0
 340 592 365 615 365 646 c 0
 365 675 340 699 309 699 c 0
510 511 m 1xfd
 510 100 l 2
 510 75 523 65 538 65 c 0
 553 65 568 70 583 79 c 1
 583 10 l 1
 563 -3 542 -10 520 -10 c 0
 442 -10 423 27 421 74 c 1
 386 23 329 -10 254 -10 c 0
 156 -10 78 48 78 167 c 2
 78 511 l 1
 172 511 l 1
 172 184 l 2
 172 97 216 65 280 65 c 0
 351 65 416 127 416 207 c 2
 416 511 l 1
 510 511 l 1xfd
EndSplineSet
EndChar

StartChar: v
Encoding: 118 118 194
Width: 512
GlyphClass: 2
Flags: MW
HStem: 0 120<258 262 258 306 206 262> 491 20G<12 112 112 112 408 500 500 500>
VStem: 12 488<511 511>
LayerCount: 2
Fore
SplineSet
306 0 m 1
 206 0 l 1
 12 511 l 1
 112 511 l 1
 258 120 l 1
 262 120 l 1
 408 511 l 1
 500 511 l 1
 306 0 l 1
EndSplineSet
EndChar

StartChar: w
Encoding: 119 119 195
Width: 811
GlyphClass: 2
Flags: MW
HStem: 0 137<236 240 236 286 188 240 572 576> 357 154<402 406 402 402> 491 20G<20 117 117 117 361 453 453 453 697 789 789 789>
VStem: 20 769<511 511>
LayerCount: 2
Fore
SplineSet
622 0 m 1xb0
 524 0 l 1
 406 357 l 1
 402 357 l 1xd0
 286 0 l 1
 188 0 l 1
 20 511 l 1
 117 511 l 1
 236 137 l 1
 240 137 l 1
 361 511 l 1
 453 511 l 1
 572 137 l 1
 576 137 l 1
 697 511 l 1
 789 511 l 1
 622 0 l 1xb0
EndSplineSet
EndChar

StartChar: x
Encoding: 120 120 196
Width: 519
GlyphClass: 2
Flags: MW
HStem: 491 20G<28 140 140 140 389 492 492 492>
VStem: 18 483<0 0>
LayerCount: 2
Fore
SplineSet
313 265 m 1
 501 0 l 1
 389 0 l 1
 256 187 l 1
 121 0 l 1
 18 0 l 1
 206 259 l 1
 28 511 l 1
 140 511 l 1
 263 337 l 1
 389 511 l 1
 492 511 l 1
 313 265 l 1
EndSplineSet
EndChar

StartChar: y
Encoding: 121 121 197
Width: 512
GlyphClass: 2
Flags: MW
HStem: -186 77<104 125 90.5 155> 491 20G<12 112 112 112 408 500 500 500>
VStem: 12 488<511 511>
LayerCount: 2
Fore
SplineSet
500 511 m 1
 309 20 l 2
 240 -151 193 -186 117 -186 c 0
 91 -186 68 -181 47 -172 c 1
 47 -95 l 1
 68 -104 84 -109 97 -109 c 0
 153 -109 187 -72 211 5 c 1
 12 511 l 1
 112 511 l 1
 259 134 l 1
 263 134 l 1
 408 511 l 1
 500 511 l 1
EndSplineSet
EndChar

StartChar: yacute
Encoding: 253 253 198
Width: 512
GlyphClass: 2
Flags: MW
HStem: -186 77<104 125 90.5 155> 491 20G<12 112 112 112 408 500 500 500> 575 145<222 406 222 406>
VStem: 12 488<511 511>
LayerCount: 2
Fore
SplineSet
407 717 m 1
 291 575 l 1
 222 575 l 1
 316 720 l 1
 406 720 l 1
 407 717 l 1
500 511 m 1
 309 20 l 2
 240 -151 193 -186 117 -186 c 0
 91 -186 68 -181 47 -172 c 1
 47 -95 l 1
 68 -104 84 -109 97 -109 c 0
 153 -109 187 -72 211 5 c 1
 12 511 l 1
 112 511 l 1
 259 134 l 1
 263 134 l 1
 408 511 l 1
 500 511 l 1
EndSplineSet
EndChar

StartChar: ydieresis
Encoding: 255 255 199
Width: 512
GlyphClass: 2
Flags: MW
HStem: -186 77<104 125 90.5 155> 491 20G<12 112 112 112 408 500 500 500> 622 98<120 210 120 210 308 399>
VStem: 120 90<622 720> 308 91<622 720>
LayerCount: 2
Fore
SplineSet
210 622 m 1
 120 622 l 1
 120 720 l 1
 210 720 l 1
 210 622 l 1
399 622 m 1
 308 622 l 1
 308 720 l 1
 399 720 l 1
 399 622 l 1
500 511 m 1
 309 20 l 2
 240 -151 193 -186 117 -186 c 0
 91 -186 68 -181 47 -172 c 1
 47 -95 l 1
 68 -104 84 -109 97 -109 c 0
 153 -109 187 -72 211 5 c 1
 12 511 l 1
 112 511 l 1
 259 134 l 1
 263 134 l 1
 408 511 l 1
 500 511 l 1
EndSplineSet
EndChar

StartChar: z
Encoding: 122 122 200
Width: 463
GlyphClass: 2
Flags: MW
HStem: 0 75<165 423 165 423> 436 75<51 285 51 415>
VStem: 36 387<0 38 38 38>
LayerCount: 2
Fore
SplineSet
415 474 m 1
 165 75 l 1
 423 75 l 1
 423 0 l 1
 36 0 l 1
 36 38 l 1
 285 436 l 1
 51 436 l 1
 51 511 l 1
 415 511 l 1
 415 474 l 1
EndSplineSet
EndChar

StartChar: zacute
Encoding: 378 378 201
Width: 463
GlyphClass: 2
Flags: MW
HStem: 0 75<165 423 165 423> 436 75<51 285 51 415> 575 145<179 363 179 363>
VStem: 36 387<0 38 38 38>
LayerCount: 2
Fore
SplineSet
364 717 m 1
 248 575 l 1
 179 575 l 1
 273 720 l 1
 363 720 l 1
 364 717 l 1
415 474 m 1
 165 75 l 1
 423 75 l 1
 423 0 l 1
 36 0 l 1
 36 38 l 1
 285 436 l 1
 51 436 l 1
 51 511 l 1
 415 511 l 1
 415 474 l 1
EndSplineSet
EndChar

StartChar: zcaron
Encoding: 382 382 202
Width: 463
GlyphClass: 2
Flags: MW
HStem: 0 75<165 423 165 423> 436 75<51 285 51 415> 575 145<57 271 57 193>
VStem: 36 387<0 38 38 38>
LayerCount: 2
Fore
SplineSet
271 575 m 1
 193 575 l 1
 57 720 l 1
 137 720 l 1
 232 631 l 1
 326 720 l 1
 406 720 l 1
 271 575 l 1
415 474 m 1
 165 75 l 1
 423 75 l 1
 423 0 l 1
 36 0 l 1
 36 38 l 1
 285 436 l 1
 51 436 l 1
 51 511 l 1
 415 511 l 1
 415 474 l 1
EndSplineSet
EndChar

StartChar: zdotaccent
Encoding: 380 380 203
Width: 463
GlyphClass: 2
Flags: MW
HStem: 0 75<165 423 165 423> 436 75<51 285 51 415> 604 132<214 250>
VStem: 166 132<652.5 687.5 650.5 689>
LayerCount: 2
Fore
SplineSet
232 736 m 0
 269 736 298 706 298 669 c 0
 298 632 268 604 232 604 c 0
 196 604 166 634 166 671 c 0
 166 707 195 736 232 736 c 0
415 474 m 1
 165 75 l 1
 423 75 l 1
 423 0 l 1
 36 0 l 1
 36 38 l 1
 285 436 l 1
 51 436 l 1
 51 511 l 1
 415 511 l 1
 415 474 l 1
EndSplineSet
EndChar

StartChar: fi
Encoding: 64257 64257 204
Width: 601
GlyphClass: 3
Flags: MW
HStem: 436 75<47 103 47 103 197 316> 633 87<424 522 424 522> 653 75<237.5 240.5 182.5 271.5>
VStem: 103 94<0 436 0 436 511 580 580 590> 426 94<0 511>
LayerCount: 2
Fore
SplineSet
222 728 m 0xb8
 259 728 291 722 316 709 c 1
 316 640 l 1
 295 649 278 653 265 653 c 0
 210 653 197 634 197 590 c 2
 197 511 l 1
 316 511 l 1
 316 436 l 1
 197 436 l 1
 197 0 l 1
 103 0 l 1
 103 436 l 1
 47 436 l 1
 47 511 l 1
 103 511 l 1
 103 580 l 2
 103 679 143 728 222 728 c 0xb8
522 633 m 1xd8
 424 633 l 1
 424 720 l 1
 522 720 l 1
 522 633 l 1xd8
520 0 m 1
 426 0 l 1
 426 511 l 1
 520 511 l 1
 520 0 l 1
EndSplineSet
Ligature2: "'liga' Standard Ligatures lookup 4 subtable" f i
EndChar

StartChar: fl
Encoding: 64258 64258 205
Width: 607
GlyphClass: 3
Flags: MW
HStem: 436 75<47 103 47 103 197 316> 653 75<237.5 240.5 182.5 271.5> 700 20G<426 520 520 520>
VStem: 103 94<0 436 0 436 511 580 580 590> 426 94<0 720>
LayerCount: 2
Fore
SplineSet
222 728 m 0xd8
 259 728 291 722 316 709 c 1
 316 640 l 1
 295 649 278 653 265 653 c 0
 210 653 197 634 197 590 c 2
 197 511 l 1
 316 511 l 1
 316 436 l 1
 197 436 l 1
 197 0 l 1
 103 0 l 1
 103 436 l 1
 47 436 l 1
 47 511 l 1
 103 511 l 1
 103 580 l 2
 103 679 143 728 222 728 c 0xd8
520 0 m 1
 426 0 l 1
 426 720 l 1
 520 720 l 1xb8
 520 0 l 1
EndSplineSet
Ligature2: "'liga' Standard Ligatures lookup 4 subtable" f l
EndChar

StartChar: ordfeminine
Encoding: 170 170 206
Width: 415
GlyphClass: 2
Flags: MW
HStem: 373 46<155 180.5> 522 44<215.5 263> 650 46<193 198 198 215.5>
VStem: 55 57<447.5 488.5 447.5 501.5> 65 57<594 634.5> 263 57<509 522 522 522 566 594 594 601>
LayerCount: 2
Fore
SplineSet
193 696 m 2xf4
 198 696 l 2
 279 696 320 664 320 601 c 2
 320 440 l 2
 320 425 329 419 338 419 c 0
 343 419 352 422 365 427 c 1
 365 385 l 1
 349 377 334 373 319 373 c 0
 286 373 268 392 265 429 c 1
 240 392 204 373 157 373 c 0
 89 373 55 403 55 462 c 0xf4
 55 541 109 566 263 566 c 1
 263 594 l 2
 263 631 239 650 192 650 c 0
 150 650 122 633 122 602 c 2
 122 594 l 1
 67 594 l 1
 66 599 65 604 65 608 c 0xec
 65 661 118 696 193 696 c 2xf4
263 509 m 2
 263 522 l 1
 168 522 112 512 112 465 c 0
 112 430 133 419 177 419 c 0
 220 419 263 452 263 509 c 2
EndSplineSet
EndChar

StartChar: ordmasculine
Encoding: 186 186 207
Width: 392
GlyphClass: 2
Flags: MW
HStem: 373 46<172.5 219.5 172.5 239> 650 46<172.5 219.5>
VStem: 53 57<523 529 529 540 489.5 546 489.5 593> 282 57<529 540 540 546 475 579.5>
LayerCount: 2
Fore
SplineSet
196 696 m 0
 285 696 339 640 339 546 c 2
 339 523 l 2
 339 427 282 373 196 373 c 0
 110 373 53 427 53 523 c 2
 53 546 l 2
 53 640 107 696 196 696 c 0
196 650 m 0
 149 650 110 619 110 540 c 2
 110 529 l 2
 110 450 149 419 196 419 c 0
 243 419 282 450 282 529 c 2
 282 540 l 2
 282 619 243 650 196 650 c 0
EndSplineSet
EndChar

StartChar: Delta
Encoding: 916 916 208
Width: 622
GlyphClass: 2
Flags: MW
HStem: 0 65<113 509 25 25> 597 89<311 311> 666 20G<259 362 362 362>
VStem: 25 572<0 65 0 65>
LayerCount: 2
Fore
SplineSet
597 65 m 1xb0
 597 0 l 1
 25 0 l 1
 25 65 l 1
 259 686 l 1
 362 686 l 1
 597 65 l 1xb0
113 65 m 1
 509 65 l 1
 311 597 l 1xd0
 113 65 l 1
EndSplineSet
EndChar

StartChar: Omega
Encoding: 937 937 209
Width: 699
GlyphClass: 2
Flags: MW
HStem: 0 90<45 80 45 309 45 80 620 655> 608 87<342 359 359 409.5>
VStem: 45 264<0 49 0 90 0 90> 67 104<345 370 370 375 217 474.5> 391 264<0 49 49 49> 531 104<297 337 337 370 280.5 375 280.5 458.5>
LayerCount: 2
Fore
SplineSet
342 695 m 2xd4
 359 695 l 2
 527 695 635 588 635 370 c 2
 635 337 l 2
 635 224 602 139 536 80 c 1
 564 83 592 86 620 90 c 1xd4
 655 90 l 1
 655 0 l 1
 391 0 l 1xd8
 391 49 l 1
 484 66 531 134 531 297 c 2
 531 375 l 2
 531 542 470 608 349 608 c 0
 233 608 171 540 171 375 c 2
 171 297 l 2xd4
 171 137 216 69 309 49 c 1
 309 0 l 1
 45 0 l 1
 45 90 l 1
 80 90 l 1xe4
 107 86 132 84 165 80 c 1
 100 135 67 224 67 345 c 2
 67 370 l 2
 67 579 169 695 342 695 c 2xd4
EndSplineSet
Position2: "'cpsp' Capital Spacing lookup 0 subtable" dx=5 dy=0 dh=10 dv=0
EndChar

StartChar: mu
Encoding: 956 956 210
Width: 612
GlyphClass: 2
Flags: MW
HStem: -10 75<252 298 534.5 535> 491 20G<82 176 176 176 420 514 514 514>
VStem: 82 94<-161 -32 140.5 184 184 511> 420 94<207 511>
LayerCount: 2
Fore
SplineSet
514 511 m 1
 514 100 l 2
 514 75 527 65 542 65 c 0
 557 65 572 70 587 79 c 1
 587 10 l 1
 567 -3 546 -10 524 -10 c 0
 446 -10 427 27 425 74 c 1
 392 25 332 -10 264 -10 c 0
 229 -10 197 -2 170 15 c 1
 176 -32 l 1
 176 -161 l 1
 82 -161 l 1
 82 511 l 1
 176 511 l 1
 176 184 l 2
 176 97 220 65 284 65 c 0
 355 65 420 127 420 207 c 2
 420 511 l 1
 514 511 l 1
EndSplineSet
EndChar

StartChar: pi
Encoding: 960 960 211
Width: 628
GlyphClass: 2
Flags: MW
HStem: 437 74<124.5 604 243 417 243 243 508 595 508 508>
VStem: 152 91<437 437> 417 91<143 152 152 437>
LayerCount: 2
Fore
SplineSet
595 437 m 1
 508 437 l 1
 508 152 l 2
 508 82 513 31 523 0 c 1
 434 0 l 1
 423 17 417 65 417 143 c 2
 417 437 l 1
 243 437 l 1
 238 318 222 201 196 87 c 0
 188 50 180 21 171 0 c 1
 81 0 l 1
 115 94 146 254 152 437 c 1
 97 437 57 433 33 425 c 1
 20 482 l 1
 47 501 101 511 181 511 c 2
 604 511 l 1
 595 437 l 1
EndSplineSet
EndChar

StartChar: zero
Encoding: 48 48 212
Width: 615
Flags: MW
HStem: -10 89<269 300 300 313> 607 89<300 313 313 347>
VStem: 71 98<221 464 464 472> 445 98<214 221 221 464>
LayerCount: 2
Fore
SplineSet
300 696 m 2
 313 696 l 2
 439 696 543 600 543 464 c 2
 543 221 l 2
 543 90 446 -10 313 -10 c 2
 300 -10 l 2
 165 -10 71 92 71 221 c 2
 71 464 l 2
 71 600 172 696 300 696 c 2
307 607 m 0
 231 607 169 551 169 472 c 2
 169 214 l 2
 169 135 231 79 307 79 c 0
 387 79 445 138 445 214 c 2
 445 472 l 2
 445 548 387 607 307 607 c 0
EndSplineSet
EndChar

StartChar: one
Encoding: 49 49 213
Width: 615
Flags: MW
HStem: 0 89<99 279 377 557 99 279> 555 64<97 279 97 97> 666 20G<339 377 377 377>
VStem: 279 98<89 555 555 555>
LayerCount: 2
Fore
SplineSet
377 89 m 1
 557 89 l 1
 557 0 l 1
 99 0 l 1
 99 89 l 1
 279 89 l 1
 279 555 l 1
 97 555 l 1
 97 619 l 1
 175 627 256 649 339 686 c 1
 377 686 l 1
 377 89 l 1
EndSplineSet
Substitution2: "'sups' Superscript lookup 1 subtable" onesuperior
Substitution2: "'aalt' Access All Alternates lookup 0 subtable" onesuperior
EndChar

StartChar: two
Encoding: 50 50 214
Width: 615
Flags: MW
HStem: 0 89<177 541 177 541> 607 89<268 353.5>
VStem: 70 98<459 461 461 467 467 475 459 521.5> 440 98<465 519.5>
LayerCount: 2
Fore
SplineSet
316 696 m 0
 467 696 538 592 538 495 c 0
 538 392 493 341 416 282 c 2
 225 136 l 2
 192 113 177 96 177 89 c 1
 541 89 l 1
 541 0 l 1
 70 0 l 1
 70 24 l 2
 70 92 104 157 163 201 c 2
 362 351 l 2
 420 397 440 439 440 491 c 0
 440 548 396 607 311 607 c 0
 225 607 168 547 168 475 c 2
 168 461 l 2
 168 457 168 453 169 449 c 1
 71 449 l 1
 70 454 70 457 70 459 c 2
 70 467 l 2
 70 576 139 696 316 696 c 0
EndSplineSet
Substitution2: "'sups' Superscript lookup 1 subtable" twosuperior
Substitution2: "'aalt' Access All Alternates lookup 0 subtable" twosuperior
EndChar

StartChar: three
Encoding: 51 51 215
Width: 615
Flags: MW
HStem: -10 89<253 296 296 308> 304 90<220 295 220 297> 607 89<299 308 308 338.5>
VStem: 58 98<194 202 154.5 202> 74 98<492 501 492 510 492 566.5> 433 98<469.5 537> 449 98<154.5 230>
LayerCount: 2
Fore
SplineSet
299 696 m 2xf2
 308 696 l 2
 441 696 531 617 531 510 c 0xf4
 531 429 485 385 422 356 c 1
 423 353 l 1
 495 330 547 276 547 184 c 0
 547 70 444 -10 308 -10 c 2
 296 -10 l 2
 152 -10 58 67 58 194 c 2
 58 202 l 1
 156 202 l 1
 156 191 l 2
 156 118 207 79 299 79 c 0
 390 79 449 115 449 194 c 0xf2
 449 266 399 304 295 304 c 2
 220 304 l 1
 220 394 l 1
 297 394 l 2
 375 394 433 430 433 502 c 0
 433 572 378 607 299 607 c 0
 225 607 172 570 172 501 c 2
 172 492 l 1
 74 492 l 1
 74 510 l 2xec
 74 623 173 696 299 696 c 2xf2
EndSplineSet
Substitution2: "'sups' Superscript lookup 1 subtable" threesuperior
Substitution2: "'aalt' Access All Alternates lookup 0 subtable" threesuperior
EndChar

StartChar: four
Encoding: 52 52 216
Width: 615
Flags: MW
HStem: 169 89<143 373 143 373 471 558> 676 20G<263 368 368 368>
VStem: 373 98<0 169 0 169 258 457 457 457>
LayerCount: 2
Fore
SplineSet
263 696 m 1
 368 696 l 1
 330 561 218 346 143 258 c 1
 373 258 l 1
 373 457 l 1
 396 502 414 548 427 594 c 1
 471 594 l 1
 471 258 l 1
 558 258 l 1
 558 169 l 1
 471 169 l 1
 471 0 l 1
 373 0 l 1
 373 169 l 1
 50 169 l 1
 50 259 l 1
 141 395 212 541 263 696 c 1
EndSplineSet
EndChar

StartChar: five
Encoding: 53 53 217
Width: 615
Flags: MW
HStem: -10 89<269 349 269 379.5> 363 84<298 349.5> 597 89<205 509 205 205>
VStem: 71 98<214 214> 447 98<180 265.5>
LayerCount: 2
Fore
SplineSet
509 597 m 1
 205 597 l 1
 190 396 l 1
 233 430 276 447 320 447 c 0
 482 447 545 345 545 222 c 0
 545 85 451 -10 308 -10 c 0
 171 -10 73 85 71 214 c 1
 169 214 l 1
 171 137 230 79 308 79 c 0
 390 79 447 135 447 225 c 0
 447 306 387 363 312 363 c 0
 255 363 212 340 183 294 c 1
 95 307 l 1
 123 686 l 1
 509 686 l 1
 509 597 l 1
EndSplineSet
EndChar

StartChar: six
Encoding: 54 54 218
Width: 615
Flags: MW
HStem: -10 89<276.5 354.5 276.5 385> 343 89<301 354.5> 607 89<273.5 350>
VStem: 79 98<223 249 366 465 465 474> 443 98<473 515> 454 98<171 251>
LayerCount: 2
Fore
SplineSet
310 696 m 0xf8
 446 696 541 607 541 473 c 1
 443 473 l 1xf8
 443 557 390 607 310 607 c 0
 237 607 177 547 177 474 c 2
 177 366 l 1
 218 410 270 432 332 432 c 0
 453 432 552 339 552 221 c 0xf4
 552 83 454 -10 316 -10 c 0
 179 -10 79 86 79 223 c 2
 79 465 l 2
 79 592 183 696 310 696 c 0xf8
316 343 m 0xf4
 237 343 177 287 177 211 c 0
 177 135 237 79 316 79 c 0
 393 79 454 131 454 211 c 0
 454 291 393 343 316 343 c 0xf4
EndSplineSet
EndChar

StartChar: seven
Encoding: 55 55 219
Width: 615
Flags: MW
HStem: 597 89<73 430 73 555>
VStem: 180 112<24.5 28 28 51 24.5 94.5>
LayerCount: 2
Fore
SplineSet
555 686 m 1
 555 633 l 1
 395 445 292 240 292 51 c 2
 292 28 l 2
 292 21 293 12 294 0 c 1
 180 0 l 1
 180 189 263 388 430 597 c 1
 73 597 l 1
 73 686 l 1
 555 686 l 1
EndSplineSet
EndChar

StartChar: eight
Encoding: 56 56 220
Width: 615
Flags: MW
HStem: -10 89<268.5 347.5 268.5 384.5> 306 89<274.5 343.5 270.5 349.5> 607 89<270.5 343.5>
VStem: 67 98<153 201.5 153 229> 90 98<471.5 531 471 565.5> 426 98<471 531> 449 98<155 228>
LayerCount: 2
Fore
SplineSet
307 696 m 0xec
 437 696 524 621 524 505 c 0xec
 524 430 492 391 431 354 c 1
 431 350 l 1
 500 318 547 274 547 185 c 0
 547 64 462 -10 307 -10 c 0
 162 -10 67 61 67 185 c 0xf2
 67 273 114 321 183 350 c 1
 183 354 l 1
 105 402 90 444 90 499 c 0
 90 632 183 696 307 696 c 0xec
307 607 m 0
 234 607 188 561 188 501 c 0
 188 441 234 395 307 395 c 0
 380 395 426 441 426 501 c 0
 426 561 380 607 307 607 c 0
307 306 m 0xf2
 242 306 198 285 176 242 c 0
 169 227 165 211 165 192 c 0
 165 114 230 79 307 79 c 0
 388 79 449 118 449 192 c 0
 449 264 392 306 307 306 c 0xf2
EndSplineSet
EndChar

StartChar: nine
Encoding: 57 57 221
Width: 615
Flags: MW
HStem: -10 89<265 341.5 265 368.5> 254 89<260.5 314> 607 89<260.5 338>
VStem: 63 98<435 515 435 534> 74 98<171 213 171 213> 438 98<212 221 221 320 320 320 436 463>
LayerCount: 2
Fore
SplineSet
299 696 m 0xf4
 438 696 536 598 536 463 c 2
 536 221 l 2
 536 94 432 -10 305 -10 c 0
 167 -10 74 82 74 213 c 1
 172 213 l 1xec
 172 129 225 79 305 79 c 0
 378 79 438 139 438 212 c 2
 438 320 l 1
 397 276 345 254 283 254 c 0
 162 254 63 347 63 465 c 0
 63 603 160 696 299 696 c 0xf4
299 607 m 0
 222 607 161 555 161 475 c 0
 161 395 222 343 299 343 c 0
 377 343 438 397 438 475 c 0
 438 553 377 607 299 607 c 0
EndSplineSet
EndChar

StartChar: fraction
Encoding: 8260 8260 222
Width: 476
Flags: MW
HStem: 666 20G<422 478 478 478>
VStem: 2 476
LayerCount: 2
Fore
SplineSet
61 0 m 1
 2 0 l 1
 422 686 l 1
 478 686 l 1
 61 0 l 1
EndSplineSet
EndChar

StartChar: onehalf
Encoding: 189 189 223
Width: 726
Flags: MW
HStem: 0 49<496 696 496 696> 310 49<33 132 186 267 33 132> 334 49<544.5 592.5> 612 35<33 132 33 33> 666 20G<543 595 595 595>
VStem: 132 54<359 612 612 612> 437 54<256 261 247 261.5> 641 54<255.5 288>
LayerCount: 2
Fore
SplineSet
178 0 m 1xdf
 123 0 l 1
 543 686 l 1
 595 686 l 1
 178 0 l 1xdf
186 359 m 1
 267 359 l 1
 267 310 l 1
 33 310 l 1
 33 359 l 1
 132 359 l 1
 132 612 l 1
 33 612 l 1
 33 647 l 1
 70 650 114 662 165 684 c 1
 186 684 l 1
 186 359 l 1
571 383 m 0xbf
 645 383 695 333 695 277 c 0
 695 229 684 198 627 155 c 2
 522 75 l 2
 505 62 496 54 496 49 c 1
 696 49 l 1
 696 0 l 1
 437 0 l 1
 437 13 l 2
 437 52 454 86 488 111 c 2
 598 193 l 2
 627 214 641 240 641 271 c 0
 641 305 618 334 567 334 c 0
 510 334 491 289 491 261 c 2
 491 247 l 1
 438 247 l 2
 437 250 437 254 437 258 c 0
 437 265 439 297 456 326 c 0
 479 364 518 383 571 383 c 0xbf
EndSplineSet
Ligature2: "'frac' Diagonal Fractions lookup 2 subtable" one slash two
EndChar

StartChar: onequarter
Encoding: 188 188 224
Width: 702
Flags: MW
HStem: 91 49<452 575 452 575 629 675> 310 49<36 135 189 270 36 135> 612 35<36 135 36 36> 666 20G<563 615 615 615>
VStem: 135 54<359 612 612 612> 402 50<140 140 140 141 140 141> 575 54<0 91 0 91 140 245 245 245>
LayerCount: 2
Fore
SplineSet
198 0 m 1
 143 0 l 1
 563 686 l 1
 615 686 l 1
 198 0 l 1
189 359 m 1
 270 359 l 1
 270 310 l 1
 36 310 l 1
 36 359 l 1
 135 359 l 1
 135 612 l 1
 36 612 l 1
 36 647 l 1
 73 650 117 662 168 684 c 1
 189 684 l 1
 189 359 l 1
517 374 m 1
 572 374 l 1
 545 269 473 163 452 140 c 1
 575 140 l 1
 575 245 l 1
 587 270 597 294 604 319 c 1
 629 319 l 1
 629 140 l 1
 675 140 l 1
 675 91 l 1
 629 91 l 1
 629 0 l 1
 575 0 l 1
 575 91 l 1
 402 91 l 1
 402 141 l 1
 452 217 490 295 517 374 c 1
EndSplineSet
Ligature2: "'frac' Diagonal Fractions lookup 2 subtable" one slash four
EndChar

StartChar: threequarters
Encoding: 190 190 225
Width: 698
Flags: MW
HStem: 91 49<447 570 447 570 624 670> 298 49<137 162 162 169> 471 49<120 161 120 162> 500 20G<120 162 162 182.5> 637 49<164 169 169 184.5>
VStem: 31 54<410 414 387.5 414> 40 54<574 579 574 584 574 615.5> 237 54<565 601> 246 54<389.5 428 372.5 434> 397 50<140 140 140 141 140 141> 570 54<0 91 0 91 140 245 245 245>
LayerCount: 2
Fore
SplineSet
164 686 m 2xeb60
 169 686 l 2xeb60
 238 686 291 647 291 584 c 0xdb60
 291 546 271 518 231 499 c 1xdae0
 277 482 300 451 300 405 c 0
 300 340 245 298 169 298 c 2
 162 298 l 2
 78 298 31 342 31 410 c 2
 31 414 l 1
 85 414 l 1
 85 408 l 2
 85 367 111 347 163 347 c 0
 214 347 246 367 246 412 c 0
 246 456 205 471 161 471 c 2xece0
 120 471 l 1
 120 520 l 1
 162 520 l 2
 203 520 237 540 237 581 c 0
 237 621 204 637 165 637 c 0
 125 637 94 618 94 579 c 2
 94 574 l 1
 40 574 l 1
 40 584 l 2
 40 647 92 686 164 686 c 2xeb60
198 0 m 1
 143 0 l 1
 563 686 l 1
 615 686 l 1
 198 0 l 1
512 374 m 1
 567 374 l 1
 540 269 468 163 447 140 c 1
 570 140 l 1
 570 245 l 1
 582 270 592 294 599 319 c 1
 624 319 l 1
 624 140 l 1
 670 140 l 1
 670 91 l 1
 624 91 l 1
 624 0 l 1
 570 0 l 1
 570 91 l 1
 397 91 l 1
 397 141 l 1xeae0
 447 217 485 295 512 374 c 1
EndSplineSet
Ligature2: "'frac' Diagonal Fractions lookup 2 subtable" three slash four
EndChar

StartChar: onesuperior
Encoding: 185 185 226
Width: 334
Flags: MW
HStem: 422 49<50 149 203 284 50 149> 724 35<50 149 50 50>
VStem: 149 54<471 724 724 724>
LayerCount: 2
Fore
SplineSet
203 471 m 1
 284 471 l 1
 284 422 l 1
 50 422 l 1
 50 471 l 1
 149 471 l 1
 149 724 l 1
 50 724 l 1
 50 759 l 1
 87 762 131 774 182 796 c 1
 203 796 l 1
 203 471 l 1
EndSplineSet
EndChar

StartChar: twosuperior
Encoding: 178 178 227
Width: 384
Flags: MW
HStem: 417 49<120 320 120 320> 751 49<168.5 216.5>
VStem: 61 54<673 678 664 678.5> 265 54<672.5 705>
LayerCount: 2
Fore
SplineSet
195 800 m 0
 270 800 319 750 319 694 c 0
 319 646 308 615 251 572 c 2
 146 492 l 2
 129 479 120 470 120 466 c 1
 320 466 l 1
 320 417 l 1
 61 417 l 1
 61 430 l 2
 61 469 78 503 112 528 c 2
 222 610 l 2
 251 631 265 657 265 688 c 0
 265 722 242 751 191 751 c 0
 134 751 115 706 115 678 c 2
 115 664 l 1
 62 664 l 2
 61 667 61 671 61 675 c 0
 61 682 63 714 80 743 c 0
 103 781 142 800 195 800 c 0
EndSplineSet
EndChar

StartChar: threesuperior
Encoding: 179 179 228
Width: 363
Flags: MW
HStem: 412 49<148 173 173 180> 585 49<131 172 131 173> 751 49<175 180 180 195.5>
VStem: 42 54<524 528 501.5 528> 51 54<688 693 688 698 688 729.5> 248 54<679 715> 257 54<503.5 542 486.5 548>
LayerCount: 2
Fore
SplineSet
175 800 m 2xec
 180 800 l 2
 249 800 302 761 302 698 c 0xec
 302 660 282 632 242 613 c 1
 288 596 311 565 311 519 c 0
 311 454 256 412 180 412 c 2
 173 412 l 2
 89 412 42 456 42 524 c 2
 42 528 l 1
 96 528 l 1
 96 522 l 2
 96 481 122 461 174 461 c 0
 225 461 257 481 257 526 c 0
 257 570 216 585 172 585 c 2xf2
 131 585 l 1
 131 634 l 1
 173 634 l 2
 214 634 248 654 248 695 c 0
 248 735 215 751 176 751 c 0
 136 751 105 732 105 693 c 2
 105 688 l 1
 51 688 l 1
 51 698 l 2
 51 761 103 800 175 800 c 2xec
EndSplineSet
EndChar

StartChar: asterisk
Encoding: 42 42 229
Width: 468
Flags: MW
HStem: 499 20G<259 259> 500 20G<209 209> 666 20G<196 275 275 275>
VStem: 29 411<506 509>
LayerCount: 2
Fore
SplineSet
259 519 m 1xb0
 417 584 l 1
 440 506 l 1
 275 468 l 1xb0
 384 343 l 1
 320 294 l 1
 232 438 l 1
 145 296 l 1
 81 344 l 1
 192 469 l 1
 29 509 l 1
 54 586 l 1
 209 520 l 1x70
 196 686 l 1
 275 686 l 1
 259 519 l 1xb0
EndSplineSet
EndChar

StartChar: backslash
Encoding: 92 92 230
Width: 600
Flags: MW
HStem: 666 20G<15 95 95 95>
VStem: 15 570
LayerCount: 2
Fore
SplineSet
585 -171 m 1
 504 -171 l 1
 15 686 l 1
 95 686 l 1
 585 -171 l 1
EndSplineSet
EndChar

StartChar: periodcentered
Encoding: 183 183 231
Width: 239
Flags: MW
HStem: 232 112<69 170 69 170>
VStem: 69 101<232 344>
LayerCount: 2
Fore
SplineSet
170 232 m 1
 69 232 l 1
 69 344 l 1
 170 344 l 1
 170 232 l 1
EndSplineSet
EndChar

StartChar: bullet
Encoding: 8226 8226 232
Width: 600
Flags: MW
HStem: 191 305<258.5 339>
VStem: 150 300<302.5 385.5 300 386.5>
LayerCount: 2
Fore
SplineSet
299 496 m 0
 380 496 450 427 450 344 c 0
 450 256 379 191 299 191 c 0
 217 191 150 261 150 344 c 0
 150 429 218 496 299 496 c 0
EndSplineSet
EndChar

StartChar: colon
Encoding: 58 58 233
Width: 239
Flags: MW
HStem: 0 111<69 170 69 170> 399 112<69 170 69 170>
VStem: 69 101<0 111 399 511>
LayerCount: 2
Fore
SplineSet
170 399 m 1
 69 399 l 1
 69 511 l 1
 170 511 l 1
 170 399 l 1
170 0 m 1
 69 0 l 1
 69 111 l 1
 170 111 l 1
 170 0 l 1
EndSplineSet
EndChar

StartChar: comma
Encoding: 44 44 234
Width: 238
Flags: MW
HStem: 0 111<69 110 69 170>
VStem: 69 101<26 26 26 111 26 111>
LayerCount: 2
Fore
SplineSet
170 26 m 1
 135 -124 l 1
 83 -124 l 1
 110 0 l 1
 69 0 l 1
 69 111 l 1
 170 111 l 1
 170 26 l 1
EndSplineSet
EndChar

StartChar: ellipsis
Encoding: 8230 8230 235
Width: 735
Flags: MW
HStem: 0 111<69 171 69 171 317 419 564 666>
VStem: 69 102<0 111> 317 102<0 111> 564 102<0 111>
LayerCount: 2
Fore
SplineSet
171 0 m 1
 69 0 l 1
 69 111 l 1
 171 111 l 1
 171 0 l 1
419 0 m 1
 317 0 l 1
 317 111 l 1
 419 111 l 1
 419 0 l 1
666 0 m 1
 564 0 l 1
 564 111 l 1
 666 111 l 1
 666 0 l 1
EndSplineSet
EndChar

StartChar: exclam
Encoding: 33 33 236
Width: 269
Flags: MW
HStem: 0 111<85 186 85 186> 666 20G<78 193 193 193>
VStem: 78 90<174 686> 85 101<0 111>
LayerCount: 2
Fore
SplineSet
78 686 m 1xe0
 193 686 l 1
 191 671 183 500 168 174 c 1
 78 174 l 1
 78 686 l 1xe0
186 0 m 1xd0
 85 0 l 1
 85 111 l 1
 186 111 l 1
 186 0 l 1xd0
EndSplineSet
EndChar

StartChar: exclamdown
Encoding: 161 161 237
Width: 254
Flags: MW
HStem: 399 111<76 177 76 177>
VStem: 76 101<399 510> 94 90<-176 335>
LayerCount: 2
Fore
SplineSet
177 399 m 1xa0
 76 399 l 1
 76 510 l 1xc0
 177 510 l 1
 177 399 l 1xa0
184 -176 m 1xa0
 94 -176 l 1
 94 335 l 1
 184 335 l 1
 184 -176 l 1xa0
EndSplineSet
EndChar

StartChar: numbersign
Encoding: 35 35 238
Width: 643
Flags: MW
HStem: 179 76<28 138 28 155 231 364 28 214 457 573> 410 76<68 189 68 206 282 415 68 265 508 613> 676 20G<253 329 329 329 479 555 555 555>
VStem: 28 585<179 486 255 486>
LayerCount: 2
Fore
SplineSet
508 486 m 1
 613 486 l 1
 613 410 l 1
 491 410 l 1
 457 255 l 1
 573 255 l 1
 573 179 l 1
 440 179 l 1
 400 0 l 1
 324 0 l 1
 364 179 l 1
 214 179 l 1
 174 0 l 1
 98 0 l 1
 138 179 l 1
 28 179 l 1
 28 255 l 1
 155 255 l 1
 189 410 l 1
 68 410 l 1
 68 486 l 1
 206 486 l 1
 253 696 l 1
 329 696 l 1
 282 486 l 1
 432 486 l 1
 479 696 l 1
 555 696 l 1
 508 486 l 1
265 410 m 1
 231 255 l 1
 381 255 l 1
 415 410 l 1
 265 410 l 1
EndSplineSet
EndChar

StartChar: period
Encoding: 46 46 239
Width: 239
Flags: MW
HStem: 0 111<69 170 69 170>
VStem: 69 101<0 111>
LayerCount: 2
Fore
SplineSet
170 0 m 1
 69 0 l 1
 69 111 l 1
 170 111 l 1
 170 0 l 1
EndSplineSet
EndChar

StartChar: question
Encoding: 63 63 240
Width: 502
Flags: MW
HStem: 0 111<205 309 205 309> 607 89<246 252 252 278.5>
VStem: 26 99<495 528.5 495 542> 205 104<0 111> 363 99<449 529.5>
LayerCount: 2
Fore
SplineSet
246 696 m 2
 252 696 l 2
 391 696 462 595 462 492 c 0
 462 343 307 316 307 234 c 2
 307 185 l 1
 207 185 l 1
 207 249 l 2
 207 350 363 400 363 498 c 0
 363 561 312 607 245 607 c 0
 172 607 125 562 125 495 c 2
 127 458 l 1
 29 458 l 1
 27 466 26 479 26 496 c 0
 26 588 102 696 246 696 c 2
309 0 m 1
 205 0 l 1
 205 111 l 1
 309 111 l 1
 309 0 l 1
EndSplineSet
EndChar

StartChar: questiondown
Encoding: 191 191 241
Width: 495
Flags: MW
HStem: -185 89<217 245 245 251> 400 111<188 292 188 292>
VStem: 35 99<-18 63.5 -18 94.5> 188 104<400 511> 372 99<-18 16>
LayerCount: 2
Fore
SplineSet
292 400 m 1
 188 400 l 1
 188 511 l 1
 292 511 l 1
 292 400 l 1
290 326 m 1
 290 262 l 2
 290 158 134 114 134 13 c 0
 134 -49 182 -96 252 -96 c 0
 325 -96 372 -52 372 16 c 2
 370 53 l 1
 468 53 l 1
 470 45 471 32 471 15 c 0
 471 -76 396 -185 251 -185 c 2
 245 -185 l 2
 108 -185 35 -88 35 20 c 0
 35 169 190 186 190 277 c 2
 190 326 l 1
 290 326 l 1
EndSplineSet
EndChar

StartChar: quotedbl
Encoding: 34 34 242
Width: 364
Flags: MW
HStem: 407 279<86 125 86 86 239 239 239 278> 666 20G<64 146 146 146 218 300 300 300>
VStem: 64 82<539 686> 218 82<539 686 539 686>
LayerCount: 2
Fore
SplineSet
146 539 m 1x70
 125 407 l 1
 86 407 l 1xb0
 64 539 l 1
 64 686 l 1
 146 686 l 1
 146 539 l 1x70
300 686 m 1
 300 539 l 1
 291 486 283 442 278 407 c 1
 239 407 l 1
 218 539 l 1
 218 686 l 1
 300 686 l 1
EndSplineSet
EndChar

StartChar: quotesingle
Encoding: 39 39 243
Width: 210
Flags: MW
HStem: 666 20G<64 146 146 146>
VStem: 64 82<539 686>
LayerCount: 2
Fore
SplineSet
146 539 m 1
 124 407 l 1
 85 407 l 1
 64 539 l 1
 64 686 l 1
 146 686 l 1
 146 539 l 1
EndSplineSet
EndChar

StartChar: semicolon
Encoding: 59 59 244
Width: 239
Flags: MW
HStem: 0 111<69 110 69 170> 399 112<69 170 69 170>
VStem: 69 101<26 26 26 111 26 111 399 511>
LayerCount: 2
Fore
SplineSet
170 399 m 1
 69 399 l 1
 69 511 l 1
 170 511 l 1
 170 399 l 1
170 26 m 1
 135 -124 l 1
 83 -124 l 1
 110 0 l 1
 69 0 l 1
 69 111 l 1
 170 111 l 1
 170 26 l 1
EndSplineSet
EndChar

StartChar: slash
Encoding: 47 47 245
Width: 600
Flags: MW
HStem: 666 20G<505 585 585 585>
VStem: 15 570
LayerCount: 2
Fore
SplineSet
96 -171 m 1
 15 -171 l 1
 505 686 l 1
 585 686 l 1
 96 -171 l 1
EndSplineSet
EndChar

StartChar: underscore
Encoding: 95 95 246
Width: 694
Flags: MW
HStem: -124 60<97 597 97 597>
VStem: 97 500<-124 -64 -124 -64>
LayerCount: 2
Fore
SplineSet
597 -124 m 1
 97 -124 l 1
 97 -64 l 1
 597 -64 l 1
 597 -124 l 1
EndSplineSet
EndChar

StartChar: braceleft
Encoding: 123 123 247
Width: 315
Flags: MW
HStem: -159 50<254.5 275 254.5 275> 224 35 268 35 636 50<245 275>
VStem: 40 60<259 268 259 303 259 303> 117 79<-19 -0.5 -63.5 167 530.5 546 546 581>
LayerCount: 2
Fore
SplineSet
275 686 m 1
 275 636 l 1
 215 636 196 602 196 560 c 0
 196 501 192 436 189 371 c 0xf4
 186 306 165 268 100 268 c 1
 100 259 l 1xdc
 165 259 186 221 189 156 c 0
 192 91 196 23 196 -24 c 0
 196 -103 234 -109 275 -109 c 1
 275 -159 l 1
 164 -159 117 -117 117 -19 c 2
 117 167 l 2xd4
 117 200 88 224 40 224 c 1xdc
 40 303 l 1xfc
 84 303 117 322 117 360 c 2xf4
 117 546 l 2
 117 649 170 686 275 686 c 1
EndSplineSet
EndChar

StartChar: braceright
Encoding: 125 125 248
Width: 315
Flags: MW
HStem: -159 50<40 70 40 92> 224 35 268 35 636 50<40 60>
VStem: 119 79<-53.5 -19 -19 -3.5 528 546> 215 60<259 268 268 268>
LayerCount: 2
Fore
SplineSet
40 636 m 1
 40 686 l 1
 151 686 198 644 198 546 c 2
 198 360 l 2xb8
 198 325 225 303 275 303 c 1xbc
 275 224 l 1xfc
 231 224 198 205 198 167 c 2
 198 -19 l 2
 198 -123 144 -159 40 -159 c 1
 40 -109 l 1
 100 -109 119 -75 119 -32 c 0
 119 25 123 91 126 156 c 0xf8
 129 221 150 259 215 259 c 1
 215 268 l 1xbc
 150 268 129 306 126 371 c 0
 123 436 119 504 119 552 c 0
 119 629 80 636 40 636 c 1
EndSplineSet
EndChar

StartChar: bracketleft
Encoding: 91 91 249
Width: 293
Flags: MW
HStem: -161 55<166 254 166 254> 631 55<166 254 166 166>
VStem: 85 81<-106 631 -106 686 -106 686>
LayerCount: 2
Fore
SplineSet
254 631 m 1
 166 631 l 1
 166 -106 l 1
 254 -106 l 1
 254 -161 l 1
 85 -161 l 1
 85 686 l 1
 254 686 l 1
 254 631 l 1
EndSplineSet
EndChar

StartChar: bracketright
Encoding: 93 93 250
Width: 293
Flags: MW
HStem: -161 55<39 127 39 208 39 127> 631 55<39 127 39 208>
VStem: 127 81<-106 631 631 631>
LayerCount: 2
Fore
SplineSet
208 -161 m 1
 39 -161 l 1
 39 -106 l 1
 127 -106 l 1
 127 631 l 1
 39 631 l 1
 39 686 l 1
 208 686 l 1
 208 -161 l 1
EndSplineSet
EndChar

StartChar: parenleft
Encoding: 40 40 251
Width: 289
Flags: MW
HStem: 666 20G<208 260 260 260>
VStem: 49 82<191 338.5 191 342>
LayerCount: 2
Fore
SplineSet
208 686 m 1
 260 686 l 1
 181 562 131 412 131 265 c 0
 131 117 181 -29 260 -157 c 1
 208 -157 l 1
 105 -40 49 108 49 264 c 0
 49 420 105 569 208 686 c 1
EndSplineSet
EndChar

StartChar: parenright
Encoding: 41 41 252
Width: 288
Flags: MW
HStem: 666 20G<29 81 81 81>
VStem: 157 83<190.5 337.5>
LayerCount: 2
Fore
SplineSet
29 686 m 1
 81 686 l 1
 184 569 240 420 240 265 c 0
 240 109 184 -40 81 -157 c 1
 29 -157 l 1
 106 -34 157 116 157 265 c 0
 157 410 105 564 29 686 c 1
EndSplineSet
EndChar

StartChar: emdash
Encoding: 8212 8212 253
Width: 1058
Flags: MW
HStem: 223 94<72 982 72 982>
VStem: 72 910<223 317 223 317>
LayerCount: 2
Fore
SplineSet
982 223 m 1
 72 223 l 1
 72 317 l 1
 982 317 l 1
 982 223 l 1
EndSplineSet
EndChar

StartChar: endash
Encoding: 8211 8211 254
Width: 638
Flags: MW
HStem: 223 95<69 569 69 569>
VStem: 69 500<223 318 223 318>
LayerCount: 2
Fore
SplineSet
569 223 m 1
 69 223 l 1
 69 318 l 1
 569 318 l 1
 569 223 l 1
EndSplineSet
EndChar

StartChar: hyphen
Encoding: 45 45 255
Width: 391
Flags: MW
HStem: 221 98<69 322 69 322>
VStem: 69 253<221 319 221 319>
LayerCount: 2
Fore
SplineSet
322 221 m 1
 69 221 l 1
 69 319 l 1
 322 319 l 1
 322 221 l 1
EndSplineSet
EndChar

StartChar: softhyphen
Encoding: 173 173 256
Width: 391
Flags: MW
HStem: 221 98<69 322 69 322>
VStem: 69 253<221 319 221 319>
LayerCount: 2
Fore
SplineSet
322 221 m 1
 69 221 l 1
 69 319 l 1
 322 319 l 1
 322 221 l 1
EndSplineSet
EndChar

StartChar: guillemetleft
Encoding: 171 171 257
Width: 460
Flags: MW
HStem: 491 20G<171 222 222 222 354 404 404 404>
VStem: 49 355<163 337>
LayerCount: 2
Fore
SplineSet
128 337 m 1
 222 163 l 1
 171 163 l 1
 49 337 l 1
 171 511 l 1
 222 511 l 1
 128 337 l 1
311 337 m 1
 404 163 l 1
 354 163 l 1
 231 337 l 1
 354 511 l 1
 404 511 l 1
 311 337 l 1
EndSplineSet
EndChar

StartChar: guillemetright
Encoding: 187 187 258
Width: 460
Flags: MW
HStem: 491 20G<56 107 107 107 239 289 289 289>
VStem: 56 355<163 337 337 511>
LayerCount: 2
Fore
SplineSet
230 337 m 1
 107 163 l 1
 56 163 l 1
 150 337 l 1
 56 511 l 1
 107 511 l 1
 230 337 l 1
411 337 m 1
 289 163 l 1
 239 163 l 1
 332 337 l 1
 239 511 l 1
 289 511 l 1
 411 337 l 1
EndSplineSet
EndChar

StartChar: guilsinglleft
Encoding: 8249 8249 259
Width: 278
Flags: MW
HStem: 491 20G<171 222 222 222>
VStem: 49 173
LayerCount: 2
Fore
SplineSet
128 337 m 1
 222 163 l 1
 171 163 l 1
 49 337 l 1
 171 511 l 1
 222 511 l 1
 128 337 l 1
EndSplineSet
EndChar

StartChar: guilsinglright
Encoding: 8250 8250 260
Width: 278
Flags: MW
HStem: 491 20G<56 107 107 107>
VStem: 56 173
LayerCount: 2
Fore
SplineSet
229 337 m 1
 107 163 l 1
 56 163 l 1
 150 337 l 1
 56 511 l 1
 107 511 l 1
 229 337 l 1
EndSplineSet
EndChar

StartChar: quotedblbase
Encoding: 8222 8222 261
Width: 380
Flags: MW
HStem: 0 111<69 110 69 170 69 211 211 252>
VStem: 69 101<26 26 26 111 26 111> 211 101<26 26 26 111 26 111>
LayerCount: 2
Fore
SplineSet
170 26 m 1
 135 -124 l 1
 83 -124 l 1
 110 0 l 1
 69 0 l 1
 69 111 l 1
 170 111 l 1
 170 26 l 1
312 26 m 1
 277 -124 l 1
 225 -124 l 1
 252 0 l 1
 211 0 l 1
 211 111 l 1
 312 111 l 1
 312 26 l 1
EndSplineSet
EndChar

StartChar: quotedblleft
Encoding: 8220 8220 262
Width: 366
Flags: MW
HStem: 451 111<121 162 121 162 61 162 121 203 263 304> 666 20G<96 148 148 148 238 290 290 290>
VStem: 61 101<451 536 536 536> 203 101<451 536 536 536>
LayerCount: 2
Fore
SplineSet
121 562 m 1
 162 562 l 1
 162 451 l 1
 61 451 l 1
 61 536 l 1
 96 686 l 1
 148 686 l 1
 121 562 l 1
263 562 m 1
 304 562 l 1
 304 451 l 1
 203 451 l 1
 203 536 l 1
 238 686 l 1
 290 686 l 1
 263 562 l 1
EndSplineSet
EndChar

StartChar: quotedblright
Encoding: 8221 8221 263
Width: 361
Flags: MW
HStem: 575 111<61 102 61 162 61 203 203 244>
VStem: 61 101<601 601 601 686 601 686> 203 101<601 601 601 686 601 686>
LayerCount: 2
Fore
SplineSet
162 601 m 1
 127 451 l 1
 75 451 l 1
 102 575 l 1
 61 575 l 1
 61 686 l 1
 162 686 l 1
 162 601 l 1
304 601 m 1
 269 451 l 1
 217 451 l 1
 244 575 l 1
 203 575 l 1
 203 686 l 1
 304 686 l 1
 304 601 l 1
EndSplineSet
EndChar

StartChar: quoteleft
Encoding: 8216 8216 264
Width: 224
Flags: MW
HStem: 451 111<121 162 121 162 61 162> 666 20G<96 148 148 148>
VStem: 61 101<451 536 536 536>
LayerCount: 2
Fore
SplineSet
121 562 m 1
 162 562 l 1
 162 451 l 1
 61 451 l 1
 61 536 l 1
 96 686 l 1
 148 686 l 1
 121 562 l 1
EndSplineSet
EndChar

StartChar: quoteright
Encoding: 8217 8217 265
Width: 219
Flags: MW
HStem: 575 111<61 102 61 162>
VStem: 61 101<601 601 601 686 601 686>
LayerCount: 2
Fore
SplineSet
162 601 m 1
 127 451 l 1
 75 451 l 1
 102 575 l 1
 61 575 l 1
 61 686 l 1
 162 686 l 1
 162 601 l 1
EndSplineSet
EndChar

StartChar: quotesinglbase
Encoding: 8218 8218 266
Width: 238
Flags: MW
HStem: 0 111<69 110 69 170>
VStem: 69 101<26 26 26 111 26 111>
LayerCount: 2
Fore
SplineSet
170 26 m 1
 135 -124 l 1
 83 -124 l 1
 110 0 l 1
 69 0 l 1
 69 111 l 1
 170 111 l 1
 170 26 l 1
EndSplineSet
EndChar

StartChar: cent
Encoding: 162 162 269
Width: 527
Flags: MW
HStem: 79 74<251 251 303 303> 534 74<251 251 251 303 251 317> 534 159<241 314 241 317>
VStem: 48 94<331 355 355 379 265.5 427.5> 246 62.5 399 93<398 438.5>
LayerCount: 2
Fore
SplineSet
314 693 m 1xbc
 303 608 l 1xdc
 413 597 492 524 492 398 c 1
 399 398 l 1
 399 479 357 534 277 534 c 0xbc
 195 534 142 476 142 379 c 2
 142 325 l 2
 142 206 195 153 280 153 c 0
 364 153 402 209 402 288 c 1
 492 288 l 1
 492 168 417 87 303 79 c 1
 314 -7 l 1
 241 -7 l 1
 251 79 l 1
 129 87 48 183 48 331 c 2
 48 355 l 2
 48 500 127 600 251 608 c 1xdc
 241 693 l 1
 314 693 l 1xbc
EndSplineSet
EndChar

StartChar: currency
Encoding: 164 164 270
Width: 624
Flags: MW
HStem: 89 69<285 339.5> 516 69<286 340 286 360.5>
VStem: 64 69<308.5 363> 491 69<309.5 363.5 309.5 385.5>
LayerCount: 2
Fore
SplineSet
565 539 m 1
 511 485 l 1
 544 440 560 390 560 337 c 0
 560 282 543 232 509 187 c 1
 564 133 l 1
 516 85 l 1
 461 139 l 1
 416 106 367 89 312 89 c 0
 258 89 208 105 163 138 c 1
 110 85 l 1
 62 133 l 1
 115 186 l 1
 81 231 64 281 64 336 c 0
 64 390 81 440 114 487 c 1
 63 539 l 1
 111 587 l 1
 162 535 l 1
 209 568 259 585 313 585 c 0
 367 585 417 568 463 533 c 1
 517 587 l 1
 565 539 l 1
312 516 m 0
 214 516 133 435 133 337 c 0
 133 238 213 158 312 158 c 0
 410 158 491 239 491 337 c 0
 491 434 409 516 312 516 c 0
EndSplineSet
EndChar

StartChar: dollar
Encoding: 36 36 271
Width: 546
Flags: MW
HStem: 19 86<296 296> 586 85<245 245 245 296 245 311.5>
VStem: 31 95<172.5 208 172.5 209> 46 95<434 533 434 552> 239.5 62 403 95<483 495 483 497 483 526.5> 420 94<169.5 278>
LayerCount: 2
Fore
SplineSet
307 760 m 1xda
 296 671 l 1
 416 665 498 606 498 495 c 2
 498 483 l 1
 403 483 l 1
 403 497 l 2xdc
 403 556 349 586 274 586 c 0
 199 586 141 561 141 505 c 0xda
 141 363 514 443 514 216 c 0
 514 93 438 25 296 19 c 1
 307 -66 l 1
 234 -66 l 1
 244 20 l 1
 107 29 31 92 31 209 c 1
 32 227 l 1
 127 227 l 1
 126 208 l 2xea
 126 137 185 105 268 105 c 0
 369 105 420 137 420 202 c 0
 420 354 46 269 46 490 c 0
 46 614 132 663 245 671 c 1
 234 760 l 1
 307 760 l 1xda
EndSplineSet
EndChar

StartChar: euro
Encoding: 8364 8364 272
Width: 562
Flags: MW
HStem: -8 88<399 447> 238 65<30 120 30 130 30 120 230 426 230 230> 377 64<30 120 30 129 228 426> 604 89<392 448.5 357.5 461> 665 20G<525 525>
VStem: 119 95<322 360 318.5 362.5>
LayerCount: 2
Fore
SplineSet
437 693 m 0xf4
 460 693 490 690 525 685 c 1xec
 525 594 l 1
 502 601 476 604 446 604 c 0
 338 604 257 540 228 441 c 1
 426 441 l 1
 426 377 l 1
 216 377 l 1
 215 372 214 366 214 360 c 2
 214 322 l 2
 214 315 215 309 216 303 c 1
 426 303 l 1
 426 238 l 1
 230 238 l 1
 262 139 345 80 453 80 c 0
 472 80 496 84 525 93 c 1
 525 2 l 1
 496 -5 464 -8 430 -8 c 0
 280 -8 163 93 130 238 c 1
 30 238 l 1
 30 303 l 1
 120 303 l 1
 119 309 119 315 119 322 c 2
 119 360 l 2
 119 365 119 371 120 377 c 1
 30 377 l 1
 30 441 l 1
 129 441 l 1
 162 591 278 693 437 693 c 0xf4
EndSplineSet
EndChar

StartChar: florin
Encoding: 402 402 273
Width: 360
Flags: MW
HStem: -184 74<-14 6 -27.5 40.5> 436 75<75 125 66 134 227 338> 654 74<281.5 307.5 249 314.5> 708 20G<249 307.5>
VStem: -80 454
LayerCount: 2
Fore
SplineSet
290 728 m 0xe8
 325 728 353 722 374 709 c 1xd8
 365 640 l 1
 344 649 324 654 305 654 c 0
 258 654 243 628 239 590 c 2
 227 511 l 1
 347 511 l 1
 338 436 l 1
 218 436 l 1
 147 -58 l 2
 134 -147 77 -184 4 -184 c 0
 -32 -184 -60 -178 -80 -165 c 1
 -72 -96 l 1
 -51 -105 -34 -110 -21 -110 c 0
 33 -110 49 -91 54 -46 c 2
 125 436 l 1
 66 436 l 1
 75 511 l 1
 134 511 l 1
 147 602 l 2
 159 686 208 728 290 728 c 0xe8
EndSplineSet
EndChar

StartChar: sterling
Encoding: 163 163 274
Width: 597
Flags: MW
HStem: 0 89<65 155 236 539 65 155> 293 89<29 155 29 155 253 440> 607 89<358 367 367 390.5>
VStem: 155 98<89 293 293 293 382 499 499 505> 467 98<490 499 490 505 490 535>
LayerCount: 2
Fore
SplineSet
358 696 m 2
 367 696 l 2
 485 696 565 629 565 499 c 2
 565 490 l 1
 467 490 l 1
 467 505 l 2
 467 565 421 607 360 607 c 0
 297 607 253 568 253 505 c 2
 253 382 l 1
 440 382 l 1
 440 293 l 1
 253 293 l 1
 236 89 l 1
 539 89 l 1
 539 0 l 1
 65 0 l 1
 65 89 l 1
 155 89 l 1
 155 293 l 1
 29 293 l 1
 29 382 l 1
 155 382 l 1
 155 499 l 2
 155 621 238 696 358 696 c 2
EndSplineSet
EndChar

StartChar: yen
Encoding: 165 165 275
Width: 634
Flags: MW
HStem: 239 64<59 246 59 268 59 246 388 577> 376 64<59 167 59 204 59 167 466 577> 666 20G<26 138 138 138 506 607 607 607>
VStem: 268 98<0 239 0 239>
LayerCount: 2
Fore
SplineSet
466 440 m 1
 577 440 l 1
 577 376 l 1
 429 376 l 1
 388 303 l 1
 577 303 l 1
 577 239 l 1
 366 239 l 1
 366 0 l 1
 268 0 l 1
 268 239 l 1
 59 239 l 1
 59 303 l 1
 246 303 l 1
 204 376 l 1
 59 376 l 1
 59 440 l 1
 167 440 l 1
 26 686 l 1
 138 686 l 1
 321 367 l 1
 325 367 l 1
 506 686 l 1
 607 686 l 1
 466 440 l 1
EndSplineSet
EndChar

StartChar: Ohm
Encoding: 8486 8486 276
Width: 699
Flags: MW
HStem: 0 90<45 80 45 309 45 80 620 655> 608 87<342 359 359 409.5>
VStem: 45 264<0 49 0 90 0 90> 67 104<345 370 370 375 217 474.5> 391 264<0 49 49 49> 531 104<297 337 337 370 280.5 375 280.5 458.5>
LayerCount: 2
Fore
SplineSet
342 695 m 2xd4
 359 695 l 2
 527 695 635 588 635 370 c 2
 635 337 l 2
 635 224 602 139 536 80 c 1
 564 83 592 86 620 90 c 1xd4
 655 90 l 1
 655 0 l 1
 391 0 l 1xd8
 391 49 l 1
 484 66 531 134 531 297 c 2
 531 375 l 2
 531 542 470 608 349 608 c 0
 233 608 171 540 171 375 c 2
 171 297 l 2xd4
 171 137 216 69 309 49 c 1
 309 0 l 1
 45 0 l 1
 45 90 l 1
 80 90 l 1xe4
 107 86 132 84 165 80 c 1
 100 135 67 224 67 345 c 2
 67 370 l 2
 67 579 169 695 342 695 c 2xd4
EndSplineSet
EndChar

StartChar: approxequal
Encoding: 8776 8776 277
Width: 615
Flags: MW
HStem: 73 85<383.5 453.5 382 459> 139 85<162.5 230.5 162.5 232.5> 282 85<383.5 453.5 382 459> 348 85<162.5 230.5 162.5 232.5>
VStem: 25 564<61 236 146 236 151 355 151 355>
LayerCount: 2
Fore
SplineSet
589 445 m 1xa8
 589 360 l 1
 553 320 490 282 428 282 c 0xa8
 339 282 279 348 186 348 c 0
 138 348 72 321 25 270 c 1
 25 355 l 1
 72 405 137 433 188 433 c 0x98
 273 433 337 367 427 367 c 0
 480 367 547 396 589 445 c 1xa8
589 236 m 1
 589 151 l 1
 553 111 490 73 428 73 c 0xa8
 339 73 279 139 186 139 c 0
 138 139 72 112 25 61 c 1
 25 146 l 1
 72 196 137 224 188 224 c 0x68
 273 224 337 158 427 158 c 0
 480 158 547 187 589 236 c 1
EndSplineSet
EndChar

StartChar: asciitilde
Encoding: 126 126 278
Width: 689
Flags: MW
HStem: 223 85<422.5 492.5 421 498> 289 85<202 269.5 202 271.5>
VStem: 64 564<211 386 296 386>
LayerCount: 2
Fore
SplineSet
628 386 m 1xa0
 628 301 l 1
 592 261 529 223 467 223 c 0xa0
 378 223 317 289 226 289 c 0
 177 289 111 262 64 211 c 1
 64 296 l 1
 111 346 177 374 227 374 c 0x60
 312 374 376 308 466 308 c 0
 519 308 586 337 628 386 c 1xa0
EndSplineSet
EndChar

StartChar: bulletoperator
Encoding: 8729 8729 279
Width: 239
Flags: MW
HStem: 232 112<69 170 69 170>
VStem: 69 101<232 344>
LayerCount: 2
Fore
SplineSet
170 232 m 1
 69 232 l 1
 69 344 l 1
 170 344 l 1
 170 232 l 1
EndSplineSet
EndChar

StartChar: divide
Encoding: 247 247 280
Width: 615
Flags: MW
HStem: 51 90<266 349 266 349> 213 84<51 563 51 563> 369 91<266 349 266 349>
VStem: 266 83<51 141 369 460>
LayerCount: 2
Fore
SplineSet
349 369 m 1
 266 369 l 1
 266 460 l 1
 349 460 l 1
 349 369 l 1
563 213 m 1
 51 213 l 1
 51 297 l 1
 563 297 l 1
 563 213 l 1
349 51 m 1
 266 51 l 1
 266 141 l 1
 349 141 l 1
 349 51 l 1
EndSplineSet
EndChar

StartChar: divisionslash
Encoding: 8725 8725 281
Width: 476
Flags: MW
HStem: 666 20G<422 478 478 478>
VStem: 2 476
LayerCount: 2
Fore
SplineSet
61 0 m 1
 2 0 l 1
 422 686 l 1
 478 686 l 1
 61 0 l 1
EndSplineSet
EndChar

StartChar: equal
Encoding: 61 61 282
Width: 615
Flags: MW
HStem: 106 83<55 559 55 559> 318 84<55 559 55 559>
VStem: 55 504<106 189 106 189 318 402 106 402>
LayerCount: 2
Fore
SplineSet
559 318 m 1
 55 318 l 1
 55 402 l 1
 559 402 l 1
 559 318 l 1
559 106 m 1
 55 106 l 1
 55 189 l 1
 559 189 l 1
 559 106 l 1
EndSplineSet
EndChar

StartChar: greater
Encoding: 62 62 283
Width: 615
Flags: MW
HStem: 4 500<62 62>
VStem: 490 81
LayerCount: 2
Fore
SplineSet
571 307 m 1
 571 200 l 1
 62 4 l 1
 62 94 l 1
 205 147 346 199 490 254 c 1
 282 331 139 385 62 414 c 1
 62 504 l 1
 571 307 l 1
EndSplineSet
EndChar

StartChar: greaterequal
Encoding: 8805 8805 284
Width: 615
Flags: MW
HStem: 0 83<56 566 56 566> 500 20G<56 56>
VStem: 484 81
LayerCount: 2
Fore
SplineSet
565 365 m 1
 565 258 l 1
 472 231 303 179 56 104 c 1
 56 194 l 1
 144 218 287 257 484 312 c 1
 371 342 229 381 56 430 c 1
 56 520 l 1
 565 365 l 1
566 0 m 1
 56 0 l 1
 56 83 l 1
 566 83 l 1
 566 0 l 1
EndSplineSet
EndChar

StartChar: increment
Encoding: 8710 8710 285
Width: 622
Flags: MW
HStem: 0 65<113 509 25 25> 597 89<311 311> 666 20G<259 362 362 362>
VStem: 25 572<0 65 0 65>
LayerCount: 2
Fore
SplineSet
597 65 m 1xb0
 597 0 l 1
 25 0 l 1
 25 65 l 1
 259 686 l 1
 362 686 l 1
 597 65 l 1xb0
113 65 m 1
 509 65 l 1
 311 597 l 1xd0
 113 65 l 1
EndSplineSet
EndChar

StartChar: infinity
Encoding: 8734 8734 286
Width: 764
Flags: MW
HStem: 113 63<170 217.5 170 223.5 544.5 598> 386 62<165.5 222 547.5 594>
VStem: 37 62<250 308.5 250 326.5> 663 63<257.5 313.5>
LayerCount: 2
Fore
SplineSet
571 448 m 0
 660 448 726 377 726 282 c 0
 726 179 647 113 566 113 c 0
 506 113 452 142 381 229 c 1
 296 132 255 113 192 113 c 0
 107 113 37 188 37 279 c 0
 37 374 108 448 194 448 c 0
 279 448 334 398 386 333 c 1
 446 393 494 448 571 448 c 0
195 386 m 0
 136 386 99 339 99 278 c 0
 99 222 140 176 200 176 c 0
 235 176 272 196 310 235 c 2
 340 266 l 1
 349 276 l 1
 300 349 249 386 195 386 c 0
566 386 m 0
 529 386 489 361 446 312 c 2
 417 282 l 1
 496 188 527 176 562 176 c 0
 634 176 663 231 663 284 c 0
 663 343 622 386 566 386 c 0
EndSplineSet
EndChar

StartChar: integral
Encoding: 8747 8747 287
Width: 267
Flags: MW
HStem: -250 50<26 47 26 78> 701 49<214 242>
VStem: 84 71<644 657 644 675.5> 111 72<-161.5 -142>
LayerCount: 2
Fore
SplineSet
242 750 m 1xd0
 242 701 l 1
 186 701 155 670 155 644 c 0xe0
 174 227 183 -34 183 -138 c 0
 183 -210 130 -250 26 -250 c 1
 26 -200 l 1
 68 -200 111 -181 111 -142 c 0xd0
 93 256 84 516 84 638 c 0xe0
 84 713 146 750 242 750 c 1xd0
EndSplineSet
EndChar

StartChar: less
Encoding: 60 60 288
Width: 615
Flags: MW
HStem: 4 500<553 553>
VStem: 44 80<254 254 254 307 254 307>
LayerCount: 2
Fore
SplineSet
553 414 m 1
 124 254 l 1
 553 94 l 1
 553 4 l 1
 44 200 l 1
 44 307 l 1
 553 504 l 1
 553 414 l 1
EndSplineSet
EndChar

StartChar: lessequal
Encoding: 8804 8804 289
Width: 615
Flags: MW
HStem: 0 83<49 559 49 559> 500 20G<559 559>
VStem: 50 80<312 312 312 365 312 365>
LayerCount: 2
Fore
SplineSet
559 430 m 1
 130 312 l 1
 559 194 l 1
 559 104 l 1
 312 179 143 231 50 258 c 1
 50 365 l 1
 221 417 388 469 559 520 c 1
 559 430 l 1
559 0 m 1
 49 0 l 1
 49 83 l 1
 559 83 l 1
 559 0 l 1
EndSplineSet
EndChar

StartChar: logicalnot
Encoding: 172 172 290
Width: 617
Flags: MW
HStem: 360 93<37 472 37 556>
VStem: 472 84<174 360 360 360>
LayerCount: 2
Fore
SplineSet
556 174 m 1
 472 174 l 1
 472 360 l 1
 37 360 l 1
 37 453 l 1
 556 453 l 1
 556 174 l 1
EndSplineSet
EndChar

StartChar: micro
Encoding: 181 181 291
Width: 612
Flags: MW
HStem: -10 75<252 298 534.5 535> 491 20G<82 176 176 176 420 514 514 514>
VStem: 82 94<-161 -32 140.5 184 184 511> 420 94<207 511>
LayerCount: 2
Fore
SplineSet
514 511 m 1
 514 100 l 2
 514 75 527 65 542 65 c 0
 557 65 572 70 587 79 c 1
 587 10 l 1
 567 -3 546 -10 524 -10 c 0
 446 -10 427 27 425 74 c 1
 392 25 332 -10 264 -10 c 0
 229 -10 197 -2 170 15 c 1
 176 -32 l 1
 176 -161 l 1
 82 -161 l 1
 82 511 l 1
 176 511 l 1
 176 184 l 2
 176 97 220 65 284 65 c 0
 355 65 420 127 420 207 c 2
 420 511 l 1
 514 511 l 1
EndSplineSet
EndChar

StartChar: minus
Encoding: 8722 8722 292
Width: 615
Flags: MW
HStem: 221 91<51 563 51 563>
VStem: 51 512<221 312 221 312>
LayerCount: 2
Fore
SplineSet
563 221 m 1
 51 221 l 1
 51 312 l 1
 563 312 l 1
 563 221 l 1
EndSplineSet
EndChar

StartChar: multiply
Encoding: 215 215 293
Width: 615
Flags: MW
HStem: 45 421<154 154 154 461>
VStem: 99 417<104 104 104 407>
LayerCount: 2
Fore
SplineSet
516 407 m 1
 363 255 l 1
 516 104 l 1
 461 45 l 1
 308 195 l 1
 154 45 l 1
 99 104 l 1
 252 255 l 1
 99 407 l 1
 154 466 l 1
 308 314 l 1
 461 466 l 1
 516 407 l 1
EndSplineSet
EndChar

StartChar: notequal
Encoding: 8800 8800 294
Width: 615
Flags: MW
HStem: 105 84<56 168 56 221 302 559 56 250> 318 83<56 312 56 365 446 559 56 393> 318 193<56 522 443 522 443 559 393 522>
VStem: 56 503<105 189 105 189 318 401 105 401>
LayerCount: 2
Fore
SplineSet
446 401 m 1xd0
 559 401 l 1
 559 318 l 1
 393 318 l 1
 362 275 333 232 302 189 c 1
 559 189 l 1
 559 105 l 1
 250 105 l 1
 176 0 l 1
 94 0 l 1
 127 47 151 82 168 105 c 1
 56 105 l 1
 56 189 l 1
 221 189 l 1
 312 318 l 1
 56 318 l 1
 56 401 l 1
 365 401 l 1xd0
 443 511 l 1
 522 511 l 1xb0
 446 401 l 1xd0
EndSplineSet
EndChar

StartChar: partialdiff
Encoding: 8706 8706 295
Width: 565
Flags: MW
HStem: -10 82<224.5 260 260 268> 358 73<223 275 183 303.5> 610 86<172 270 172 275>
VStem: 28 95<166.5 205 205 225 166.5 282> 405 96<205 221 221 225 225 263 357 464>
LayerCount: 2
Fore
SplineSet
172 696 m 1
 275 696 l 2
 406 696 501 595 501 464 c 2
 501 221 l 2
 501 86 402 -10 268 -10 c 2
 260 -10 l 2
 126 -10 28 81 28 218 c 0
 28 346 121 431 245 431 c 0
 305 431 368 405 405 357 c 1
 405 477 l 2
 405 544 345 610 270 610 c 2
 172 610 l 1
 172 696 l 1
263 358 m 0
 183 358 123 301 123 225 c 2
 123 205 l 2
 123 128 184 72 265 72 c 0
 345 72 405 129 405 205 c 2
 405 225 l 2
 405 301 344 358 263 358 c 0
EndSplineSet
EndChar

StartChar: percent
Encoding: 37 37 296
Width: 699
Flags: MW
HStem: -1 55<525.5 541 541 548> 293 55<541 548 548 564.5> 336 55<135.5 151 151 158> 630 55<151 158 158 174.5>
VStem: 30 64<457 564 564 571> 215 64<450 457 457 564> 420 64<120 227 227 234> 605 64<113 120 120 227>
LayerCount: 2
Fore
SplineSet
177 0 m 1xbf
 107 0 l 1
 525 686 l 1
 593 686 l 1
 177 0 l 1xbf
151 685 m 2
 158 685 l 2
 229 685 279 633 279 564 c 2
 279 457 l 2
 279 388 227 336 158 336 c 2
 151 336 l 2
 82 336 30 388 30 457 c 2
 30 564 l 2
 30 633 80 685 151 685 c 2
155 630 m 0
 116 630 94 604 94 571 c 2
 94 450 l 2
 94 417 116 391 155 391 c 0
 194 391 215 417 215 450 c 2
 215 571 l 2
 215 604 194 630 155 630 c 0
541 348 m 2xdf
 548 348 l 2
 617 348 669 296 669 227 c 2
 669 120 l 2
 669 51 619 -1 548 -1 c 2
 541 -1 l 2
 470 -1 420 51 420 120 c 2
 420 227 l 2
 420 296 472 348 541 348 c 2xdf
545 293 m 0
 506 293 484 267 484 234 c 2
 484 113 l 2
 484 80 506 54 545 54 c 0
 584 54 605 80 605 113 c 2
 605 234 l 2
 605 267 584 293 545 293 c 0
EndSplineSet
EndChar

StartChar: perthousand
Encoding: 8240 8240 297
Width: 1033
Flags: MW
HStem: -1 55<528.5 544 544 551 861.5 877 877 883> 293 55<544 551 551 567.5 877 883 883 899.5> 336 55<138.5 154 154 161> 630 55<154 161 161 177.5>
VStem: 33 64<457 564 564 571> 218 64<450 457 457 564> 423 64<120 227 227 234> 608 64<113 120 120 227> 756 64<120 227 227 234> 940 64<113 120 120 227>
LayerCount: 2
Fore
SplineSet
180 0 m 1xdfc0
 110 0 l 1
 528 686 l 1
 596 686 l 1
 180 0 l 1xdfc0
154 685 m 2
 161 685 l 2
 232 685 282 633 282 564 c 2
 282 457 l 2
 282 388 230 336 161 336 c 2
 154 336 l 2x3c
 85 336 33 388 33 457 c 2
 33 564 l 2
 33 633 83 685 154 685 c 2
158 630 m 0
 119 630 97 604 97 571 c 2
 97 450 l 2
 97 417 119 391 158 391 c 0
 197 391 218 417 218 450 c 2
 218 571 l 2
 218 604 197 630 158 630 c 0
544 348 m 2xc3c0
 551 348 l 2
 620 348 672 296 672 227 c 2
 672 120 l 2
 672 51 622 -1 551 -1 c 2
 544 -1 l 2
 473 -1 423 51 423 120 c 2
 423 227 l 2
 423 296 475 348 544 348 c 2xc3c0
877 348 m 2
 883 348 l 2
 952 348 1004 296 1004 227 c 2
 1004 120 l 2
 1004 51 954 -1 883 -1 c 2
 877 -1 l 2
 806 -1 756 51 756 120 c 2
 756 227 l 2
 756 296 808 348 877 348 c 2
548 293 m 0
 509 293 487 267 487 234 c 2
 487 113 l 2
 487 80 509 54 548 54 c 0
 587 54 608 80 608 113 c 2
 608 234 l 2
 608 267 587 293 548 293 c 0
881 293 m 0
 842 293 820 267 820 234 c 2
 820 113 l 2
 820 80 842 54 881 54 c 0
 918 54 940 80 940 113 c 2
 940 234 l 2
 940 267 918 293 881 293 c 0
EndSplineSet
EndChar

StartChar: plus
Encoding: 43 43 298
Width: 615
Flags: MW
HStem: 213 84<51 265 51 265 348 563 51 348> 491 20G<265 348 348 348>
VStem: 265 83<0 213 0 213 297 511>
LayerCount: 2
Fore
SplineSet
348 297 m 1
 563 297 l 1
 563 213 l 1
 348 213 l 1
 348 0 l 1
 265 0 l 1
 265 213 l 1
 51 213 l 1
 51 297 l 1
 265 297 l 1
 265 511 l 1
 348 511 l 1
 348 297 l 1
EndSplineSet
EndChar

StartChar: plusminus
Encoding: 177 177 299
Width: 615
Flags: MW
HStem: 0 83<55 558 55 558> 280 84<51 265 51 265 348 563 51 348> 491 20G<265 348 348 348>
VStem: 265 83<134 280 134 280 364 511>
LayerCount: 2
Fore
SplineSet
348 364 m 1
 563 364 l 1
 563 280 l 1
 348 280 l 1
 348 134 l 1
 265 134 l 1
 265 280 l 1
 51 280 l 1
 51 364 l 1
 265 364 l 1
 265 511 l 1
 348 511 l 1
 348 364 l 1
558 0 m 1
 55 0 l 1
 55 83 l 1
 558 83 l 1
 558 0 l 1
EndSplineSet
EndChar

StartChar: product
Encoding: 8719 8719 300
Width: 749
Flags: MW
HStem: 611 97<24 139 24 725 241 508 241 241 610 725 610 610>
VStem: 139 102<-98 611 -98 611> 508 102<-98 611 -98 611>
LayerCount: 2
Fore
SplineSet
725 611 m 1
 610 611 l 1
 610 -98 l 1
 508 -98 l 1
 508 611 l 1
 241 611 l 1
 241 -98 l 1
 139 -98 l 1
 139 611 l 1
 24 611 l 1
 24 708 l 1
 725 708 l 1
 725 611 l 1
EndSplineSet
EndChar

StartChar: radical
Encoding: 8730 8730 301
Width: 566
Flags: MW
HStem: -148 961<243 575 243 575>
VStem: -23 598<323 813>
LayerCount: 2
Fore
SplineSet
333 -148 m 1
 243 -148 l 1
 182 10 125 157 74 293 c 1
 -3 263 l 1
 -23 323 l 1
 139 391 l 1
 202 217 l 2
 242 106 272 30 278 4 c 2
 287 -30 l 1
 359 251 426 532 495 813 c 1
 575 813 l 1
 333 -148 l 1
EndSplineSet
EndChar

StartChar: summation
Encoding: 8721 8721 302
Width: 606
Flags: MW
HStem: -98 102<169 576 169 576> 613 95<189 558 189 189>
VStem: 27 549<-98 -35 -35 -35>
LayerCount: 2
Fore
SplineSet
558 613 m 1
 189 613 l 1
 189 609 l 1
 420 318 l 1
 168 8 l 1
 169 4 l 1
 576 4 l 1
 576 -98 l 1
 27 -98 l 1
 27 -35 l 1
 303 306 l 1
 39 642 l 1
 39 708 l 1
 558 708 l 1
 558 613 l 1
EndSplineSet
EndChar

StartChar: lozenge
Encoding: 9674 9674 303
Width: 490
Flags: MW
HStem: 0 74<246 246 246 297 194 246> 611 75<246 246> 666 20G<194 297 297 297>
VStem: 29 432<343 343>
LayerCount: 2
Fore
SplineSet
461 343 m 1xb0
 297 0 l 1
 194 0 l 1
 29 343 l 1
 194 686 l 1
 297 686 l 1
 461 343 l 1xb0
112 343 m 1
 246 74 l 1
 290 164 334 254 379 343 c 1
 334 432 290 521 246 611 c 1xd0
 112 343 l 1
EndSplineSet
EndChar

StartChar: bar
Encoding: 124 124 304
Width: 248
Flags: MW
HStem: 701 20G<84 164 164 164>
VStem: 84 80<-199 721>
LayerCount: 2
Fore
SplineSet
164 -199 m 1
 84 -199 l 1
 84 721 l 1
 164 721 l 1
 164 -199 l 1
EndSplineSet
EndChar

StartChar: brokenbar
Encoding: 166 166 305
Width: 269
Flags: MW
HStem: 0 266<90 179 90 179> 419 267<90 179 90 179>
VStem: 90 89<0 266 419 686>
LayerCount: 2
Fore
SplineSet
179 419 m 1
 90 419 l 1
 90 686 l 1
 179 686 l 1
 179 419 l 1
179 0 m 1
 90 0 l 1
 90 266 l 1
 179 266 l 1
 179 0 l 1
EndSplineSet
EndChar

StartChar: at
Encoding: 64 64 306
Width: 885
Flags: MW
HStem: -153 55<312 432.5> 22 70<395 435> 251 69<461.5 562> 451 70<454 463 463 485.5> 642 55<343 566>
VStem: 38 59<142.5 387 142.5 413.5> 241 88<136 189 136 221.5> 257 88<364 426> 562 89<233 251 251 251 320 364 364 374> 796 59<248 430.5>
LayerCount: 2
Fore
SplineSet
459 697 m 0xfec0
 705 697 855 571 855 328 c 0
 855 94 756 22 668 22 c 0
 601 22 571 51 567 109 c 1
 564 106 l 1
 527 50 472 22 398 22 c 0
 294 22 241 64 241 164 c 0xfec0
 241 279 321 320 562 320 c 1
 562 364 l 2
 562 430 519 451 452 451 c 0
 386 451 345 422 345 375 c 2
 345 364 l 1
 259 364 l 1
 258 371 257 381 257 395 c 0xfdc0
 257 457 334 521 454 521 c 2
 463 521 l 2
 591 521 651 467 651 374 c 2
 651 129 l 2
 651 104 663 91 688 91 c 0
 756 91 796 166 796 330 c 0
 796 531 674 642 458 642 c 0
 228 642 97 508 97 266 c 0
 97 19 200 -98 424 -98 c 0
 496 -98 574 -74 589 -66 c 1
 589 -126 l 1
 531 -149 441 -153 424 -153 c 0
 173 -153 38 -16 38 268 c 0
 38 559 211 697 459 697 c 0xfec0
562 233 m 2
 562 251 l 1
 361 251 329 220 329 158 c 0
 329 114 362 92 428 92 c 0
 504 92 562 153 562 233 c 2
EndSplineSet
EndChar

StartChar: ampersand
Encoding: 38 38 307
Width: 662
Flags: MW
HStem: 0 89<229 427 314 427 314 525> 306 89<306 313 313 427 525 633> 607 89<265 303.5 241.5 314> 669 20G<361 361>
VStem: 58 98<162.5 234 162.5 234> 74 97<471.5 536 471.5 571.5> 427 98<89 306 0 306>
LayerCount: 2
Fore
SplineSet
291 696 m 0xea
 316 696 339 694 361 689 c 1xda
 361 598 l 1
 342 604 323 607 305 607 c 0
 225 607 171 569 171 503 c 0xe6
 171 440 229 395 306 395 c 2
 429 395 l 1
 457 538 l 1
 525 538 l 1
 525 395 l 1
 633 395 l 1
 633 306 l 1
 525 306 l 1
 525 0 l 1
 300 0 l 2
 158 0 58 68 58 193 c 0xea
 58 275 100 329 184 354 c 1
 187 356 l 1
 123 384 74 430 74 501 c 0xe6
 74 642 192 696 291 696 c 0xea
427 306 m 1
 313 306 l 2
 213 306 156 270 156 198 c 0
 156 127 215 89 314 89 c 2
 427 89 l 1
 427 306 l 1
EndSplineSet
EndChar

StartChar: paragraph
Encoding: 182 182 308
Width: 524
Flags: MW
HStem: 625 61<280 352 280 280 415 481 415 415>
VStem: 217 63<-169 250 250 250> 352 63<-169 625 -169 625>
LayerCount: 2
Fore
SplineSet
481 625 m 1
 415 625 l 1
 415 -169 l 1
 352 -169 l 1
 352 625 l 1
 280 625 l 1
 280 -169 l 1
 217 -169 l 1
 217 250 l 1
 108 264 25 354 25 467 c 0
 25 587 121 686 243 686 c 2
 481 686 l 1
 481 625 l 1
EndSplineSet
EndChar

StartChar: copyright
Encoding: 169 169 309
Width: 780
Flags: MW
HStem: -10 40<299.5 477.5 299.5 487.5> 129 58<362.5 391 391 396> 499 57<390 395 395 422> 655 41<299.5 474.5>
VStem: 36 40<255 430.5 255 441.5> 221 67<300 386 386 401> 491 67<388 401 401 429.5> 703 41<254 434.5>
LayerCount: 2
Fore
SplineSet
390 696 m 0
 585 696 744 539 744 344 c 0
 744 147 585 -10 390 -10 c 0
 193 -10 36 147 36 344 c 0
 36 539 193 696 390 696 c 0
390 655 m 0
 209 655 76 517 76 344 c 0
 76 166 209 30 390 30 c 0
 565 30 703 165 703 343 c 0
 703 526 559 655 390 655 c 0
390 556 m 2
 395 556 l 2
 494 556 558 500 558 388 c 1
 491 388 l 1
 491 401 l 2
 491 458 451 499 393 499 c 0
 333 499 288 467 288 401 c 2
 288 286 l 2
 288 223 331 187 394 187 c 0
 451 187 493 225 493 296 c 1
 558 296 l 1
 558 189 492 129 396 129 c 2
 391 129 l 2
 288 129 221 195 221 300 c 2
 221 386 l 2
 221 490 288 556 390 556 c 2
EndSplineSet
EndChar

StartChar: registered
Encoding: 174 174 310
Width: 780
Flags: MW
HStem: -10 40<299.5 477.5 299.5 487.5> 319 54<310 409 310 421> 492 55<310 310 310 421> 656 40<299.5 475>
VStem: 36 40<255 431.5 255 441.5> 246 64<135 319 135 373 373 492> 476 62.76 484 63<431 435 435 451> 704 40<253 436.5>
LayerCount: 2
Fore
SplineSet
390 696 m 0xfe80
 585 696 744 539 744 344 c 0
 744 147 585 -10 390 -10 c 0
 193 -10 36 147 36 344 c 0
 36 539 193 696 390 696 c 0xfe80
390 656 m 0
 209 656 76 519 76 344 c 0
 76 166 209 30 390 30 c 0
 565 30 704 162 704 344 c 0
 704 529 560 656 390 656 c 0
246 547 m 1
 433 547 l 2
 491 547 547 502 547 449 c 0xfd80
 547 396 515 360 480 347 c 1
 568 311 514 176 571 156 c 1
 571 138 l 1
 561 134 551 132 541 132 c 0
 495 132 476 157 476 205 c 0
 476 296 441 319 409 319 c 2
 310 319 l 1
 310 135 l 1
 246 135 l 1
 246 547 l 1
310 492 m 1
 310 373 l 1
 421 373 l 2
 456 373 484 399 484 431 c 2
 484 435 l 2
 484 467 456 492 421 492 c 2
 310 492 l 1
EndSplineSet
EndChar

StartChar: section
Encoding: 167 167 311
Width: 514
Flags: MW
HStem: -186 75<219.5 245 245 254> 621 75<259 268 268 293.5>
VStem: 38 93<247 295> 50 94<-62.5 -47 512.5 576> 369 94<-65.5 -5 -80 24 557 572.5> 382 93<215.5 260>
LayerCount: 2
Fore
SplineSet
259 696 m 2xd8
 268 696 l 2
 384 696 463 636 463 557 c 1
 462 539 l 1
 369 539 l 1
 369 548 l 2xe8
 369 597 331 621 256 621 c 0
 181 621 144 598 144 554 c 0
 144 418 475 428 475 248 c 0xd4
 475 183 446 133 389 98 c 1
 438 63 463 20 463 -30 c 0
 463 -130 383 -186 254 -186 c 2
 245 -186 l 2
 129 -186 50 -126 50 -47 c 1
 51 -29 l 1
 144 -29 l 1
 144 -38 l 2xd8
 144 -87 182 -111 257 -111 c 0
 331 -111 369 -87 369 -44 c 0
 369 92 38 81 38 262 c 0xe8
 38 328 66 378 123 412 c 1
 80 443 50 481 50 544 c 0
 50 639 130 696 259 696 c 2xd8
189 375 m 1
 164 360 131 332 131 289 c 0
 131 205 233 177 324 134 c 1
 363 160 382 189 382 222 c 0xe4
 382 298 286 329 189 375 c 1
EndSplineSet
EndChar

StartChar: trademark
Encoding: 8482 8482 312
Width: 897
Flags: MW
HStem: 626 60<46 171 46 360 236 360 236 236>
VStem: 171 65<288 626 288 626> 384 58<288 600 288 686> 760 65<288 446 446 472>
LayerCount: 2
Fore
SplineSet
360 626 m 1
 236 626 l 1
 236 288 l 1
 171 288 l 1
 171 626 l 1
 46 626 l 1
 46 686 l 1
 360 686 l 1
 360 626 l 1
825 288 m 1
 760 288 l 1
 760 446 l 2
 760 498 759 550 758 603 c 1
 630 288 l 1
 568 288 l 1
 525 392 485 496 442 600 c 1
 442 288 l 1
 384 288 l 1
 384 686 l 1
 483 686 l 1
 523 586 563 485 604 385 c 1
 727 686 l 1
 825 686 l 1
 825 288 l 1
EndSplineSet
EndChar

StartChar: degree
Encoding: 176 176 313
Width: 394
Flags: MW
HStem: 396 59<171.5 222 171.5 236.5> 635 61<171.5 222>
VStem: 47 56<519 571 519 584.5> 290 57<520 569.5>
LayerCount: 2
Fore
SplineSet
197 696 m 0
 277 696 347 626 347 546 c 0
 347 463 276 396 197 396 c 0
 118 396 47 463 47 546 c 0
 47 623 111 696 197 696 c 0
196 635 m 0
 147 635 103 597 103 545 c 0
 103 493 146 455 197 455 c 0
 247 455 290 495 290 545 c 0
 290 594 248 635 196 635 c 0
EndSplineSet
EndChar

StartChar: estimated
Encoding: 8494 8494 314
Width: 749
Flags: MW
HStem: -10 60<337.5 417.5 337.5 433.5> 316 55<194 553 194 679 194 553> 636 60<336 413>
VStem: 71 123<144 367 371 470> 553 126<316 547>
LayerCount: 2
Fore
SplineSet
375 696 m 0
 557 696 679 573 679 368 c 2
 679 316 l 1
 194 316 l 1
 194 144 l 1
 234 81 298 50 377 50 c 0
 458 50 538 83 579 156 c 1
 636 120 l 1
 582 36 490 -10 377 -10 c 0
 192 -10 71 113 71 319 c 2
 71 367 l 2
 71 573 193 696 375 696 c 0
194 371 m 1
 553 371 l 1
 553 547 l 1
 513 606 451 636 375 636 c 0
 297 636 233 605 194 543 c 1
 194 371 l 1
EndSplineSet
EndChar

StartChar: literSign
Encoding: 8467 8467 315
Width: 499
Flags: MW
HStem: -10 73<259 292.5> 230 75<31 99 31 99> 614 82<251 300>
VStem: 99 94<176 230 133 230 305 511> 360 79<479 506 506 508 398.5 541.5>
LayerCount: 2
Fore
SplineSet
439 508 m 2
 439 479 l 2
 439 318 341 233 193 230 c 1
 193 171 l 2
 193 95 226 63 292 63 c 0
 318 63 348 68 382 78 c 1
 382 8 l 1
 352 -4 312 -10 273 -10 c 0
 158 -10 99 42 99 176 c 2
 99 230 l 1
 31 230 l 1
 31 305 l 1
 99 305 l 1
 99 511 l 2
 99 633 165 696 265 696 c 0
 369 696 439 628 439 508 c 2
193 511 m 2
 193 305 l 1
 300 308 360 372 360 479 c 2
 360 506 l 2
 360 577 325 614 275 614 c 0
 227 614 193 580 193 511 c 2
EndSplineSet
EndChar

StartChar: asciicircum
Encoding: 94 94 316
Width: 596
Flags: MW
HStem: 421 90<298 298> 491 20G<246 349 349 349>
VStem: 49 497<0 0>
LayerCount: 2
Fore
SplineSet
546 0 m 1x60
 462 0 l 1
 429 82 375 222 298 421 c 1xa0
 133 0 l 1
 49 0 l 1
 246 511 l 1
 349 511 l 1
 546 0 l 1x60
EndSplineSet
EndChar

StartChar: dagger
Encoding: 8224 8224 317
Width: 510
Flags: MW
HStem: 490 20G<23 23 487 487> 666 20G<211 299 299 299>
VStem: 219.5 71 228 74<-170 435 -170 435 -170 493>
LayerCount: 2
Fore
SplineSet
282 493 m 1xe0
 487 510 l 1
 487 417 l 1
 302 435 l 1
 302 -170 l 1
 228 -170 l 1
 228 435 l 1
 23 417 l 1
 23 510 l 1
 228 493 l 1
 211 686 l 1xd0
 299 686 l 1
 282 493 l 1xe0
EndSplineSet
EndChar

StartChar: daggerdbl
Encoding: 8225 8225 318
Width: 533
Flags: MW
HStem: -175 251 18 75 490 20G<35 35 498 498> 666 20G<223 310 310 310>
VStem: 231.5 70 240 53<18 18>
LayerCount: 2
Fore
SplineSet
293 492 m 1x78
 498 510 l 1
 498 417 l 1
 293 434 l 1
 297 399 303 339 310 256 c 1
 305 196 300 136 293 76 c 1xb4
 391 83 459 89 498 93 c 1
 498 0 l 1
 293 18 l 1x74
 297 -19 303 -83 310 -175 c 1
 223 -175 l 1xb4
 230 -83 236 -19 240 18 c 1
 35 0 l 1
 35 93 l 1x74
 103 86 172 81 240 76 c 1
 233 136 228 196 223 256 c 1
 230 339 236 399 240 434 c 1xb4
 209 431 140 425 35 417 c 1
 35 510 l 1
 240 492 l 1
 223 686 l 1
 310 686 l 1
 293 492 l 1x78
EndSplineSet
EndChar

StartChar: acute
Encoding: 180 180 319
Width: 333
Flags: MW
HStem: 575 145<68 252 68 252>
VStem: 68 185<575 717>
LayerCount: 2
Fore
SplineSet
253 717 m 1
 137 575 l 1
 68 575 l 1
 162 720 l 1
 252 720 l 1
 253 717 l 1
EndSplineSet
EndChar

StartChar: breve
Encoding: 728 728 320
Width: 520
Flags: MW
HStem: 613 62<228.5 290.5 228.5 307.5>
VStem: 68 385<706.5 737>
LayerCount: 2
Fore
SplineSet
385 737 m 1
 453 737 l 1
 453 675 355 613 260 613 c 0
 163 613 68 676 68 737 c 1
 135 737 l 1
 146 701 197 675 260 675 c 0
 321 675 374 701 385 737 c 1
EndSplineSet
EndChar

StartChar: caron
Encoding: 711 711 321
Width: 536
Flags: MW
HStem: 575 145<92 306 92 228>
VStem: 92 349<720 720>
LayerCount: 2
Fore
SplineSet
306 575 m 1
 228 575 l 1
 92 720 l 1
 172 720 l 1
 267 631 l 1
 361 720 l 1
 441 720 l 1
 306 575 l 1
EndSplineSet
EndChar

StartChar: cedilla
Encoding: 184 184 322
Width: 350
Flags: MW
HStem: -197 51<153.5 174 141 201> -60 43<145 166 145 169>
VStem: 218 62<-116 -87.5>
LayerCount: 2
Fore
SplineSet
145 -17 m 1
 169 -17 l 2
 243 -17 280 -47 280 -106 c 0
 280 -164 227 -197 175 -197 c 0
 132 -197 97 -190 70 -175 c 1
 79 -126 l 1
 106 -139 130 -146 152 -146 c 0
 196 -146 218 -131 218 -101 c 0
 218 -74 194 -60 166 -60 c 2
 145 -60 l 1
 145 -17 l 1
EndSplineSet
EndChar

StartChar: circumflex
Encoding: 710 710 323
Width: 536
Flags: MW
HStem: 575 145<92 306 92 306 228 441 228 361> 664 56<267 267>
VStem: 92 349<575 575>
LayerCount: 2
Fore
SplineSet
441 575 m 1xa0
 361 575 l 1xa0
 267 664 l 1x60
 172 575 l 1
 92 575 l 1
 228 720 l 1
 306 720 l 1
 441 575 l 1xa0
EndSplineSet
EndChar

StartChar: dieresis
Encoding: 168 168 324
Width: 440
Flags: MW
HStem: 633 98<81 171 81 171 269 360>
VStem: 81 90<633 731> 269 91<633 731>
LayerCount: 2
Fore
SplineSet
171 633 m 1
 81 633 l 1
 81 731 l 1
 171 731 l 1
 171 633 l 1
360 633 m 1
 269 633 l 1
 269 731 l 1
 360 731 l 1
 360 633 l 1
EndSplineSet
EndChar

StartChar: dotaccent
Encoding: 729 729 325
Width: 280
Flags: MW
HStem: 604 132<122 158>
VStem: 74 132<652.5 687.5 650.5 689>
LayerCount: 2
Fore
SplineSet
140 736 m 0
 177 736 206 706 206 669 c 0
 206 632 176 604 140 604 c 0
 104 604 74 634 74 671 c 0
 74 707 103 736 140 736 c 0
EndSplineSet
EndChar

StartChar: grave
Encoding: 96 96 326
Width: 333
Flags: MW
HStem: 575 145<69 253 69 183>
VStem: 68 185<575 717>
LayerCount: 2
Fore
SplineSet
253 575 m 1
 183 575 l 1
 68 717 l 1
 69 720 l 1
 158 720 l 1
 253 575 l 1
EndSplineSet
EndChar

StartChar: hungarumlaut
Encoding: 733 733 327
Width: 442
Flags: MW
HStem: 575 145<51 235 51 235 206 206 206 235 146 276>
VStem: 51 340<575 717>
LayerCount: 2
Fore
SplineSet
236 717 m 1
 121 575 l 1
 51 575 l 1
 146 720 l 1
 235 720 l 1
 236 717 l 1
391 717 m 1
 276 575 l 1
 206 575 l 1
 300 720 l 1
 390 720 l 1
 391 717 l 1
EndSplineSet
EndChar

StartChar: macron
Encoding: 175 175 328
Width: 460
Flags: MW
HStem: 662 74<71 389 71 389>
VStem: 71 318<662 736 662 736>
LayerCount: 2
Fore
SplineSet
389 662 m 1
 71 662 l 1
 71 736 l 1
 389 736 l 1
 389 662 l 1
EndSplineSet
EndChar

StartChar: ogonek
Encoding: 731 731 329
Width: 340
Flags: MW
HStem: -143 47<160.5 182> -20 20G<123 177 177 177>
VStem: 69 62<-70.5 -54.5>
LayerCount: 2
Fore
SplineSet
123 0 m 1
 177 0 l 1
 157 -11 131 -35 131 -58 c 0
 131 -83 146 -96 175 -96 c 0
 190 -96 212 -91 242 -82 c 1
 255 -119 l 1
 228 -135 198 -143 166 -143 c 0
 107 -143 69 -120 69 -69 c 0
 69 -40 99 -16 123 0 c 1
EndSplineSet
EndChar

StartChar: ring
Encoding: 730 730 330
Width: 340
Flags: MW
HStem: 545 47<154.5 185.5 154.5 198> 699 47<154.5 185.5>
VStem: 69 45<629.5 660.5 629.5 673> 226 45<630.5 660.5>
LayerCount: 2
Fore
SplineSet
170 746 m 0
 220 746 271 703 271 645 c 0
 271 590 226 545 170 545 c 0
 117 545 69 588 69 645 c 0
 69 701 114 746 170 746 c 0
170 699 m 0
 139 699 114 676 114 645 c 0
 114 614 139 592 170 592 c 0
 201 592 226 615 226 646 c 0
 226 675 201 699 170 699 c 0
EndSplineSet
EndChar

StartChar: tilde
Encoding: 732 732 331
Width: 364
Flags: MW
HStem: 613 69<271.5 294.5 271.5 306.5> 647 70<89 118.5>
VStem: -1 386<613 717>
LayerCount: 2
Fore
SplineSet
335 717 m 1x60
 385 717 l 1x60
 385 658 340 613 273 613 c 0xa0
 253 613 229 616 203 624 c 0
 148 640 133 647 104 647 c 0
 74 647 56 636 49 613 c 1
 -1 613 l 1
 -1 665 38 717 110 717 c 0x60
 144 717 172 708 200 700 c 0
 237 688 263 682 280 682 c 0xa0
 309 682 328 694 335 717 c 1x60
EndSplineSet
EndChar

StartChar: caron.alt
Encoding: 65537 -1 332
Width: 219
Flags: MW
HStem: 575 111<61 102 61 162>
VStem: 61 101<601 601 601 686 601 686>
LayerCount: 2
Fore
SplineSet
162 601 m 1
 127 451 l 1
 75 451 l 1
 102 575 l 1
 61 575 l 1
 61 686 l 1
 162 686 l 1
 162 601 l 1
EndSplineSet
EndChar

StartChar: commaaccent
Encoding: 806 806 333
Width: 0
GlyphClass: 4
Flags: MW
HStem: -151 111<69 110 69 170>
VStem: 69 101<-125 -125 -125 -40 -125 -40>
AnchorPoint: "Bottom" 120 0 mark 0
LayerCount: 2
Fore
SplineSet
170 -125 m 1
 141 -250 l 1
 88 -250 l 1
 110 -151 l 1
 69 -151 l 1
 69 -40 l 1
 170 -40 l 1
 170 -125 l 1
EndSplineSet
EndChar

StartChar: firsttonechinese
Encoding: 713 713 334
Width: 460
Flags: MW
HStem: 662 74<71 389 71 389>
VStem: 71 318<662 736 662 736>
LayerCount: 2
Fore
SplineSet
389 662 m 1
 71 662 l 1
 71 736 l 1
 389 736 l 1
 389 662 l 1
EndSplineSet
EndChar
